<?xml version="1.0" encoding="UTF-8"?><svg id="uuid-d0948668-f5ab-4d53-af6e-b4ef4edd5779" xmlns="http://www.w3.org/2000/svg" xmlns:xlink="http://www.w3.org/1999/xlink" viewBox="0 0 150 76"><defs><style>.uuid-b5e314bf-32a1-4fb0-9f6f-6c707c6afbd3{fill:none;}.uuid-b5e314bf-32a1-4fb0-9f6f-6c707c6afbd3,.uuid-76cdd7b9-6b56-486f-a280-cb4eaeac8d5a,.uuid-a6a069d8-2b3f-4d04-b3be-e7509c04c152,.uuid-def818b2-fc8c-49ee-8e11-c003cbd6d945,.uuid-06ae2f4f-b1ec-4b5c-a2c1-1148bc10756f,.uuid-3323b49d-5134-4887-831d-80ca89d1deb7{stroke-width:0px;}.uuid-76cdd7b9-6b56-486f-a280-cb4eaeac8d5a{fill:#606060;}.uuid-5931727b-e11f-4f41-85e6-8672133b1efc{clip-path:url(#uuid-f77f76ee-e862-4fe0-bc9c-01e9d974b6be);}.uuid-a6a069d8-2b3f-4d04-b3be-e7509c04c152{fill:#1c355e;}.uuid-def818b2-fc8c-49ee-8e11-c003cbd6d945{fill:#45d3f4;}.uuid-06ae2f4f-b1ec-4b5c-a2c1-1148bc10756f{fill:#1c355e;}.uuid-3323b49d-5134-4887-831d-80ca89d1deb7{fill:#8669f9;}</style><clipPath id="uuid-f77f76ee-e862-4fe0-bc9c-01e9d974b6be"><rect class="uuid-b5e314bf-32a1-4fb0-9f6f-6c707c6afbd3" width="150" height="76"/></clipPath></defs><g id="uuid-83a9d034-8002-4630-bd85-9f86d921dd44"><g class="uuid-5931727b-e11f-4f41-85e6-8672133b1efc"><path class="uuid-a6a069d8-2b3f-4d04-b3be-e7509c04c152" d="M43.66,19.05v-8.4h1.28l3.67,6.13h-.67l3.61-6.13h1.28v8.4s-1.46,0-1.46,0v-6.08s.3,0,.3,0l-3.07,5.12h-.7l-3.12-5.12h.36v6.08h-1.49Z"/><path class="uuid-a6a069d8-2b3f-4d04-b3be-e7509c04c152" d="M54.04,19.05l3.78-8.4h1.54l3.79,8.4h-1.63l-3.25-7.57h.62l-3.24,7.57h-1.61ZM55.78,17.11l.42-1.22h4.53l.42,1.22h-5.37Z"/><path class="uuid-a6a069d8-2b3f-4d04-b3be-e7509c04c152" d="M64.34,19.05v-8.4h3.45c.74,0,1.38.12,1.91.36.53.24.94.58,1.23,1.03.29.45.43.98.43,1.6s-.14,1.15-.43,1.59c-.29.44-.7.78-1.23,1.02-.53.24-1.17.35-1.91.35h-2.59l.7-.71v3.15h-1.56ZM65.9,16.07l-.7-.74h2.52c.69,0,1.21-.15,1.55-.44.35-.3.52-.71.52-1.24s-.17-.95-.52-1.24c-.35-.29-.87-.43-1.55-.43h-2.52l.7-.77v4.86ZM69.83,19.05l-2.12-3.05h1.67l2.14,3.05h-1.68Z"/><path class="uuid-a6a069d8-2b3f-4d04-b3be-e7509c04c152" d="M77.11,19.17c-.64,0-1.23-.11-1.78-.32-.55-.21-1.02-.51-1.43-.9-.4-.39-.72-.85-.94-1.37-.22-.53-.34-1.1-.34-1.73s.11-1.2.34-1.73c.22-.53.54-.99.95-1.37.41-.39.88-.69,1.43-.9.54-.21,1.14-.32,1.79-.32.69,0,1.32.12,1.88.35.57.24,1.05.59,1.44,1.05l-1.01.95c-.3-.33-.64-.57-1.02-.74-.38-.16-.78-.25-1.22-.25s-.84.07-1.21.22c-.36.14-.68.35-.95.61-.27.26-.48.58-.62.94-.15.36-.22.76-.22,1.19s.07.83.22,1.19c.15.36.36.67.62.94.27.26.58.47.95.61.36.14.77.22,1.21.22s.85-.08,1.22-.25c.38-.16.72-.41,1.02-.75l1.01.96c-.39.46-.87.8-1.44,1.04-.57.24-1.2.36-1.9.36Z"/><path class="uuid-a6a069d8-2b3f-4d04-b3be-e7509c04c152" d="M80.7,19.05l3.78-8.4h1.54l3.79,8.4h-1.63l-3.25-7.57h.62l-3.24,7.57h-1.61ZM82.44,17.11l.42-1.22h4.53l.42,1.22h-5.37Z"/><path class="uuid-a6a069d8-2b3f-4d04-b3be-e7509c04c152" d="M93.59,19.17c-.66,0-1.28-.09-1.88-.28s-1.08-.43-1.43-.73l.54-1.21c.34.26.75.48,1.25.66.5.18,1,.26,1.52.26.44,0,.8-.05,1.07-.14.27-.1.47-.23.6-.39.13-.16.19-.35.19-.56,0-.26-.09-.46-.28-.62-.18-.16-.42-.28-.71-.37-.29-.09-.62-.18-.97-.26-.36-.08-.71-.17-1.07-.28-.36-.11-.68-.25-.97-.42-.29-.17-.53-.4-.71-.69-.18-.29-.28-.66-.28-1.1s.12-.87.37-1.25c.24-.38.62-.68,1.12-.91.5-.23,1.13-.34,1.9-.34.5,0,1,.06,1.5.19.5.13.93.31,1.3.55l-.49,1.21c-.38-.22-.76-.39-1.16-.5-.4-.11-.78-.16-1.15-.16-.43,0-.78.05-1.05.16-.27.1-.46.24-.59.41-.12.17-.19.36-.19.58,0,.26.09.46.27.62.18.16.42.28.71.37.29.09.62.17.98.26.36.08.72.18,1.07.28.36.1.68.24.97.41.29.17.53.4.71.68.18.29.27.65.27,1.09s-.12.86-.37,1.24c-.24.38-.62.68-1.12.91-.5.23-1.14.34-1.91.34Z"/><path class="uuid-a6a069d8-2b3f-4d04-b3be-e7509c04c152" d="M15.54,30.82c-.64,0-1.23-.11-1.78-.32-.55-.21-1.02-.51-1.43-.9-.4-.39-.72-.85-.94-1.37-.22-.53-.34-1.1-.34-1.73s.11-1.2.34-1.73c.22-.53.54-.99.95-1.37.41-.39.88-.69,1.43-.9.54-.21,1.14-.32,1.79-.32.69,0,1.32.12,1.88.35.57.24,1.05.59,1.44,1.05l-1.01.95c-.3-.33-.64-.57-1.02-.74-.38-.16-.78-.25-1.22-.25s-.84.07-1.21.22c-.36.14-.68.35-.95.61-.27.26-.48.58-.62.94-.15.36-.22.76-.22,1.19s.07.83.22,1.19c.15.36.36.67.62.94.27.26.58.47.95.61.36.14.77.22,1.21.22s.85-.08,1.22-.25c.38-.16.72-.41,1.02-.75l1.01.96c-.39.46-.87.8-1.44,1.04-.57.24-1.2.36-1.9.36Z"/><path class="uuid-a6a069d8-2b3f-4d04-b3be-e7509c04c152" d="M20.49,30.7v-8.4h1.56v8.4h-1.56Z"/><path class="uuid-a6a069d8-2b3f-4d04-b3be-e7509c04c152" d="M28.05,30.82c-1.15,0-2.05-.32-2.71-.97-.65-.65-.98-1.58-.98-2.81v-4.74h1.56v4.68c0,.86.19,1.49.56,1.88.37.39.9.59,1.58.59s1.2-.2,1.57-.59c.37-.39.55-1.02.55-1.88v-4.68h1.54v4.74c0,1.22-.33,2.16-.98,2.81-.65.65-1.55.97-2.69.97Z"/><path class="uuid-a6a069d8-2b3f-4d04-b3be-e7509c04c152" d="M34.02,30.7v-8.4h3.67c.91,0,1.71.18,2.4.53.69.35,1.22.84,1.61,1.46.38.62.58,1.36.58,2.21s-.19,1.57-.58,2.2c-.38.63-.92,1.12-1.61,1.47-.69.35-1.49.53-2.4.53h-3.67ZM35.58,29.38h2.04c.63,0,1.18-.12,1.64-.36.46-.24.82-.58,1.07-1.01.25-.43.38-.94.38-1.51s-.13-1.09-.38-1.52c-.25-.43-.61-.76-1.07-1-.46-.24-1.01-.36-1.64-.36h-2.04v5.76Z"/><path class="uuid-a6a069d8-2b3f-4d04-b3be-e7509c04c152" d="M42.74,30.7l3.78-8.4h1.54l3.79,8.4h-1.63l-3.25-7.57h.62l-3.24,7.57h-1.61ZM44.48,28.76l.42-1.22h4.53l.42,1.22h-5.37Z"/><path class="uuid-a6a069d8-2b3f-4d04-b3be-e7509c04c152" d="M53.04,30.7v-8.4h3.67c.91,0,1.71.18,2.4.53.69.35,1.22.84,1.61,1.46.38.62.58,1.36.58,2.21s-.19,1.57-.58,2.2c-.38.63-.92,1.12-1.61,1.47-.69.35-1.49.53-2.4.53h-3.67ZM54.6,29.38h2.04c.63,0,1.18-.12,1.64-.36.46-.24.82-.58,1.07-1.01.25-.43.38-.94.38-1.51s-.13-1.09-.38-1.52c-.25-.43-.61-.76-1.07-1-.46-.24-1.01-.36-1.64-.36h-2.04v5.76Z"/><path class="uuid-a6a069d8-2b3f-4d04-b3be-e7509c04c152" d="M61.76,30.7l3.78-8.4h1.54l3.79,8.4h-1.63l-3.25-7.57h.62l-3.24,7.57h-1.61ZM63.5,28.76l.42-1.22h4.53l.42,1.22h-5.37Z"/><path class="uuid-a6a069d8-2b3f-4d04-b3be-e7509c04c152" d="M72.05,30.7v-8.4h1.28l5.27,6.47h-.64v-6.47h1.55v8.4h-1.28l-5.27-6.47h.64v6.47h-1.55Z"/><path class="uuid-a6a069d8-2b3f-4d04-b3be-e7509c04c152" d="M80.7,30.7l3.78-8.4h1.54l3.79,8.4h-1.63l-3.25-7.57h.62l-3.24,7.57h-1.61ZM82.44,28.76l.42-1.22h4.53l.42,1.22h-5.37Z"/><path class="uuid-a6a069d8-2b3f-4d04-b3be-e7509c04c152" d="M93.59,30.82c-.66,0-1.28-.09-1.88-.28s-1.08-.43-1.43-.73l.54-1.21c.34.26.75.48,1.25.66.5.18,1,.26,1.52.26.44,0,.8-.05,1.07-.14.27-.1.47-.23.6-.39.13-.16.19-.35.19-.56,0-.26-.09-.46-.28-.62-.18-.16-.42-.28-.71-.37-.29-.09-.62-.18-.97-.26-.36-.08-.71-.17-1.07-.28-.36-.11-.68-.25-.97-.42-.29-.17-.53-.4-.71-.69-.18-.29-.28-.66-.28-1.1s.12-.87.37-1.25c.24-.38.62-.68,1.12-.91.5-.23,1.13-.34,1.9-.34.5,0,1,.06,1.5.19.5.13.93.31,1.3.55l-.49,1.21c-.38-.22-.76-.39-1.16-.5-.4-.11-.78-.16-1.15-.16-.43,0-.78.05-1.05.16-.27.1-.46.24-.59.41-.12.17-.19.36-.19.58,0,.26.09.46.27.62.18.16.42.28.71.37.29.09.62.17.98.26.36.08.72.18,1.07.28.36.1.68.24.97.41.29.17.53.4.71.68.18.29.27.65.27,1.09s-.12.86-.37,1.24c-.24.38-.62.68-1.12.91-.5.23-1.14.34-1.91.34Z"/><path class="uuid-a6a069d8-2b3f-4d04-b3be-e7509c04c152" d="M57.62,42.09v-.71h4.66v.71h-4.66Z"/><path class="uuid-a6a069d8-2b3f-4d04-b3be-e7509c04c152" d="M66,41.47c-.5,0-.96-.08-1.39-.25-.43-.16-.8-.4-1.11-.7-.31-.3-.56-.66-.73-1.07-.17-.41-.26-.86-.26-1.34s.09-.93.26-1.34c.17-.41.42-.77.74-1.07.32-.3.69-.53,1.11-.7.42-.16.89-.25,1.39-.25.53,0,1.02.09,1.46.28.44.18.81.46,1.12.82l-.78.74c-.24-.25-.5-.45-.79-.57-.29-.13-.61-.19-.95-.19s-.65.06-.94.17c-.28.11-.53.27-.74.48-.21.21-.37.45-.49.73-.12.28-.17.59-.17.92s.06.64.17.92c.12.28.28.52.49.73.21.21.45.36.74.48.28.11.6.17.94.17s.66-.06.95-.19c.29-.13.56-.32.79-.58l.78.75c-.3.35-.68.63-1.12.81-.44.19-.93.28-1.47.28Z"/><path class="uuid-a6a069d8-2b3f-4d04-b3be-e7509c04c152" d="M71.2,41.45c-.37,0-.7-.06-.98-.19-.28-.13-.5-.3-.65-.53-.15-.23-.23-.48-.23-.77s.07-.53.2-.76c.13-.22.35-.4.66-.53.3-.13.71-.2,1.21-.2h1.45v.77h-1.36c-.4,0-.67.06-.8.19-.14.13-.21.28-.21.47,0,.21.08.38.25.5.17.12.4.19.7.19s.54-.07.77-.2c.23-.13.39-.32.49-.58l.2.7c-.11.29-.31.52-.6.68-.29.16-.65.24-1.1.24ZM72.76,41.38v-1.01l-.07-.21v-1.76c0-.34-.1-.61-.31-.8-.21-.19-.52-.28-.93-.28-.28,0-.56.04-.83.13-.27.09-.5.21-.69.36l-.46-.85c.27-.21.59-.36.96-.46.37-.1.75-.15,1.15-.15.72,0,1.28.17,1.67.52.39.35.59.88.59,1.6v2.92h-1.1Z"/><path class="uuid-a6a069d8-2b3f-4d04-b3be-e7509c04c152" d="M77.57,41.45c-.48,0-.91-.11-1.29-.32-.38-.21-.68-.51-.9-.89-.22-.38-.33-.83-.33-1.34s.11-.96.33-1.34c.22-.38.52-.67.9-.89.38-.21.81-.32,1.29-.32.42,0,.79.09,1.12.28.33.18.59.46.78.84.19.37.29.85.29,1.44s-.09,1.06-.28,1.43c-.19.38-.44.66-.77.84-.33.19-.71.28-1.14.28ZM77.71,40.45c.28,0,.53-.06.75-.19.22-.12.4-.3.53-.54.13-.24.2-.51.2-.83s-.07-.6-.2-.84c-.13-.23-.31-.41-.53-.54-.22-.12-.47-.19-.75-.19s-.53.06-.75.19c-.22.12-.4.3-.53.54-.13.23-.2.51-.2.84s.07.59.2.83c.13.24.31.42.53.54.22.12.47.19.75.19ZM79.22,41.38v-1.18l.05-1.32-.09-1.32v-3.1h1.16v6.92h-1.11Z"/><path class="uuid-a6a069d8-2b3f-4d04-b3be-e7509c04c152" d="M84.3,41.45c-.55,0-1.04-.11-1.45-.33-.41-.22-.73-.52-.96-.91-.23-.39-.34-.82-.34-1.32s.11-.94.33-1.32c.22-.38.53-.68.91-.9.39-.22.83-.33,1.33-.33s.92.11,1.3.32c.38.21.68.51.9.9.22.39.33.84.33,1.36,0,.05,0,.11,0,.17,0,.06,0,.12-.01.18h-4.15v-.77h3.54l-.46.24c0-.29-.05-.54-.18-.76-.12-.22-.29-.39-.51-.51-.21-.12-.46-.19-.74-.19s-.54.06-.75.19c-.21.12-.38.3-.5.52-.12.22-.18.48-.18.78v.19c0,.3.07.56.21.79.14.23.33.41.58.53.25.12.53.19.86.19.28,0,.53-.04.76-.13.22-.09.42-.22.6-.41l.63.72c-.22.26-.51.46-.84.6-.34.14-.73.21-1.16.21Z"/><path class="uuid-a6a069d8-2b3f-4d04-b3be-e7509c04c152" d="M94.15,36.34c.4,0,.75.08,1.06.23.31.16.55.39.72.71.17.32.26.73.26,1.24v2.85h-1.17v-2.71c0-.44-.1-.77-.29-.99-.19-.22-.47-.33-.83-.33-.26,0-.48.06-.68.17-.2.11-.35.28-.46.49-.11.22-.16.49-.16.83v2.53h-1.17v-2.71c0-.44-.1-.77-.29-.99-.19-.22-.47-.33-.83-.33-.26,0-.48.06-.68.17s-.35.28-.46.49c-.11.22-.16.49-.16.83v2.53h-1.17v-4.98h1.11v1.32l-.2-.39c.17-.32.41-.57.73-.74.32-.17.69-.25,1.1-.25.47,0,.87.12,1.22.35.35.23.57.58.69,1.04l-.46-.16c.16-.37.43-.67.8-.9.37-.22.81-.34,1.3-.34Z"/><path class="uuid-def818b2-fc8c-49ee-8e11-c003cbd6d945" d="M136.25,14.64c-3.47-4.85-9.88-6.96-15.82-6.49-1.63.13-3.27.44-4.82.98,2.3-.72,4.39-.97,5.76-1.02,1.45-.05,2.16.68,2.29,1.19.47,1.82-2,1.09-5.31,2.31-3.85,1.42-5.48,4.01-6.12,8.2-.6,3.92.91,7.36,4.96,8.43,2.95.78,4.81.61,7.67-.99,3.02-1.69,4.91-2.48,6.87-.15,1.94,2.31.57,6.08-1.59,8.01-1.41,1.26-2.71,2.14-4.18,2.68.44.91.78,1.88,1.02,2.87h0c.02.1.05.2.07.3.1.35.34.79.75.92.69.2,2.02-.83,2.21-.96,3.48-3,6.03-6.25,7.67-10.52,1.97-5.13,1.76-11.29-1.43-15.76Z"/><path class="uuid-3323b49d-5134-4887-831d-80ca89d1deb7" d="M123.43,34.5c-.95-.78-2.1-1.26-3.23-1.74-3.04-1.28-6.1-2.66-8.6-4.83-2.49-2.16-4.37-5.25-4.37-8.55,0-3.18,1.8-6.19,4.32-8.12,1.22-.93,2.6-1.63,4.05-2.14-4.38,1.37-9.51,4.45-11.72,11.12-3.98,11.98,8.58,17.01,12.02,17.6,4.66.81,7.59.86,10.06-.05-.62-1.27-1.46-2.42-2.53-3.31Z"/><path class="uuid-06ae2f4f-b1ec-4b5c-a2c1-1148bc10756f" d="M131.73,27.11c-1.95-2.33-3.85-1.55-6.87.15-2.86,1.6-4.72,1.77-7.67.99-4.05-1.07-5.56-4.51-4.96-8.43.64-4.2,2.27-6.78,6.12-8.2,3.31-1.22,5.78-.49,5.31-2.31-.13-.52-.85-1.25-2.29-1.19-1.36.05-3.46.3-5.76,1.02-1.45.5-2.83,1.2-4.05,2.14-2.52,1.93-4.31,4.95-4.32,8.12,0,3.3,1.88,6.38,4.37,8.55,2.49,2.16,5.55,3.55,8.6,4.83,1.13.48,2.29.95,3.23,1.74,1.08.89,1.91,2.03,2.53,3.31,1.47-.54,2.77-1.42,4.18-2.68,2.16-1.93,3.52-5.7,1.59-8.01Z"/><path class="uuid-76cdd7b9-6b56-486f-a280-cb4eaeac8d5a" d="M23.92,56.39l-1.38-4.48h-.04c.05.91.07,1.52.07,1.82v2.66h-1.08v-5.71h1.65l1.35,4.37h.02l1.43-4.37h1.65v5.71h-1.13v-2.7c0-.13,0-.27,0-.44,0-.17.02-.61.05-1.33h-.04l-1.47,4.47h-1.11Z"/><path class="uuid-76cdd7b9-6b56-486f-a280-cb4eaeac8d5a" d="M31.73,56.39l-.23-.59h-.03c-.2.25-.41.43-.62.53s-.49.15-.83.15c-.42,0-.75-.12-.99-.36-.24-.24-.36-.58-.36-1.02s.16-.81.49-1.03c.32-.22.81-.34,1.47-.37l.76-.02v-.19c0-.44-.23-.66-.68-.66-.35,0-.76.11-1.23.32l-.39-.8c.5-.26,1.06-.39,1.67-.39s1.04.13,1.35.38c.31.26.47.64.47,1.16v2.91h-.83ZM31.37,54.36l-.46.02c-.35.01-.6.07-.77.19-.17.11-.25.29-.25.52,0,.34.19.5.58.5.28,0,.5-.08.66-.24.17-.16.25-.37.25-.63v-.36Z"/><path class="uuid-76cdd7b9-6b56-486f-a280-cb4eaeac8d5a" d="M36.22,51.94c.16,0,.3.01.4.04l-.09,1.12c-.1-.03-.21-.04-.35-.04-.38,0-.68.1-.89.29s-.32.47-.32.82v2.22h-1.19v-4.37h.9l.18.73h.06c.14-.24.32-.44.55-.59.23-.15.48-.22.75-.22Z"/><path class="uuid-76cdd7b9-6b56-486f-a280-cb4eaeac8d5a" d="M39.19,56.47c-1.36,0-2.04-.75-2.04-2.24,0-.74.18-1.31.55-1.7.37-.39.9-.59,1.59-.59.5,0,.96.1,1.36.3l-.35.92c-.19-.08-.36-.14-.52-.19-.16-.05-.32-.07-.48-.07-.62,0-.93.44-.93,1.32s.31,1.28.93,1.28c.23,0,.44-.03.64-.09.2-.06.39-.16.59-.29v1.02c-.19.12-.39.21-.58.25s-.44.07-.74.07Z"/><path class="uuid-76cdd7b9-6b56-486f-a280-cb4eaeac8d5a" d="M44.3,56.39l-.23-.59h-.03c-.2.25-.41.43-.62.53s-.49.15-.83.15c-.42,0-.75-.12-.99-.36-.24-.24-.36-.58-.36-1.02s.16-.81.49-1.03c.32-.22.81-.34,1.47-.37l.76-.02v-.19c0-.44-.23-.66-.68-.66-.35,0-.76.11-1.23.32l-.39-.8c.5-.26,1.06-.39,1.67-.39s1.04.13,1.35.38c.31.26.47.64.47,1.16v2.91h-.83ZM43.95,54.36l-.46.02c-.35.01-.6.07-.77.19-.17.11-.25.29-.25.52,0,.34.19.5.58.5.28,0,.5-.08.66-.24.17-.16.25-.37.25-.63v-.36Z"/><path class="uuid-76cdd7b9-6b56-486f-a280-cb4eaeac8d5a" d="M49.63,56.39h-1.19v-6.08h1.19v6.08Z"/><path class="uuid-76cdd7b9-6b56-486f-a280-cb4eaeac8d5a" d="M50.82,51.54v-.11c.45-.52.75-.91.92-1.18h1.34v.08c-.14.14-.37.34-.69.6-.33.27-.58.47-.77.6h-.79ZM52.07,56.39h-1.19v-4.37h1.19v4.37Z"/><path class="uuid-76cdd7b9-6b56-486f-a280-cb4eaeac8d5a" d="M54.71,56.47c-.51,0-.92-.2-1.21-.6s-.44-.95-.44-1.66.15-1.27.45-1.67c.3-.4.71-.6,1.23-.6.55,0,.97.21,1.26.64h.04c-.06-.33-.09-.62-.09-.87v-1.4h1.2v6.08h-.91l-.23-.57h-.05c-.27.43-.68.64-1.24.64ZM55.12,55.52c.3,0,.53-.09.67-.27.14-.18.22-.48.23-.9v-.13c0-.47-.07-.8-.22-1.01s-.38-.3-.71-.3c-.27,0-.47.11-.62.34-.15.23-.22.55-.22.98s.07.75.22.97.36.32.64.32Z"/><path class="uuid-76cdd7b9-6b56-486f-a280-cb4eaeac8d5a" d="M60.36,56.47c-.7,0-1.25-.19-1.65-.58-.4-.39-.59-.94-.59-1.65s.18-1.3.55-1.7c.37-.4.87-.6,1.52-.6s1.1.18,1.44.53.52.84.52,1.46v.58h-2.82c.01.34.11.6.3.79.19.19.45.29.79.29.26,0,.51-.03.75-.08s.48-.14.73-.26v.92c-.21.1-.43.18-.67.23s-.53.08-.87.08ZM60.2,52.79c-.25,0-.45.08-.59.24s-.23.39-.25.68h1.67c0-.29-.08-.52-.23-.68s-.35-.24-.6-.24Z"/><path class="uuid-76cdd7b9-6b56-486f-a280-cb4eaeac8d5a" d="M65.55,51.94c.16,0,.3.01.4.04l-.09,1.12c-.1-.03-.21-.04-.35-.04-.38,0-.68.1-.89.29s-.32.47-.32.82v2.22h-1.19v-4.37h.9l.18.73h.06c.14-.24.32-.44.55-.59.23-.15.48-.22.75-.22Z"/><path class="uuid-76cdd7b9-6b56-486f-a280-cb4eaeac8d5a" d="M70.8,56.47c-.7,0-1.25-.19-1.65-.58-.4-.39-.59-.94-.59-1.65s.18-1.3.55-1.7c.37-.4.87-.6,1.52-.6s1.1.18,1.44.53.52.84.52,1.46v.58h-2.82c.01.34.11.6.3.79.19.19.45.29.79.29.26,0,.51-.03.75-.08s.48-.14.73-.26v.92c-.21.1-.43.18-.67.23s-.53.08-.87.08ZM70.63,52.79c-.25,0-.45.08-.59.24s-.23.39-.25.68h1.67c0-.29-.08-.52-.23-.68s-.35-.24-.6-.24Z"/><path class="uuid-76cdd7b9-6b56-486f-a280-cb4eaeac8d5a" d="M77.58,56.39h-1.19v-2.55c0-.31-.06-.55-.17-.71-.11-.16-.29-.24-.54-.24-.33,0-.57.11-.72.33s-.22.59-.22,1.11v2.05h-1.19v-4.37h.91l.16.56h.07c.13-.21.32-.37.55-.48.23-.11.5-.16.79-.16.51,0,.89.14,1.16.41.26.27.39.67.39,1.19v2.85Z"/><path class="uuid-76cdd7b9-6b56-486f-a280-cb4eaeac8d5a" d="M82.08,56.39h-1.19v-6.08h1.19v6.08Z"/><path class="uuid-76cdd7b9-6b56-486f-a280-cb4eaeac8d5a" d="M86.1,56.39l-.23-.59h-.03c-.2.25-.41.43-.62.53s-.49.15-.83.15c-.42,0-.75-.12-.99-.36-.24-.24-.36-.58-.36-1.02s.16-.81.49-1.03c.32-.22.81-.34,1.47-.37l.76-.02v-.19c0-.44-.23-.66-.68-.66-.35,0-.76.11-1.23.32l-.39-.8c.5-.26,1.06-.39,1.67-.39s1.04.13,1.35.38c.31.26.47.64.47,1.16v2.91h-.83ZM85.75,54.36l-.46.02c-.35.01-.6.07-.77.19-.17.11-.25.29-.25.52,0,.34.19.5.58.5.28,0,.5-.08.66-.24.17-.16.25-.37.25-.63v-.36Z"/><path class="uuid-76cdd7b9-6b56-486f-a280-cb4eaeac8d5a" d="M92.01,56.47c-1.36,0-2.04-.75-2.04-2.24,0-.74.18-1.31.55-1.7.37-.39.9-.59,1.59-.59.5,0,.96.1,1.36.3l-.35.92c-.19-.08-.36-.14-.52-.19-.16-.05-.32-.07-.48-.07-.62,0-.93.44-.93,1.32s.31,1.28.93,1.28c.23,0,.44-.03.64-.09.2-.06.39-.16.59-.29v1.02c-.19.12-.39.21-.58.25s-.44.07-.74.07Z"/><path class="uuid-76cdd7b9-6b56-486f-a280-cb4eaeac8d5a" d="M97.12,56.39l-.23-.59h-.03c-.2.25-.41.43-.62.53s-.49.15-.83.15c-.42,0-.75-.12-.99-.36-.24-.24-.36-.58-.36-1.02s.16-.81.49-1.03c.32-.22.81-.34,1.47-.37l.76-.02v-.19c0-.44-.23-.66-.68-.66-.35,0-.76.11-1.23.32l-.39-.8c.5-.26,1.06-.39,1.67-.39s1.04.13,1.35.38c.31.26.47.64.47,1.16v2.91h-.83ZM96.77,54.36l-.46.02c-.35.01-.6.07-.77.19-.17.11-.25.29-.25.52,0,.34.19.5.58.5.28,0,.5-.08.66-.24.17-.16.25-.37.25-.63v-.36Z"/><path class="uuid-76cdd7b9-6b56-486f-a280-cb4eaeac8d5a" d="M101.02,55.52c.21,0,.46-.05.75-.14v.89c-.3.13-.66.2-1.09.2-.48,0-.82-.12-1.04-.36-.22-.24-.33-.6-.33-1.08v-2.11h-.57v-.5l.66-.4.34-.92h.76v.93h1.22v.89h-1.22v2.11c0,.17.05.29.14.38.09.08.22.12.38.12Z"/><path class="uuid-76cdd7b9-6b56-486f-a280-cb4eaeac8d5a" d="M104.63,56.47c-.7,0-1.25-.19-1.65-.58-.4-.39-.59-.94-.59-1.65s.18-1.3.55-1.7c.37-.4.87-.6,1.52-.6s1.1.18,1.44.53.52.84.52,1.46v.58h-2.82c.01.34.11.6.3.79.19.19.45.29.79.29.26,0,.51-.03.75-.08s.48-.14.73-.26v.92c-.21.1-.43.18-.67.23s-.53.08-.87.08ZM104.46,52.79c-.25,0-.45.08-.59.24s-.23.39-.25.68h1.67c0-.29-.08-.52-.23-.68s-.35-.24-.6-.24Z"/><path class="uuid-76cdd7b9-6b56-486f-a280-cb4eaeac8d5a" d="M111.18,52.02v.61l-.68.18c.12.2.19.41.19.66,0,.47-.16.83-.49,1.1s-.78.39-1.36.39h-.21s-.18-.03-.18-.03c-.12.09-.18.2-.18.31,0,.17.22.26.66.26h.74c.48,0,.84.1,1.1.31.25.21.38.51.38.91,0,.51-.21.91-.64,1.19s-1.04.42-1.83.42c-.61,0-1.08-.11-1.4-.32-.32-.21-.48-.51-.48-.89,0-.26.08-.48.25-.66s.41-.3.72-.38c-.12-.05-.23-.14-.32-.26-.09-.12-.14-.24-.14-.38,0-.17.05-.31.14-.42.1-.11.24-.22.42-.33-.23-.1-.41-.26-.54-.48s-.2-.48-.2-.77c0-.48.16-.84.46-1.11.31-.26.75-.39,1.33-.39.12,0,.27.01.44.03.17.02.28.04.32.05h1.52ZM107.81,57.01c0,.16.08.29.24.39s.38.14.66.14c.43,0,.76-.06,1-.18s.36-.28.36-.48c0-.16-.07-.28-.21-.34s-.36-.09-.66-.09h-.62c-.22,0-.4.05-.55.15-.15.1-.22.24-.22.41ZM108.25,53.45c0,.24.05.42.16.56.11.14.27.21.49.21s.39-.07.49-.21c.1-.14.16-.33.16-.56,0-.53-.22-.79-.65-.79s-.66.26-.66.79Z"/><path class="uuid-76cdd7b9-6b56-486f-a280-cb4eaeac8d5a" d="M115.87,54.2c0,.71-.19,1.27-.56,1.67-.38.4-.9.6-1.57.6-.42,0-.79-.09-1.11-.28s-.57-.45-.74-.79-.26-.74-.26-1.2c0-.71.19-1.27.56-1.66.37-.4.9-.59,1.57-.59.42,0,.79.09,1.11.27.32.18.57.44.74.79.17.34.26.74.26,1.2ZM112.85,54.2c0,.43.07.76.21.98.14.22.37.33.69.33s.55-.11.69-.33c.14-.22.21-.55.21-.98s-.07-.76-.21-.97c-.14-.22-.37-.32-.69-.32s-.55.11-.69.32-.21.54-.21.97Z"/><path class="uuid-76cdd7b9-6b56-486f-a280-cb4eaeac8d5a" d="M119.29,51.94c.16,0,.3.01.4.04l-.09,1.12c-.1-.03-.21-.04-.35-.04-.38,0-.68.1-.89.29s-.32.47-.32.82v2.22h-1.19v-4.37h.9l.18.73h.06c.14-.24.32-.44.55-.59.23-.15.48-.22.75-.22Z"/><path class="uuid-76cdd7b9-6b56-486f-a280-cb4eaeac8d5a" d="M120.43,51.54v-.11c.45-.52.75-.91.92-1.18h1.34v.08c-.14.14-.37.34-.69.6-.33.27-.58.47-.77.6h-.79ZM121.68,56.39h-1.19v-4.37h1.19v4.37Z"/><path class="uuid-76cdd7b9-6b56-486f-a280-cb4eaeac8d5a" d="M125.7,56.39l-.23-.59h-.03c-.2.25-.41.43-.62.53s-.49.15-.83.15c-.42,0-.75-.12-.99-.36-.24-.24-.36-.58-.36-1.02s.16-.81.49-1.03c.32-.22.81-.34,1.47-.37l.76-.02v-.19c0-.44-.23-.66-.68-.66-.35,0-.76.11-1.23.32l-.39-.8c.5-.26,1.06-.39,1.67-.39s1.04.13,1.35.38c.31.26.47.64.47,1.16v2.91h-.83ZM125.35,54.36l-.46.02c-.35.01-.6.07-.77.19-.17.11-.25.29-.25.52,0,.34.19.5.58.5.28,0,.5-.08.66-.24.17-.16.25-.37.25-.63v-.36Z"/><path class="uuid-76cdd7b9-6b56-486f-a280-cb4eaeac8d5a" d="M47.49,61.2c-.46,0-.81.17-1.06.51-.25.34-.38.82-.38,1.43,0,1.27.48,1.91,1.43,1.91.4,0,.89-.1,1.46-.3v1.02c-.47.2-.99.29-1.57.29-.83,0-1.47-.25-1.91-.76s-.66-1.23-.66-2.17c0-.59.11-1.11.32-1.56.22-.45.53-.79.93-1.03s.88-.36,1.42-.36,1.11.13,1.67.4l-.39.98c-.21-.1-.43-.19-.64-.27-.22-.08-.43-.11-.64-.11Z"/><path class="uuid-76cdd7b9-6b56-486f-a280-cb4eaeac8d5a" d="M51.26,65.99h-1.19v-6.08h1.19v6.08Z"/><path class="uuid-76cdd7b9-6b56-486f-a280-cb4eaeac8d5a" d="M52.45,61.14v-.11c.45-.52.75-.91.92-1.18h1.34v.08c-.14.14-.37.34-.69.6-.33.27-.58.47-.77.6h-.79ZM53.7,65.99h-1.19v-4.37h1.19v4.37Z"/><path class="uuid-76cdd7b9-6b56-486f-a280-cb4eaeac8d5a" d="M58.98,65.99h-1.19v-2.55c0-.31-.06-.55-.17-.71-.11-.16-.29-.24-.54-.24-.33,0-.57.11-.72.33s-.22.59-.22,1.11v2.05h-1.19v-4.37h.91l.16.56h.07c.13-.21.32-.37.55-.48.23-.11.5-.16.79-.16.51,0,.89.14,1.16.41.26.27.39.67.39,1.19v2.85Z"/><path class="uuid-76cdd7b9-6b56-486f-a280-cb4eaeac8d5a" d="M60.16,60.49c0-.39.22-.58.65-.58s.65.19.65.58c0,.19-.05.33-.16.43-.11.1-.27.15-.49.15-.43,0-.65-.2-.65-.59ZM61.4,65.99h-1.19v-4.37h1.19v4.37Z"/><path class="uuid-76cdd7b9-6b56-486f-a280-cb4eaeac8d5a" d="M64.42,66.07c-1.36,0-2.04-.75-2.04-2.24,0-.74.18-1.31.55-1.7.37-.39.9-.59,1.59-.59.5,0,.96.1,1.36.3l-.35.92c-.19-.08-.36-.14-.52-.19-.16-.05-.32-.07-.48-.07-.62,0-.93.44-.93,1.32s.31,1.28.93,1.28c.23,0,.44-.03.64-.09.2-.06.39-.16.59-.29v1.02c-.19.12-.39.21-.58.25s-.44.07-.74.07Z"/><path class="uuid-76cdd7b9-6b56-486f-a280-cb4eaeac8d5a" d="M69.54,65.99l-.23-.59h-.03c-.2.25-.41.43-.62.53s-.49.15-.83.15c-.42,0-.75-.12-.99-.36-.24-.24-.36-.58-.36-1.02s.16-.81.49-1.03c.32-.22.81-.34,1.47-.37l.76-.02v-.19c0-.44-.23-.66-.68-.66-.35,0-.76.11-1.23.32l-.39-.8c.5-.26,1.06-.39,1.67-.39s1.04.13,1.35.38c.31.26.47.64.47,1.16v2.91h-.83ZM69.19,63.97l-.46.02c-.35.01-.6.07-.77.19-.17.11-.25.29-.25.52,0,.34.19.5.58.5.28,0,.5-.08.66-.24.17-.16.25-.37.25-.63v-.36Z"/><path class="uuid-76cdd7b9-6b56-486f-a280-cb4eaeac8d5a" d="M74.64,64.69c0,.45-.16.79-.47,1.02s-.78.35-1.4.35c-.32,0-.59-.02-.81-.06s-.43-.11-.63-.19v-.98c.22.1.47.19.75.26s.52.11.73.11c.43,0,.65-.12.65-.38,0-.09-.03-.17-.09-.23s-.16-.12-.3-.2-.33-.16-.56-.26c-.34-.14-.58-.27-.74-.39-.16-.12-.27-.26-.34-.41-.07-.15-.11-.35-.11-.57,0-.39.15-.69.45-.9.3-.21.73-.32,1.28-.32s1.04.11,1.54.34l-.36.86c-.22-.09-.42-.17-.61-.23-.19-.06-.38-.09-.58-.09-.35,0-.53.1-.53.29,0,.11.06.2.17.28s.36.19.74.35c.34.14.59.27.75.39.16.12.28.26.35.41s.11.34.11.56Z"/><path class="uuid-76cdd7b9-6b56-486f-a280-cb4eaeac8d5a" d="M77.03,61.62h1.3l.82,2.46c.07.21.12.47.14.76h.02c.03-.27.08-.52.17-.76l.81-2.46h1.28l-1.85,4.93c-.17.46-.41.8-.72,1.02s-.68.34-1.1.34c-.21,0-.41-.02-.61-.07v-.95c.14.03.3.05.47.05.21,0,.4-.06.55-.19s.28-.32.37-.58l.07-.21-1.73-4.34Z"/><path class="uuid-76cdd7b9-6b56-486f-a280-cb4eaeac8d5a" d="M87.74,64.4c0,.52-.19.92-.56,1.22s-.89.45-1.55.45c-.61,0-1.15-.11-1.62-.34v-1.12c.39.17.71.29.98.36s.51.11.73.11c.27,0,.47-.05.61-.15s.21-.25.21-.45c0-.11-.03-.21-.09-.3-.06-.09-.15-.17-.28-.25-.12-.08-.37-.21-.74-.39-.35-.16-.61-.32-.79-.47-.17-.15-.31-.33-.42-.53-.1-.2-.16-.43-.16-.7,0-.51.17-.9.51-1.19s.82-.43,1.42-.43c.3,0,.58.04.85.11s.55.17.85.3l-.39.94c-.3-.12-.56-.21-.76-.26-.2-.05-.4-.07-.59-.07-.23,0-.41.05-.53.16-.12.11-.18.25-.18.42,0,.11.02.2.07.28.05.08.13.16.24.23s.36.21.77.4c.53.26.9.51,1.1.77.2.26.3.57.3.94Z"/><path class="uuid-76cdd7b9-6b56-486f-a280-cb4eaeac8d5a" d="M91.46,65.99l-.23-.59h-.03c-.2.25-.41.43-.62.53s-.49.15-.83.15c-.42,0-.75-.12-.99-.36-.24-.24-.36-.58-.36-1.02s.16-.81.49-1.03c.32-.22.81-.34,1.47-.37l.76-.02v-.19c0-.44-.23-.66-.68-.66-.35,0-.76.11-1.23.32l-.39-.8c.5-.26,1.06-.39,1.67-.39s1.04.13,1.35.38c.31.26.47.64.47,1.16v2.91h-.83ZM91.11,63.97l-.46.02c-.35.01-.6.07-.77.19-.17.11-.25.29-.25.52,0,.34.19.5.58.5.28,0,.5-.08.66-.24.17-.16.25-.37.25-.63v-.36Z"/><path class="uuid-76cdd7b9-6b56-486f-a280-cb4eaeac8d5a" d="M94.71,65.99h-1.19v-6.08h1.19v6.08Z"/><path class="uuid-76cdd7b9-6b56-486f-a280-cb4eaeac8d5a" d="M99.05,65.99l-.16-.56h-.06c-.13.2-.31.36-.54.47s-.5.17-.8.17c-.51,0-.9-.14-1.16-.41-.26-.27-.39-.67-.39-1.19v-2.85h1.19v2.55c0,.32.06.55.17.71.11.16.29.24.54.24.33,0,.57-.11.72-.33s.22-.59.22-1.11v-2.05h1.19v4.37h-.91Z"/><path class="uuid-76cdd7b9-6b56-486f-a280-cb4eaeac8d5a" d="M102.6,66.07c-.51,0-.92-.2-1.21-.6s-.44-.95-.44-1.66.15-1.27.45-1.67c.3-.4.71-.6,1.23-.6.55,0,.97.21,1.26.64h.04c-.06-.33-.09-.62-.09-.87v-1.4h1.2v6.08h-.91l-.23-.57h-.05c-.27.43-.68.64-1.24.64ZM103.02,65.12c.3,0,.53-.09.67-.27.14-.18.22-.48.23-.9v-.13c0-.47-.07-.8-.22-1.01s-.38-.3-.71-.3c-.27,0-.47.11-.62.34-.15.23-.22.55-.22.98s.07.75.22.97.36.32.64.32Z"/></g></g></svg>