<?xml version="1.0" encoding="UTF-8"?>
<svg id="uuid-44beb5b6-8976-4cbc-90ef-187ce5c8704d" xmlns="http://www.w3.org/2000/svg" xmlns:xlink="http://www.w3.org/1999/xlink" version="1.1" viewBox="0 0 150 76">
  <!-- Generator: Adobe Illustrator 29.3.1, SVG Export Plug-In . SVG Version: 2.1.0 Build 151)  -->
  <defs>
    <style>
      .st0 {
        fill: none;
      }

      .st1 {
        fill: #3c3c3b;
      }

      .st2 {
        fill: #4fc2ea;
      }

      .st3 {
        fill: #1d1d1b;
      }

      .st4 {
        fill: #606060;
      }

      .st5 {
        fill: #96d4eb;
      }

      .st6 {
        clip-path: url(#clippath-1);
      }

      .st7 {
        fill: #575756;
      }

      .st8 {
        fill: #fff;
      }

      .st9 {
        fill: #706f6f;
      }

      .st10 {
        fill: #e30613;
      }

      .st11 {
        opacity: .3;
      }

      .st12 {
        clip-path: url(#clippath);
      }
    </style>
    <clipPath id="clippath">
      <rect class="st0" width="150" height="76"/>
    </clipPath>
    <clipPath id="clippath-1">
      <rect class="st0" x="95.4" y="14.4" width="8.3" height="7.3"/>
    </clipPath>
  </defs>
  <g id="uuid-e1af0e82-0949-4ad1-b170-96bc5536d6db">
    <g class="st12">
      <g>
        <path class="st9" d="M86.7,34.6h2.3c0,.7.2,1.2.5,1.5.3.3.8.5,1.4.5s1.1-.2,1.4-.5c.3-.3.5-.7.5-1.3s-.2-1-.6-1.3c-.4-.3-.9-.4-1.7-.4h-.2s0,0-.2,0v-1.6h.2c.7,0,1.2-.1,1.6-.4s.5-.7.5-1.2-.2-.8-.4-1.1-.6-.4-1.2-.4-1,.1-1.2.4c-.3.3-.4.7-.4,1.3h0c0,0-1.2,0-1.2,0-.5,0-.8-.1-.8-.4s0-.5,0-.8c.2-.6.5-1.1.9-1.5.7-.7,1.7-1,3-1s2.2.3,2.9.9c.7.6,1.1,1.4,1.1,2.3s-.1,1-.4,1.4c-.3.4-.6.7-1.1,1,.6.3,1.1.7,1.4,1.1.3.5.5,1,.5,1.7,0,1.2-.4,2.2-1.2,2.8-.8.7-1.9,1-3.2,1s-2.4-.3-3.1-1c-.7-.6-1.1-1.6-1.1-2.9h0s0,0,0,0Z"/>
        <path class="st1" d="M54.2,34.3c-.1,1.4-.6,2.4-1.5,3.2-.9.8-2.2,1.1-3.7,1.1s-3.1-.5-4.1-1.6c-.9-1-1.4-2.5-1.4-4.5s.5-3.6,1.4-4.6c1-1.1,2.4-1.6,4.2-1.6s2.7.4,3.6,1.1c.8.7,1.3,1.8,1.4,3.1h-1.5c-.5,0-.9-.2-1.2-.7-.2-.3-.3-.6-.6-.8-.5-.3-1.1-.5-1.8-.5s-1.9.3-2.4,1c-.5.7-.8,1.7-.8,3s.3,2.2.8,2.9c.5.7,1.3,1.1,2.4,1.1s1.3-.2,1.8-.5c.4-.3.7-.9.9-1.6h2.4Z"/>
        <path class="st1" d="M55.2,38.3v-10.5c0-.3.1-.6.4-.9.2-.2.5-.4.9-.4h1.2v4.4h4.8v-4.4h2.5v11.8h-2.5v-5.2h-4.8v5.2h-2.4Z"/>
        <path class="st1" d="M65.8,38.3v-10.5c0-.3.1-.6.4-.9.2-.2.5-.4.9-.4h1.2v11.8h-2.4Z"/>
        <path class="st1" d="M77.2,38.3v-10.5c0-.3.1-.6.4-.9.2-.2.5-.4.9-.4h7.3c0,1.3-.6,2-1.9,2h-4.2v2.5h4.6v.8c0,.3-.1.6-.4.9s-.5.4-.9.4h-3.3v3h6.2c0,1.3-.4,2.2-1.9,2.2h-6.7Z"/>
        <path class="st1" d="M76.2,36.1h-4.6v-9.6h-1.2c-.3,0-.6.1-.9.4s-.4.5-.4.9v10.5h7v-2.2Z"/>
        <path class="st9" d="M105.1,28c-.9-1-2.2-1.4-4-1.4h-4.6c0,1.4.8,2.1,2.4,2h2.2c1,0,1.7.3,2.2.9.5.6.7,1.6.7,2.9s-.2,2.3-.8,2.9c-.5.6-1.3.9-2.5.9h-1.9v-3.8c0-1.5-.8-2.2-2.4-2.2v8.2h4c1.1,0,1.9,0,2.5-.2.6-.2,1.1-.4,1.6-.8.6-.5,1.1-1.1,1.4-2,.3-.8.5-1.8.5-2.8,0-2-.4-3.4-1.3-4.4"/>
        <path class="st7" d="M92.6,16.6s.9.1,1.3,2.2c.3,1.8.9,5,.9,5,0,0,0,.8,1.8.7l-.5-2.9s-.9-3.1-.9-3.3-.8-2.2-.9-2.2-1.6.5-1.6.5"/>
        <path class="st1" d="M72.7,24.5c-4.7.1-4.1-2.2-5.3-5.3-.9-2.2-2.5-2.8-3.5-2.9-.3,0-.7,0-1,0l-10.5,1.6c-3.8.7-5,3.5-5.1,5.5,0,1-.4,1.1-.8,1.1,0,0-.3,0-.6,0-.5,0-.6-.5-.6-.6-.3-4,2.9-8.1,6.8-9.1l20.6-6.7v16.4c0,0,0,0,0,0Z"/>
        <path class="st3" d="M72.7,8.1l31.1,6.6c.4.1.8.5.8,1v7.8c0,.5-.3,1-.9,1h-7c-.5,0-.9-.3-1-.8l-1.1-5.7s0,0,0,0c-.2-.6-.3-1.1-1-1.2h-.9c-.6-.2-1,.3-1.2,1.1l-1.2,5.8c0,.5-.5.8-1,.8h-16.5v-15.1c0-.6,0-1.2,0-1.2"/>
        <path class="st2" d="M74.5,11.3v10.4c0,.6.4,1,1,1h12.1c.5,0,.9-.3,1-.8l1.3-5.5c0,0,0-.2,0-.3v-1.9c0-.5-.3-.9-.8-1l-13.4-2.9c-.6-.1-1.2.4-1.2,1"/>
        <path class="st10" d="M96.7,22.3l-1.2-5.5c0,0,0-.1,0-.2v-1.3c0-.6.5-1,1.1-.9l6.6,1.4c.4,0,.7.4.7.9v5.4c0,.5-.4.9-.9.9h-5.3c-.4,0-.8-.3-.9-.7"/>
        <path class="st5" d="M74.5,21.7s4.7-5.9,15.4-6.2v-1.3s0-.7-.7-1l-13.7-2.9s-.8,0-1,.8c0,0,0,10.6,0,10.6Z"/>
        <g class="st11">
          <g class="st6">
            <path class="st8" d="M96.5,21.7s1.8-4.3,7.2-4.1v-1s0-.6-.7-.8l-6.5-1.4s-.9-.2-1.1.8v1.4l1.1,5h0Z"/>
          </g>
        </g>
        <polygon class="st1" points="46.3 41.8 45.6 40.2 45.6 40.2 45.3 40.2 45.3 42.1 45.5 42.1 45.5 40.5 46.2 42 46.4 42 47 40.5 47 42.1 47.2 42.1 47.2 40.2 46.9 40.2 46.3 41.8"/>
        <path class="st1" d="M48.5,40.2h-.4l-.6,1.8h.2l.2-.5h.8l.2.5h.2l-.6-1.8h0s0,0,0,0ZM48.4,40.4l.3,1h-.7l.3-1h0,0Z"/>
        <path class="st1" d="M50.7,41.1c0,0,0-.2,0-.4s0-.3-.2-.4c-.1,0-.3-.1-.5-.1h-.8v1.8h.2v-.7h.6l.4.7h.2l-.5-.8c.1,0,.2,0,.3-.2M49.6,40.4h.5c.2,0,.3,0,.3,0s0,.2,0,.3,0,.1,0,.2c0,0,0,0,0,.1,0,0,0,0-.1,0,0,0-.1,0-.2,0h-.5v-.8h0Z"/>
        <path class="st1" d="M52.5,41.9s0,0,0,0c0,0,0,0-.1,0,0,0-.1,0-.2,0-.2,0-.3,0-.4,0,0,0-.1,0-.2-.1,0,0,0-.1,0-.2,0,0,0-.2,0-.3s0-.2,0-.3c0,0,0-.2,0-.2,0,0,0-.1.2-.2,0,0,.2,0,.3,0h.2c0,0,.1,0,.2,0,0,0,0,0,.1,0h0s0-.2,0-.2h0s0,0,0,0c0,0,0,0-.1,0,0,0-.1,0-.2,0h-.2c-.2,0-.3,0-.4,0s-.2.1-.2.2c0,0,0,.2-.1.3s0,.2,0,.4,0,.3,0,.4c0,.1,0,.2.1.3,0,0,.1.2.2.2,0,0,.2,0,.4,0h.2c0,0,.1,0,.2,0,0,0,0,0,.1,0,0,0,0,0,0,0h0v-.2h0Z"/>
        <path class="st1" d="M53.7,40.2h-.4l-.6,1.8h.2l.2-.5h.8l.2.5h.2l-.6-1.8h0s0,0,0,0ZM53.5,40.4l.3,1h-.7l.3-1h0,0Z"/>
        <path class="st1" d="M54.7,40.5s0,0,0,0,0,0,.1,0c0,0,.1,0,.2,0h.3s0,0,.1,0h0v-.2s0,0,0,0c0,0-.2,0-.2,0h-.3c-.1,0-.2,0-.3,0,0,0-.1,0-.2,0,0,0,0,0-.1.1s0,0,0,.1h0c0,.1,0,.2,0,.2s0,0,0,.1c0,0,0,0,.1,0s0,0,.2,0c0,0,0,0,.1,0s0,0,.1,0c0,0,0,0,.1,0s0,0,0,0c0,0,0,0,0,.1,0,0,0,0,0,.1,0,0,0,0,0,.1,0,0,0,0,0,0s0,0-.1,0c0,0,0,0-.2,0h0c0,0-.1,0-.2,0,0,0-.2,0-.2,0h0v.2s0,0,0,0c0,0,.2,0,.2,0,0,0,.2,0,.2,0h0c0,0,.1,0,.2,0,0,0,.1,0,.2,0s.1,0,.2-.1,0-.1,0-.2h0c0-.1,0-.2,0-.2,0,0,0,0,0-.1s0,0,0,0c0,0,0,0,0,0,0,0,0,0-.1,0h-.1c0,0,0-.2-.1-.2,0,0,0,0-.1,0s0,0,0,0,0,0,0,0c0,0,0,0,0,0h0s0,0,0-.1"/>
        <polygon class="st1" points="57.4 41.1 56.9 40.2 56.6 40.2 57.3 41.3 57.3 42.1 57.5 42.1 57.5 41.3 58.2 40.2 58 40.2 57.4 41.1"/>
        <polygon class="st1" points="59.4 42.1 60.7 42.1 60.7 41.9 59.6 41.9 59.6 41.2 60.5 41.2 60.5 41 59.6 41 59.6 40.4 60.7 40.4 60.7 40.2 59.4 40.2 59.4 42.1"/>
        <path class="st1" d="M61.2,40.5s0,0,0,0,0,0,.1,0c0,0,.1,0,.2,0h.3s0,0,.1,0h0v-.2s0,0,0,0c0,0-.2,0-.2,0h-.3c-.1,0-.2,0-.3,0,0,0-.1,0-.2,0,0,0,0,0-.1.1s0,0,0,.1h0c0,.1,0,.2,0,.2s0,0,0,.1c0,0,0,0,.1,0s0,0,.2,0c0,0,0,0,.1,0s0,0,.1,0c0,0,0,0,.1,0s0,0,0,0c0,0,0,0,0,.1,0,0,0,0,0,.1,0,0,0,0,0,.1,0,0,0,0,0,0s0,0-.1,0c0,0,0,0-.2,0h0c0,0-.1,0-.2,0,0,0-.2,0-.2,0h0v.2s0,0,0,0c0,0,.2,0,.2,0,0,0,.2,0,.2,0h0c0,0,.1,0,.2,0,0,0,.1,0,.2,0s.1,0,.2-.1,0-.1,0-.2h0c0-.1,0-.2,0-.2,0,0,0,0,0-.1s0,0,0,0c0,0,0,0,0,0,0,0,0,0-.1,0h-.1c0,0,0-.2-.1-.2,0,0,0,0-.1,0s0,0,0,0,0,0,0,0c0,0,0,0,0,0h0s0,0,0-.1"/>
        <polygon class="st1" points="62.2 40.4 62.9 40.4 62.9 42.1 63.1 42.1 63.1 40.4 63.8 40.4 63.8 40.2 62.2 40.2 62.2 40.4"/>
        <rect class="st1" x="64" y="40.2" width=".2" height="1.8"/>
        <polygon class="st1" points="65 40.2 64.7 40.2 64.7 42.1 65.9 42.1 65.9 41.9 65 41.9 65 40.2"/>
        <path class="st1" d="M67.5,40.4c0,0-.2-.1-.2-.2s-.2,0-.3,0-.3,0-.4,0-.2,0-.3.2c0,0-.1.2-.2.3s0,.3,0,.4,0,.3,0,.5c0,.1,0,.2.1.3s.2.1.2.2.2,0,.4,0,.3,0,.4,0,.2,0,.2-.2,0-.2.1-.3c0-.1,0-.3,0-.4s0-.3,0-.4c0-.1,0-.2-.2-.3M66.9,41.9c-.1,0-.2,0-.3,0,0,0-.1,0-.2-.1,0,0,0-.2,0-.2s0-.2,0-.4,0-.3,0-.4c0,0,0-.2,0-.2,0,0,.1,0,.2-.1,0,0,.2,0,.3,0s.2,0,.2,0c0,0,.1,0,.2.1s0,.1.1.2c0,0,0,.2,0,.3s0,.3,0,.4c0,0,0,.2,0,.2,0,0,0,.1-.2.1s-.2,0-.3,0"/>
        <path class="st1" d="M68.3,40.5s0,0,0,0,0,0,.1,0c0,0,.1,0,.2,0h.3s0,0,.1,0h0v-.2s0,0,0,0c0,0-.2,0-.2,0h-.3c-.1,0-.2,0-.3,0s-.1,0-.2,0c0,0,0,0-.1.1,0,0,0,0,0,.1h0c0,.1,0,.2,0,.2s0,0,0,.1c0,0,0,0,.1,0s0,0,.2,0c0,0,0,0,.1,0s0,0,.1,0c0,0,0,0,.1,0s0,0,0,0c0,0,0,0,0,.1,0,0,0,0,0,.1,0,0,0,0,0,.1,0,0,0,0,0,0s0,0-.1,0c0,0,0,0-.2,0h0c0,0-.1,0-.2,0,0,0-.2,0-.2,0h0v.2s0,0,0,0c0,0,.2,0,.2,0,0,0,.2,0,.2,0h0c0,0,.1,0,.2,0,0,0,.1,0,.2,0s.1,0,.2-.1,0-.1,0-.2h0c0-.1,0-.2,0-.2,0,0,0,0,0-.1,0,0,0,0,0,0,0,0,0,0,0,0,0,0,0,0-.1,0h-.1c0,0,0-.2-.1-.2,0,0,0,0-.1,0,0,0,0,0,0,0,0,0,0,0,0,0,0,0,0,0,0,0h0s0,0,0-.1"/>
        <path class="st1" d="M71.9,40.5c0,0-.1-.2-.2-.2,0,0-.2,0-.3,0h-.8v1.8h.8c.1,0,.2,0,.3,0s.2-.1.2-.2c0,0,0-.2.1-.3,0-.1,0-.2,0-.3s0-.2,0-.3c0-.1,0-.2-.1-.3M70.8,40.4h.6c0,0,.2,0,.2,0,0,0,.1,0,.2.2s0,.2,0,.2c0,0,0,.2,0,.3s0,.2,0,.3c0,0,0,.2,0,.2s0,.1-.2.2c0,0-.1,0-.2,0h-.6v-1.5h0Z"/>
        <polygon class="st1" points="72.5 42.1 73.8 42.1 73.8 41.9 72.7 41.9 72.7 41.2 73.6 41.2 73.6 41 72.7 41 72.7 40.4 73.8 40.4 73.8 40.2 72.5 40.2 72.5 42.1"/>
        <polygon class="st1" points="75.7 41.9 75.6 41.9 75.1 40.2 74.8 40.2 75.4 42.1 75.8 42.1 76.4 40.2 76.2 40.2 75.7 41.9"/>
        <rect class="st1" x="76.7" y="40.2" width=".2" height="1.8"/>
        <path class="st1" d="M78.8,40.5c0,0-.1-.2-.2-.2,0,0-.2,0-.3,0h-.8v1.8h.8c.1,0,.2,0,.3,0s.2-.1.2-.2c0,0,0-.2.1-.3,0-.1,0-.2,0-.3s0-.2,0-.3c0-.1,0-.2-.1-.3M77.6,40.4h.6c0,0,.2,0,.2,0,0,0,.1,0,.2.2s0,.2,0,.2c0,0,0,.2,0,.3s0,.2,0,.3c0,0,0,.2,0,.2s0,.1-.2.2c0,0-.1,0-.2,0h-.6v-1.5h0Z"/>
        <path class="st1" d="M80,40.2h-.4l-.6,1.8h.2l.2-.5h.8l.2.5h.2l-.6-1.8h0s0,0,0,0ZM79.8,40.4l.3,1h-.7l.3-1h0,0Z"/>
        <path class="st1" d="M83.2,40.5c0,0-.1-.2-.2-.2,0,0-.2,0-.3,0h-.8v1.8h.8c.1,0,.2,0,.3,0s.2-.1.2-.2c0,0,0-.2.1-.3,0-.1,0-.2,0-.3s0-.2,0-.3c0-.1,0-.2-.1-.3M82.1,40.4h.6c0,0,.2,0,.2,0,0,0,.1,0,.2.2s0,.2,0,.2c0,0,0,.2,0,.3s0,.2,0,.3c0,0,0,.2,0,.2s0,.1-.2.2c0,0-.1,0-.2,0h-.6v-1.5h0Z"/>
        <polygon class="st1" points="83.8 42.1 85.1 42.1 85.1 41.9 84 41.9 84 41.2 84.9 41.2 84.9 41 84 41 84 40.4 85.1 40.4 85.1 40.2 83.8 40.2 83.8 42.1"/>
        <polygon class="st1" points="86.6 40.2 86.4 40.2 86.4 42.1 87.6 42.1 87.6 41.9 86.6 41.9 86.6 40.2"/>
        <path class="st1" d="M89.2,40.4c0,0-.2-.1-.2-.2s-.2,0-.3,0-.3,0-.4,0-.2,0-.3.2c0,0-.1.2-.2.3s0,.3,0,.4,0,.3,0,.5c0,.1,0,.2.1.3s.2.1.2.2.2,0,.4,0,.3,0,.4,0,.2,0,.2-.2,0-.2.1-.3c0-.1,0-.3,0-.4s0-.3,0-.4c0-.1,0-.2-.2-.3M88.6,41.9c-.1,0-.2,0-.3,0,0,0-.1,0-.2-.1,0,0,0-.2,0-.2s0-.2,0-.4,0-.3,0-.4c0,0,0-.2,0-.2,0,0,.1,0,.2-.1,0,0,.2,0,.3,0s.2,0,.2,0c0,0,.1,0,.2.1s0,.1.1.2c0,0,0,.2,0,.3s0,.3,0,.4c0,0,0,.2,0,.2,0,0,0,.1-.2.1s-.2,0-.3,0"/>
        <path class="st1" d="M90,40.5s0,0,0,0,0,0,.1,0c0,0,.1,0,.2,0h.3s0,0,.1,0h0v-.2s0,0,0,0c0,0-.2,0-.2,0h-.3c-.1,0-.2,0-.3,0s-.1,0-.2,0c0,0,0,0-.1.1,0,0,0,0,0,.1h0c0,.1,0,.2,0,.2s0,0,0,.1c0,0,0,0,.1,0s0,0,.2,0c0,0,0,0,.1,0s0,0,.1,0c0,0,0,0,.1,0s0,0,0,0c0,0,0,0,0,.1,0,0,0,0,0,.1,0,0,0,0,0,.1,0,0,0,0,0,0s0,0-.1,0c0,0,0,0-.2,0h0c0,0-.1,0-.2,0,0,0-.2,0-.2,0h0v.2s0,0,0,0c0,0,.2,0,.2,0,0,0,.2,0,.2,0h0c0,0,.1,0,.2,0,0,0,.1,0,.2,0s.1,0,.2-.1,0-.1,0-.2h0c0-.1,0-.2,0-.2,0,0,0,0,0-.1,0,0,0,0,0,0,0,0,0,0,0,0,0,0,0,0-.1,0h-.1c0,0,0-.2-.1-.2,0,0,0,0-.1,0,0,0,0,0,0,0,0,0,0,0,0,0,0,0,0,0,0,0h0s0,0,0-.1"/>
        <path class="st1" d="M93.4,41.9s0,0,0,0c0,0,0,0-.1,0,0,0-.1,0-.2,0-.2,0-.3,0-.4,0,0,0-.1,0-.2-.1,0,0,0-.1,0-.2,0,0,0-.2,0-.3s0-.2,0-.3c0,0,0-.2,0-.2,0,0,0-.1.2-.2,0,0,.2,0,.3,0h.2c0,0,.1,0,.2,0,0,0,0,0,.1,0h0s0-.2,0-.2h0s0,0,0,0c0,0,0,0-.1,0,0,0-.1,0-.2,0h-.2c-.2,0-.3,0-.4,0s-.2.1-.2.2c0,0,0,.2-.1.3,0,.1,0,.2,0,.4s0,.3,0,.4,0,.2.1.3c0,0,.1.2.2.2,0,0,.2,0,.4,0h.2c0,0,.1,0,.2,0,0,0,0,0,.1,0,0,0,0,0,0,0h0v-.2h0,0Z"/>
        <polygon class="st1" points="95.1 41 94.1 41 94.1 40.2 93.8 40.2 93.8 42.1 94.1 42.1 94.1 41.2 95.1 41.2 95.1 42.1 95.4 42.1 95.4 40.2 95.1 40.2 95.1 41"/>
        <rect class="st1" x="95.9" y="40.2" width=".2" height="1.8"/>
        <polygon class="st1" points="96.8 40.2 96.6 40.2 96.6 42.1 97.8 42.1 97.8 41.9 96.8 41.9 96.8 40.2"/>
        <polygon class="st1" points="98 42.1 99.3 42.1 99.3 41.9 98.2 41.9 98.2 41.2 99.1 41.2 99.1 41 98.2 41 98.2 40.4 99.3 40.4 99.3 40.2 98 40.2 98 42.1"/>
        <polygon class="st1" points="100.9 41.9 100.9 41.9 100 40.2 99.7 40.2 99.7 42.1 99.9 42.1 99.9 40.4 99.9 40.4 100.8 42 100.8 42.1 101.1 42.1 101.1 40.2 100.9 40.2 100.9 41.9"/>
        <path class="st1" d="M103,40.4c0,0-.2-.1-.2-.2s-.2,0-.3,0-.3,0-.4,0-.2,0-.3.2c0,0-.1.2-.2.3s0,.3,0,.4,0,.3,0,.5c0,.1,0,.2.1.3s.2.1.2.2.2,0,.4,0,.3,0,.4,0,.2,0,.2-.2,0-.2.1-.3c0-.1,0-.3,0-.4s0-.3,0-.4c0-.1,0-.2-.2-.3M102.4,41.9c-.1,0-.2,0-.3,0,0,0-.1,0-.2-.1,0,0,0-.2,0-.2s0-.2,0-.4,0-.3,0-.4c0,0,0-.2,0-.2,0,0,.1,0,.2-.1,0,0,.2,0,.3,0s.2,0,.2,0c0,0,.1,0,.2.1s0,.1.1.2c0,0,0,.2,0,.3s0,.3,0,.4c0,0,0,.2,0,.2,0,0,0,.1-.2.1s-.2,0-.3,0"/>
        <path class="st1" d="M104.6,41.5s0,0,0-.1c0,0,0,0,0,0,0,0,0,0,0,0s0,0-.1,0h-.1c0,0,0-.2-.1-.2,0,0,0,0-.1,0,0,0,0,0,0,0,0,0,0,0,0,0,0,0,0,0,0,0h0s0,0,0-.1c0,0,0,0,0,0s0,0,.1,0c0,0,.1,0,.2,0h.3s0,0,.1,0h0v-.2s0,0,0,0c0,0-.2,0-.2,0h-.3c-.1,0-.2,0-.3,0s-.1,0-.2,0c0,0,0,0-.1.1,0,0,0,0,0,.1h0c0,.1,0,.2,0,.2s0,0,0,.1c0,0,0,0,.1,0s0,0,.2,0c0,0,0,0,.1,0s0,0,.1,0,0,0,.1,0,0,0,0,0c0,0,0,0,0,.1,0,0,0,0,0,.1,0,0,0,0,0,.1,0,0,0,0,0,0s0,0-.1,0c0,0,0,0-.2,0h0c0,0-.1,0-.2,0,0,0-.2,0-.2,0h0v.2s0,0,0,0c0,0,.2,0,.2,0,0,0,.2,0,.2,0h0c0,0,.1,0,.2,0,0,0,.1,0,.2,0s.1,0,.2-.1,0-.1,0-.2h0c0-.1,0-.2,0-.2"/>
        <path class="st4" d="M7.1,56.4l-1.4-4.5h0c0,.9,0,1.5,0,1.8v2.7h-1.1v-5.7h1.7l1.3,4.4h0l1.4-4.4h1.6v5.7h-1.1v-3.1c0-.2,0-.6,0-1.3h0l-1.5,4.5h-1.1,0Z"/>
        <path class="st4" d="M14.9,56.4l-.2-.6h0c-.2.2-.4.4-.6.5s-.5.2-.8.2-.8-.1-1-.4-.4-.6-.4-1,.2-.8.5-1c.3-.2.8-.3,1.5-.4h.8v-.2c0-.4-.2-.7-.7-.7s-.8.1-1.2.3l-.4-.8c.5-.3,1.1-.4,1.7-.4s1,.1,1.4.4c.3.3.5.6.5,1.2v2.9h-.9ZM14.6,54.4h-.5c-.4,0-.6,0-.8.2-.2.1-.2.3-.2.5,0,.3.2.5.6.5s.5,0,.7-.2c.2-.2.2-.4.2-.6v-.4h0Z"/>
        <path class="st4" d="M19.4,51.9c.2,0,.3,0,.4,0v1.1c-.2,0-.3,0-.4,0-.4,0-.7,0-.9.3s-.3.5-.3.8v2.2h-1.2v-4.4h.9l.2.7h0c.1-.2.3-.4.5-.6s.5-.2.8-.2Z"/>
        <path class="st4" d="M22.4,56.5c-1.4,0-2-.8-2-2.2s.2-1.3.5-1.7c.4-.4.9-.6,1.6-.6s1,0,1.4.3l-.4.9c-.2,0-.4-.1-.5-.2s-.3,0-.5,0c-.6,0-.9.4-.9,1.3s.3,1.3.9,1.3.4,0,.6,0c.2,0,.4-.2.6-.3v1c-.2.1-.4.2-.6.2s-.4,0-.7,0h0Z"/>
        <path class="st4" d="M27.5,56.4l-.2-.6h0c-.2.2-.4.4-.6.5s-.5.2-.8.2-.8-.1-1-.4-.4-.6-.4-1,.2-.8.5-1c.3-.2.8-.3,1.5-.4h.8v-.2c0-.4-.2-.7-.7-.7s-.8.1-1.2.3l-.4-.8c.5-.3,1.1-.4,1.7-.4s1,.1,1.4.4c.3.3.5.6.5,1.2v2.9h-.8ZM27.1,54.4h-.5c-.4,0-.6,0-.8.2-.2.1-.2.3-.2.5,0,.3.2.5.6.5s.5,0,.7-.2c.2-.2.2-.4.2-.6v-.4h0Z"/>
        <path class="st4" d="M35.5,56.4h-1.2v-2.5c0-.3,0-.5-.2-.7s-.3-.2-.5-.2-.5.1-.7.3c-.1.2-.2.6-.2,1.1v2h-1.2v-4.4h.9l.2.6h0c.1-.2.3-.4.5-.5s.5-.2.8-.2c.7,0,1.1.2,1.3.6h.1c.1-.2.3-.4.5-.5s.5-.2.8-.2c.5,0,.9.1,1.1.4s.4.7.4,1.2v2.8h-1.2v-2.5c0-.3,0-.5-.2-.7s-.3-.2-.5-.2-.5,0-.7.3c-.1.2-.2.5-.2,1v2.2h0Z"/>
        <path class="st4" d="M42.3,56.4l-.2-.6h0c-.2.2-.4.4-.6.5s-.5.2-.8.2-.8-.1-1-.4-.4-.6-.4-1,.2-.8.5-1c.3-.2.8-.3,1.5-.4h.8v-.2c0-.4-.2-.7-.7-.7s-.8.1-1.2.3l-.4-.8c.5-.3,1.1-.4,1.7-.4s1,.1,1.3.4c.3.3.5.6.5,1.2v2.9h-.8ZM41.9,54.4h-.5c-.3,0-.6,0-.8.2-.2.1-.2.3-.2.5,0,.3.2.5.6.5s.5,0,.7-.2c.2-.2.2-.4.2-.6v-.4h0ZM40.6,51.5h0c.5-.6.8-1,.9-1.3h1.3c-.1.2-.4.4-.7.7-.3.3-.6.5-.8.6h-.8Z"/>
        <path class="st4" d="M47.4,55.1c0,.5-.2.8-.5,1s-.8.3-1.4.3-.6,0-.8,0-.4-.1-.6-.2v-1c.2,0,.5.2.8.3s.5.1.7.1c.4,0,.7-.1.7-.4s0-.2,0-.2-.2-.1-.3-.2-.3-.2-.6-.3c-.3-.1-.6-.3-.7-.4s-.3-.3-.3-.4-.1-.3-.1-.6c0-.4.2-.7.5-.9.3-.2.7-.3,1.3-.3s1,.1,1.5.3l-.4.9c-.2,0-.4-.2-.6-.2-.2,0-.4,0-.6,0-.3,0-.5,0-.5.3s0,.2.2.3.4.2.7.3c.3.1.6.3.8.4s.3.3.3.4.1.3.1.6h0Z"/>
        <path class="st4" d="M51.4,56.4l-1.7-4.4h1.2l.8,2.5c0,.3.2.6.2.9h0c0-.2,0-.5.2-.9l.8-2.5h1.2l-1.7,4.4h-1.2Z"/>
        <path class="st4" d="M57.7,56.4l-.2-.6h0c-.2.2-.4.4-.6.5s-.5.2-.8.2-.8-.1-1-.4-.4-.6-.4-1,.2-.8.5-1c.3-.2.8-.3,1.5-.4h.8v-.2c0-.4-.2-.7-.7-.7s-.8.1-1.2.3l-.4-.8c.5-.3,1.1-.4,1.7-.4s1,.1,1.3.4c.3.3.5.6.5,1.2v2.9h-.8ZM57.3,54.4h-.5c-.3,0-.6,0-.8.2-.2.1-.2.3-.2.5,0,.3.2.5.6.5s.5,0,.7-.2c.2-.2.2-.4.2-.6v-.4h0Z"/>
        <path class="st4" d="M61,56.4h-1.2v-6.1h1.2v6.1Z"/>
        <path class="st4" d="M66.2,54.2c0,.7-.2,1.3-.6,1.7-.4.4-.9.6-1.6.6s-.8,0-1.1-.3-.6-.5-.7-.8-.3-.7-.3-1.2c0-.7.2-1.3.6-1.7.4-.4.9-.6,1.6-.6s.8,0,1.1.3.6.4.7.8c.2.3.3.7.3,1.2h0ZM63.2,54.2c0,.4,0,.8.2,1s.4.3.7.3.6-.1.7-.3.2-.5.2-1,0-.8-.2-1c-.1-.2-.4-.3-.7-.3s-.5.1-.7.3-.2.5-.2,1Z"/>
        <path class="st4" d="M69.6,51.9c.2,0,.3,0,.4,0v1.1c-.2,0-.3,0-.4,0-.4,0-.7,0-.9.3s-.3.5-.3.8v2.2h-1.2v-4.4h.9l.2.7h0c.1-.2.3-.4.6-.6s.5-.2.7-.2Z"/>
        <path class="st4" d="M73.6,56.4l-.2-.6h0c-.2.2-.4.4-.6.5s-.5.2-.8.2-.8-.1-1-.4-.4-.6-.4-1,.2-.8.5-1c.3-.2.8-.3,1.5-.4h.8v-.2c0-.4-.2-.7-.7-.7s-.8.1-1.2.3l-.4-.8c.5-.3,1.1-.4,1.7-.4s1,.1,1.3.4c.3.3.5.6.5,1.2v2.9h-.8ZM73.2,54.4h-.5c-.3,0-.6,0-.8.2-.2.1-.2.3-.2.5,0,.3.2.5.6.5s.5,0,.7-.2c.2-.2.2-.4.2-.6v-.4h0Z"/>
        <path class="st4" d="M77,56.5c-.5,0-.9-.2-1.2-.6s-.4-1-.4-1.7.2-1.3.4-1.7c.3-.4.7-.6,1.2-.6s1,.2,1.3.6h0c0-.3,0-.6,0-.9v-1.4h1.2v6.1h-.9l-.2-.6h0c-.3.4-.7.6-1.2.6h0ZM77.4,55.5c.3,0,.5,0,.7-.3s.2-.5.2-.9h0c0-.6,0-.9-.2-1.1s-.4-.3-.7-.3-.5.1-.6.3-.2.5-.2,1,0,.8.2,1,.4.3.6.3h0Z"/>
        <path class="st4" d="M83.5,56.4l-.2-.6h0c-.2.2-.4.4-.6.5s-.5.2-.8.2-.8-.1-1-.4-.4-.6-.4-1,.2-.8.5-1c.3-.2.8-.3,1.5-.4h.8v-.2c0-.4-.2-.7-.7-.7s-.8.1-1.2.3l-.4-.8c.5-.3,1.1-.4,1.7-.4s1,.1,1.3.4c.3.3.5.6.5,1.2v2.9h-.8ZM83.1,54.4h-.5c-.3,0-.6,0-.8.2-.2.1-.2.3-.2.5,0,.3.2.5.6.5s.5,0,.7-.2c.2-.2.2-.4.2-.6v-.4h0Z"/>
        <path class="st4" d="M89.6,56.5c-.7,0-1.2-.2-1.7-.6-.4-.4-.6-.9-.6-1.7s.2-1.3.6-1.7.9-.6,1.5-.6,1.1.2,1.4.5.5.8.5,1.5v.6h-2.8c0,.3.1.6.3.8.2.2.4.3.8.3s.5,0,.8,0,.5-.1.7-.3v.9c-.2,0-.4.2-.7.2s-.5,0-.9,0h0ZM89.4,52.8c-.2,0-.4,0-.6.2s-.2.4-.2.7h1.7c0-.3,0-.5-.2-.7s-.3-.2-.6-.2Z"/>
        <path class="st4" d="M96.3,56.4h-1.2v-2.5c0-.3,0-.5-.2-.7s-.3-.2-.5-.2-.6.1-.7.3-.2.6-.2,1.1v2h-1.2v-4.4h.9l.2.6h0c.1-.2.3-.4.6-.5s.5-.2.8-.2c.5,0,.9.1,1.2.4.3.3.4.7.4,1.2v2.8h0Z"/>
        <path class="st4" d="M100.8,56.4h-1.2v-6.1h1.2v6.1Z"/>
        <path class="st4" d="M104.9,56.4l-.2-.6h0c-.2.2-.4.4-.6.5s-.5.2-.8.2-.8-.1-1-.4-.4-.6-.4-1,.2-.8.5-1c.3-.2.8-.3,1.5-.4h.8v-.2c0-.4-.2-.7-.7-.7s-.8.1-1.2.3l-.4-.8c.5-.3,1.1-.4,1.7-.4s1,.1,1.3.4c.3.3.5.6.5,1.2v2.9h-.8ZM104.5,54.4h-.5c-.3,0-.6,0-.8.2-.2.1-.2.3-.2.5,0,.3.2.5.6.5s.5,0,.7-.2c.2-.2.2-.4.2-.6v-.4h0Z"/>
        <path class="st4" d="M110.8,56.5c-1.4,0-2-.8-2-2.2s.2-1.3.6-1.7.9-.6,1.6-.6,1,0,1.4.3l-.3.9c-.2,0-.4-.1-.5-.2-.2,0-.3,0-.5,0-.6,0-.9.4-.9,1.3s.3,1.3.9,1.3.4,0,.6,0,.4-.2.6-.3v1c-.2.1-.4.2-.6.2s-.4,0-.7,0h0Z"/>
        <path class="st4" d="M115.9,56.4l-.2-.6h0c-.2.2-.4.4-.6.5s-.5.2-.8.2-.8-.1-1-.4-.4-.6-.4-1,.2-.8.5-1c.3-.2.8-.3,1.5-.4h.8v-.2c0-.4-.2-.7-.7-.7s-.8.1-1.2.3l-.4-.8c.5-.3,1.1-.4,1.7-.4s1,.1,1.3.4c.3.3.5.6.5,1.2v2.9h-.8ZM115.5,54.4h-.5c-.3,0-.6,0-.8.2-.2.1-.2.3-.2.5,0,.3.2.5.6.5s.5,0,.7-.2c.2-.2.2-.4.2-.6v-.4h0Z"/>
        <path class="st4" d="M119.8,55.5c.2,0,.5,0,.8-.1v.9c-.3.1-.7.2-1.1.2s-.8-.1-1-.4-.3-.6-.3-1.1v-2.1h-.6v-.5l.7-.4.3-.9h.8v.9h1.2v.9h-1.2v2.1c0,.2,0,.3.1.4,0,0,.2.1.4.1h0Z"/>
        <path class="st4" d="M123.4,56.5c-.7,0-1.2-.2-1.7-.6-.4-.4-.6-.9-.6-1.7s.2-1.3.6-1.7.9-.6,1.5-.6,1.1.2,1.4.5.5.8.5,1.5v.6h-2.8c0,.3.1.6.3.8.2.2.4.3.8.3s.5,0,.8,0,.5-.1.7-.3v.9c-.2,0-.4.2-.7.2s-.5,0-.9,0h0ZM123.2,52.8c-.2,0-.4,0-.6.2s-.2.4-.2.7h1.7c0-.3,0-.5-.2-.7s-.3-.2-.6-.2Z"/>
        <path class="st4" d="M129.9,52v.6l-.7.2c.1.2.2.4.2.7,0,.5-.2.8-.5,1.1s-.8.4-1.4.4h-.4c-.1,0-.2.2-.2.3,0,.2.2.3.7.3h.7c.5,0,.8,0,1.1.3.2.2.4.5.4.9s-.2.9-.6,1.2-1,.4-1.8.4-1.1-.1-1.4-.3-.5-.5-.5-.9,0-.5.2-.7.4-.3.7-.4c-.1,0-.2-.1-.3-.3s-.1-.2-.1-.4,0-.3.1-.4c0-.1.2-.2.4-.3-.2,0-.4-.3-.5-.5s-.2-.5-.2-.8c0-.5.2-.8.5-1.1.3-.3.8-.4,1.3-.4s.3,0,.4,0,.3,0,.3,0h1.5,0ZM126.6,57c0,.2,0,.3.2.4s.4.1.7.1c.4,0,.8,0,1-.2s.4-.3.4-.5,0-.3-.2-.3-.4,0-.7,0h-.6c-.2,0-.4,0-.6.2-.2,0-.2.2-.2.4ZM127,53.5c0,.2,0,.4.2.6.1.1.3.2.5.2s.4,0,.5-.2.2-.3.2-.6c0-.5-.2-.8-.7-.8s-.7.3-.7.8h0Z"/>
        <path class="st4" d="M134.6,54.2c0,.7-.2,1.3-.6,1.7-.4.4-.9.6-1.6.6s-.8,0-1.1-.3-.6-.5-.7-.8-.3-.7-.3-1.2c0-.7.2-1.3.6-1.7.4-.4.9-.6,1.6-.6s.8,0,1.1.3.6.4.7.8c.2.3.3.7.3,1.2h0ZM131.6,54.2c0,.4,0,.8.2,1s.4.3.7.3.6-.1.7-.3.2-.5.2-1,0-.8-.2-1c-.1-.2-.4-.3-.7-.3s-.6.1-.7.3-.2.5-.2,1Z"/>
        <path class="st4" d="M138.1,51.9c.2,0,.3,0,.4,0v1.1c-.2,0-.3,0-.4,0-.4,0-.7,0-.9.3s-.3.5-.3.8v2.2h-1.2v-4.4h.9l.2.7h0c.1-.2.3-.4.6-.6s.5-.2.8-.2h0Z"/>
        <path class="st4" d="M139.2,51.5h0c.4-.6.8-1,.9-1.3h1.3c-.1.2-.4.4-.7.7-.3.3-.6.5-.8.6h-.8ZM140.4,56.4h-1.2v-4.4h1.2v4.4Z"/>
        <path class="st4" d="M144.5,56.4l-.2-.6h0c-.2.2-.4.4-.6.5s-.5.2-.8.2-.8-.1-1-.4-.4-.6-.4-1,.2-.8.5-1c.3-.2.8-.3,1.5-.4h.8v-.2c0-.4-.2-.7-.7-.7s-.8.1-1.2.3l-.4-.8c.5-.3,1.1-.4,1.7-.4s1,.1,1.4.4c.3.3.5.6.5,1.2v2.9h-.9ZM144.1,54.4h-.5c-.4,0-.6,0-.8.2-.2.1-.2.3-.2.5,0,.3.2.5.6.5s.5,0,.7-.2c.2-.2.2-.4.2-.6v-.4h0Z"/>
        <path class="st4" d="M15.2,61.2c-.5,0-.8.2-1.1.5-.2.3-.4.8-.4,1.4,0,1.3.5,1.9,1.4,1.9s.9,0,1.5-.3v1c-.5.2-1,.3-1.6.3-.8,0-1.5-.2-1.9-.8s-.7-1.2-.7-2.2.1-1.1.3-1.6c.2-.5.5-.8.9-1s.9-.4,1.4-.4,1.1.1,1.7.4l-.4,1c-.2,0-.4-.2-.6-.3-.2,0-.4-.1-.6-.1h0Z"/>
        <path class="st4" d="M19,66h-1.2v-6.1h1.2v6.1Z"/>
        <path class="st4" d="M20.2,61.1h0c.5-.6.8-1,.9-1.3h1.3c-.1.2-.4.4-.7.7-.3.3-.6.5-.8.6h-.8ZM21.5,66h-1.2v-4.4h1.2v4.4Z"/>
        <path class="st4" d="M26.8,66h-1.2v-2.5c0-.3,0-.5-.2-.7s-.3-.2-.5-.2-.6.1-.7.3-.2.6-.2,1.1v2.1h-1.2v-4.4h.9l.2.6h0c.1-.2.3-.4.5-.5s.5-.2.8-.2c.5,0,.9.1,1.2.4.3.3.4.7.4,1.2v2.8h0Z"/>
        <path class="st4" d="M27.9,60.5c0-.4.2-.6.6-.6s.6.2.6.6,0,.3-.2.4-.3.2-.5.2c-.4,0-.6-.2-.6-.6h0ZM29.2,66h-1.2v-4.4h1.2v4.4Z"/>
        <path class="st4" d="M32.2,66.1c-1.4,0-2-.8-2-2.2s.2-1.3.5-1.7c.4-.4.9-.6,1.6-.6s1,0,1.4.3l-.3.9c-.2,0-.4-.1-.5-.2s-.3,0-.5,0c-.6,0-.9.4-.9,1.3s.3,1.3.9,1.3.4,0,.6,0,.4-.2.6-.3v1c-.2.1-.4.2-.6.2s-.4,0-.7,0h0Z"/>
        <path class="st4" d="M37.3,66l-.2-.6h0c-.2.2-.4.4-.6.5s-.5.2-.8.2-.8-.1-1-.4-.4-.6-.4-1,.2-.8.5-1c.3-.2.8-.3,1.5-.4h.8v-.2c0-.4-.2-.7-.7-.7s-.8.1-1.2.3l-.4-.8c.5-.3,1.1-.4,1.7-.4s1,.1,1.3.4c.3.3.5.6.5,1.2v2.9h-.8ZM37,64h-.5c-.3,0-.6,0-.8.2-.2.1-.2.3-.2.5,0,.3.2.5.6.5s.5,0,.7-.2c.2-.2.2-.4.2-.6v-.4h0Z"/>
        <path class="st4" d="M42.4,64.7c0,.4-.2.8-.5,1s-.8.3-1.4.3-.6,0-.8,0-.4-.1-.6-.2v-1c.2,0,.5.2.8.3s.5.1.7.1c.4,0,.7-.1.7-.4s0-.2,0-.2-.2-.1-.3-.2-.3-.2-.6-.3c-.3-.1-.6-.3-.7-.4s-.3-.3-.3-.4-.1-.3-.1-.6c0-.4.2-.7.5-.9.3-.2.7-.3,1.3-.3s1,.1,1.5.3l-.4.9c-.2,0-.4-.2-.6-.2-.2,0-.4,0-.6,0-.3,0-.5,0-.5.3s0,.2.2.3.4.2.7.3c.3.1.6.3.8.4s.3.3.3.4c0,.2.1.3.1.6h0Z"/>
        <path class="st4" d="M44.8,61.6h1.3l.8,2.5c0,.2.1.5.1.8h0c0-.3,0-.5.2-.8l.8-2.5h1.3l-1.8,4.9c-.2.5-.4.8-.7,1s-.7.3-1.1.3-.4,0-.6,0v-.9c.1,0,.3,0,.5,0s.4,0,.5-.2.3-.3.4-.6v-.2c0,0-1.7-4.3-1.7-4.3h0Z"/>
        <path class="st4" d="M54.6,61.2c-.5,0-.8.2-1.1.5s-.4.8-.4,1.4c0,1.3.5,1.9,1.4,1.9s.9,0,1.5-.3v1c-.5.2-1,.3-1.6.3-.8,0-1.5-.2-1.9-.8s-.7-1.2-.7-2.2.1-1.1.3-1.6c.2-.5.5-.8.9-1s.9-.4,1.4-.4,1.1.1,1.7.4l-.4,1c-.2,0-.4-.2-.6-.3-.2,0-.4-.1-.6-.1h0Z"/>
        <path class="st4" d="M59.1,66.1c-.7,0-1.2-.2-1.7-.6s-.6-.9-.6-1.7.2-1.3.5-1.7.9-.6,1.5-.6,1.1.2,1.4.5.5.8.5,1.5v.6h-2.8c0,.3.1.6.3.8s.5.3.8.3.5,0,.8,0,.5-.1.7-.3v.9c-.2,0-.4.2-.7.2s-.5,0-.9,0h0ZM59,62.4c-.2,0-.5,0-.6.2s-.2.4-.2.7h1.7c0-.3,0-.5-.2-.7s-.3-.2-.6-.2Z"/>
        <path class="st4" d="M65.9,66h-1.2v-2.5c0-.3,0-.5-.2-.7s-.3-.2-.5-.2-.6.1-.7.3-.2.6-.2,1.1v2.1h-1.2v-4.4h.9l.2.6h0c.1-.2.3-.4.5-.5s.5-.2.8-.2c.5,0,.9.1,1.2.4.3.3.4.7.4,1.2v2.8h0Z"/>
        <path class="st4" d="M69,65.1c.2,0,.5,0,.8-.1v.9c-.3.1-.7.2-1.1.2s-.8-.1-1-.4-.3-.6-.3-1.1v-2.1h-.6v-.5l.7-.4.3-.9h.8v.9h1.2v.9h-1.2v2.1c0,.2,0,.3.1.4,0,0,.2.1.4.1h0Z"/>
        <path class="st4" d="M73,61.5c.2,0,.3,0,.4,0v1.1c-.2,0-.3,0-.4,0-.4,0-.7,0-.9.3s-.3.5-.3.8v2.2h-1.2v-4.4h.9l.2.7h0c.1-.2.3-.4.6-.6s.5-.2.7-.2Z"/>
        <path class="st4" d="M78.2,63.8c0,.7-.2,1.3-.6,1.7-.4.4-.9.6-1.6.6s-.8,0-1.1-.3-.6-.4-.7-.8-.3-.7-.3-1.2c0-.7.2-1.3.6-1.7.4-.4.9-.6,1.6-.6s.8,0,1.1.3.6.4.7.8c.2.3.3.7.3,1.2h0ZM75.2,63.8c0,.4,0,.8.2,1s.4.3.7.3.6-.1.7-.3.2-.6.2-1,0-.8-.2-1c-.1-.2-.4-.3-.7-.3s-.6.1-.7.3-.2.5-.2,1Z"/>
        <path class="st4" d="M82.2,64.7c0,.4-.2.8-.5,1s-.8.3-1.4.3-.6,0-.8,0-.4-.1-.6-.2v-1c.2,0,.5.2.8.3s.5.1.7.1c.4,0,.7-.1.7-.4s0-.2,0-.2-.2-.1-.3-.2-.3-.2-.6-.3c-.3-.1-.6-.3-.7-.4-.2-.1-.3-.3-.3-.4s-.1-.3-.1-.6c0-.4.2-.7.4-.9.3-.2.7-.3,1.3-.3s1,.1,1.5.3l-.4.9c-.2,0-.4-.2-.6-.2s-.4,0-.6,0c-.3,0-.5,0-.5.3s0,.2.2.3.4.2.7.3c.3.1.6.3.8.4s.3.3.3.4c0,.2.1.3.1.6h0Z"/>
        <path class="st4" d="M87.8,66l-1.4-4.5h0c0,.9,0,1.5,0,1.8v2.7h-1.1v-5.7h1.7l1.3,4.4h0l1.4-4.4h1.7v5.7h-1.1v-3.1c0-.2,0-.6,0-1.3h0l-1.5,4.5h-1.1,0Z"/>
        <path class="st4" d="M94.8,66.1c-.7,0-1.2-.2-1.7-.6s-.6-.9-.6-1.7.2-1.3.6-1.7.9-.6,1.5-.6,1.1.2,1.4.5.5.8.5,1.5v.6h-2.8c0,.3.1.6.3.8s.4.3.8.3.5,0,.8,0,.5-.1.7-.3v.9c-.2,0-.4.2-.7.2s-.5,0-.9,0h0ZM94.6,62.4c-.2,0-.4,0-.6.2s-.2.4-.2.7h1.7c0-.3,0-.5-.2-.7s-.3-.2-.6-.2ZM93.9,61.1h0c.4-.6.8-1,.9-1.3h1.3c-.1.2-.4.4-.7.7-.3.3-.6.5-.8.6h-.8Z"/>
        <path class="st4" d="M98.9,66.1c-.5,0-.9-.2-1.2-.6s-.4-.9-.4-1.7.2-1.3.4-1.7c.3-.4.7-.6,1.2-.6s1,.2,1.3.6h0c0-.3,0-.6,0-.9v-1.4h1.2v6.1h-.9l-.2-.6h0c-.3.4-.7.6-1.2.6h0ZM99.3,65.1c.3,0,.5,0,.7-.3s.2-.5.2-.9h0c0-.6,0-.9-.2-1.1s-.4-.3-.7-.3-.5.1-.6.3-.2.5-.2,1,0,.7.2,1,.4.3.6.3h0Z"/>
        <path class="st4" d="M102.5,60.5c0-.4.2-.6.7-.6s.7.2.7.6,0,.3-.2.4-.3.2-.5.2c-.4,0-.7-.2-.7-.6h0ZM103.8,66h-1.2v-4.4h1.2v4.4Z"/>
        <path class="st4" d="M106.8,66.1c-1.4,0-2-.8-2-2.2s.2-1.3.6-1.7.9-.6,1.6-.6,1,0,1.4.3l-.3.9c-.2,0-.4-.1-.5-.2-.2,0-.3,0-.5,0-.6,0-.9.4-.9,1.3s.3,1.3.9,1.3.4,0,.6,0,.4-.2.6-.3v1c-.2.1-.4.2-.6.2s-.4,0-.7,0h0Z"/>
        <path class="st4" d="M113.1,63.8c0,.7-.2,1.3-.6,1.7-.4.4-.9.6-1.6.6s-.8,0-1.1-.3-.6-.4-.7-.8-.3-.7-.3-1.2c0-.7.2-1.3.6-1.7.4-.4.9-.6,1.6-.6s.8,0,1.1.3.6.4.7.8c.2.3.3.7.3,1.2h0ZM110.1,63.8c0,.4,0,.8.2,1s.4.3.7.3.6-.1.7-.3.2-.6.2-1,0-.8-.2-1c-.1-.2-.4-.3-.7-.3s-.6.1-.7.3-.2.5-.2,1Z"/>
        <path class="st4" d="M117.1,64.7c0,.4-.2.8-.5,1s-.8.3-1.4.3-.6,0-.8,0-.4-.1-.6-.2v-1c.2,0,.5.2.8.3s.5.1.7.1c.4,0,.7-.1.7-.4s0-.2,0-.2-.2-.1-.3-.2-.3-.2-.6-.3c-.3-.1-.6-.3-.7-.4-.2-.1-.3-.3-.3-.4s-.1-.3-.1-.6c0-.4.2-.7.4-.9.3-.2.7-.3,1.3-.3s1,.1,1.5.3l-.4.9c-.2,0-.4-.2-.6-.2s-.4,0-.6,0c-.3,0-.5,0-.5.3s0,.2.2.3.4.2.7.3c.3.1.6.3.8.4s.3.3.3.4c0,.2.1.3.1.6h0Z"/>
        <path class="st4" d="M123.8,66h-4v-.8l1.4-1.5c.4-.4.7-.7.8-.9s.2-.3.3-.5c0-.1,0-.3,0-.5,0-.2,0-.4-.2-.5-.1-.1-.3-.2-.5-.2s-.4,0-.6.2-.4.2-.7.4l-.7-.8c.3-.2.5-.4.7-.5.2,0,.4-.2.6-.2s.5,0,.7,0,.7,0,.9.2c.3.1.5.3.6.5s.2.5.2.8,0,.5-.1.7-.2.5-.4.7-.5.6-1,1l-.7.7h0c0,0,2.5,0,2.5,0v1h0Z"/>
        <path class="st4" d="M128.4,63.1c0,1-.2,1.7-.5,2.2-.3.5-.8.7-1.5.7s-1.2-.2-1.5-.7c-.3-.5-.5-1.2-.5-2.2s.2-1.8.5-2.2c.3-.5.8-.7,1.5-.7s1.2.2,1.5.8.5,1.2.5,2.2ZM125.6,63.1c0,.7,0,1.2.2,1.5.1.3.3.5.6.5s.5-.2.6-.5c.1-.3.2-.8.2-1.5s0-1.2-.2-1.5c-.1-.3-.3-.5-.6-.5s-.5.2-.6.5c-.1.3-.2.8-.2,1.5h0Z"/>
        <path class="st4" d="M132.9,66h-4v-.8l1.4-1.5c.4-.4.7-.7.8-.9s.2-.3.3-.5c0-.1,0-.3,0-.5,0-.2,0-.4-.2-.5-.1-.1-.3-.2-.5-.2s-.4,0-.6.2-.4.2-.6.4l-.7-.8c.3-.2.5-.4.7-.5.2,0,.4-.2.6-.2s.5,0,.7,0,.7,0,.9.2c.3.1.5.3.6.5s.2.5.2.8,0,.5-.1.7-.2.5-.4.7-.5.6-1,1l-.7.7h0c0,0,2.5,0,2.5,0v1h0Z"/>
        <path class="st4" d="M135.6,62.3c.6,0,1,.2,1.3.5s.5.7.5,1.3-.2,1.1-.6,1.5-1,.5-1.7.5-1.1-.1-1.5-.3v-1c.2.1.4.2.7.3s.5.1.8.1c.7,0,1.1-.3,1.1-.9s-.4-.9-1.1-.9-.3,0-.5,0-.3,0-.4,0l-.5-.3.2-2.9h3.1v1h-2v1.1c-.1,0,0,0,0,0,.2,0,.4,0,.6,0Z"/>
      </g>
    </g>
  </g>
</svg>