<?xml version="1.0" encoding="UTF-8"?>
<svg id="Capa_2" data-name="Capa 2" xmlns="http://www.w3.org/2000/svg" xmlns:xlink="http://www.w3.org/1999/xlink" viewBox="0 0 123.47 49.61">
  <defs>
    <style>
      .cls-1 {
        fill: none;
      }

      .cls-2 {
        fill: #fff;
      }

      .cls-3 {
        fill: #738296;
      }

      .cls-4 {
        fill: #001c40;
        stroke: #001c40;
        stroke-miterlimit: 10;
        stroke-width: 2.5px;
      }

      .cls-5 {
        clip-path: url(#clippath);
      }
    </style>
    <clipPath id="clippath">
      <rect class="cls-1" width="123.47" height="49.61"/>
    </clipPath>
  </defs>
  <g id="Capa_1-2" data-name="Capa 1">
    <g class="cls-5">
      <path class="cls-4" d="M17.4,4.01h88.67c7.39,0,13.38,6,13.38,13.38v14.81c0,7.39-6,13.38-13.38,13.38H17.4c-7.39,0-13.39-6-13.39-13.39v-14.81c0-7.39,6-13.39,13.39-13.39Z"/>
      <g>
        <path class="cls-2" d="M23.07,16.6h8.81v-4.02h-8.81c-4.18,0-7.57,3.4-7.57,7.57v9.3c0,4.18,3.4,7.57,7.57,7.57h8.12l-3.12-4.01h-.01s-4.98-.01-4.98-.01c-1.96,0-3.55-1.59-3.55-3.55v-9.3c0-1.96,1.59-3.55,3.55-3.55Z"/>
        <path class="cls-3" d="M40.69,16.6h-8.81s0-4.02,0-4.02h8.81c4.18,0,7.57,3.4,7.57,7.57v9.3c0,4.18-3.4,7.57-7.57,7.57h-8.12s3.12-4.01,3.12-4.01h.01s4.98-.01,4.98-.01c1.96,0,3.55-1.59,3.55-3.55v-9.3c0-1.96-1.59-3.55-3.55-3.55Z"/>
      </g>
      <g>
        <path class="cls-2" d="M55.59,29.81v7.22h-1.66v-10.05h1.51l3.51,4.75,3.52-4.75h1.51v10.05h-1.67v-7.2l-3.35,4.56-3.38-4.57Z"/>
        <path class="cls-2" d="M69.33,29.81c1.85,0,3.41,1.23,3.41,3.51,0,.16,0,.28-.01.51h-5.56c.07,1.16,1,1.92,2.18,1.92.99,0,1.66-.45,2.02-1.08l1.19.85c-.64,1-1.74,1.64-3.23,1.64-2.15,0-3.69-1.53-3.69-3.68s1.54-3.68,3.69-3.68ZM67.24,32.7h3.93c-.17-1.02-.99-1.57-1.9-1.57s-1.83.52-2.04,1.57Z"/>
        <path class="cls-2" d="M74.34,29.95h1.56v.96c.4-.67,1.1-1.1,2.01-1.1,1.05,0,1.81.52,2.19,1.4.42-.91,1.33-1.4,2.26-1.4,1.6,0,2.55,1.17,2.55,2.99v4.23h-1.56v-3.98c0-1.1-.41-1.83-1.26-1.83-1,0-1.68.84-1.68,2.32v3.48h-1.56v-3.98c0-1.1-.41-1.83-1.26-1.83-1,0-1.7.84-1.7,2.32v3.48h-1.56v-7.08Z"/>
        <path class="cls-2" d="M88.46,37.03h-1.56v-10.61h1.56v4.49c.4-.57,1.26-1.09,2.28-1.09,1.94,0,3.41,1.66,3.41,3.68s-1.47,3.68-3.41,3.68c-1.02,0-1.88-.52-2.28-1.09v.95ZM90.46,31.23c-1.26,0-2.12.99-2.12,2.26s.86,2.26,2.12,2.26,2.11-.99,2.11-2.26-.86-2.26-2.11-2.26Z"/>
        <path class="cls-2" d="M98.93,29.81c1.85,0,3.41,1.23,3.41,3.51,0,.16,0,.28-.01.51h-5.56c.07,1.16,1,1.92,2.18,1.92.99,0,1.66-.45,2.02-1.08l1.19.85c-.64,1-1.74,1.64-3.23,1.64-2.15,0-3.69-1.53-3.69-3.68s1.54-3.68,3.69-3.68ZM96.84,32.7h3.93c-.17-1.02-.99-1.57-1.9-1.57s-1.83.52-2.04,1.57Z"/>
        <path class="cls-2" d="M103.94,29.95h1.56v1.26c.27-.81,1.06-1.33,1.87-1.33.2,0,.4.01.61.06v1.6c-.27-.08-.5-.13-.78-.13-.89,0-1.7.75-1.7,2.17v3.45h-1.56v-7.08Z"/>
      </g>
      <g>
        <path class="cls-2" d="M64.45,12.59h1.66v10.05h-1.66v-10.05Z"/>
        <path class="cls-2" d="M72.87,12.42c1.97,0,3.64,1,4.53,2.55l-1.43.82c-.65-1.08-1.71-1.77-3.1-1.77-2,0-3.52,1.6-3.52,3.59s1.53,3.59,3.52,3.59c1.39,0,2.45-.69,3.1-1.77l1.43.82c-.89,1.54-2.56,2.55-4.53,2.55-2.89,0-5.19-2.29-5.19-5.19s2.31-5.19,5.19-5.19Z"/>
        <path class="cls-2" d="M83.47,12.42c1.97,0,3.64,1,4.53,2.55l-1.43.82c-.65-1.08-1.71-1.77-3.1-1.77-2,0-3.52,1.6-3.52,3.59s1.53,3.59,3.52,3.59c1.39,0,2.45-.69,3.1-1.77l1.43.82c-.89,1.54-2.56,2.55-4.53,2.55-2.89,0-5.19-2.29-5.19-5.19s2.31-5.19,5.19-5.19Z"/>
        <path class="cls-2" d="M58.2,22.8c1.27,0,2.5-.59,3.31-1.57.96-1.17.96-2.52.96-3.5v-5.14s-1.66,0-1.66,0v5.13c0,.89,0,1.74-.58,2.47-.49.6-1.24.96-2.02.96-.78,0-1.53-.36-2.02-.96-.59-.72-.58-1.58-.58-2.47v-5.13h-1.66s0,5.14,0,5.14c0,.98,0,2.32.96,3.5.8.99,2.04,1.57,3.31,1.57h0Z"/>
      </g>
    </g>
  </g>
</svg>