<?xml version="1.0" encoding="UTF-8"?>
<svg id="Capa_2" data-name="Capa 2" xmlns="http://www.w3.org/2000/svg" viewBox="0 0 109.2 58.85">
  <defs>
    <style>
      .cls-1 {
        fill: #003859;
      }

      .cls-2 {
        fill: #606060;
      }

      .cls-3 {
        fill: #009ddc;
      }
    </style>
  </defs>
  <g id="Capa_1-2" data-name="Capa 1">
    <g>
      <g>
        <g>
          <path class="cls-1" d="M2.8,26.56H.69v4.54h-.69v-9.97h2.77c1.89,0,3.2.95,3.2,2.73s-1.28,2.7-3.17,2.7ZM2.81,21.77H.69v4.18h2.12c1.46,0,2.46-.66,2.46-2.08s-1.01-2.09-2.46-2.09Z"/>
          <path class="cls-1" d="M16.73,31.19l-3.66-4.63s-.05,0-.07,0h-2.11v4.54h-.69v-9.97h2.77c1.89,0,3.2.95,3.2,2.73,0,1.55-.92,2.41-2.36,2.64l3.54,4.4-.62.29ZM10.89,25.94h2.12c1.46,0,2.46-.66,2.46-2.08s-1.01-2.09-2.46-2.09h-2.12v4.18Z"/>
          <path class="cls-1" d="M25.02,31.22c-3.2,0-5.39-2.29-5.39-5.1s2.19-5.11,5.39-5.11,5.42,2.28,5.42,5.12-2.19,5.09-5.42,5.09ZM25.02,21.64c-2.73,0-4.68,2.01-4.68,4.49s1.96,4.47,4.68,4.47,4.71-2.01,4.71-4.46-1.96-4.49-4.71-4.49Z"/>
          <path class="cls-1" d="M38.79,31.22c-3.05,0-5.36-2.21-5.36-5.12s2.33-5.09,5.36-5.09c1.65,0,3.19.71,4.43,2.05l-.51.39c-1.13-1.21-2.44-1.82-3.91-1.82-2.64,0-4.67,1.94-4.67,4.46s2.03,4.49,4.67,4.49c1.54,0,2.74-.56,3.97-1.83l.5.4c-1.38,1.42-2.77,2.06-4.48,2.06Z"/>
          <path class="cls-1" d="M54.38,28.54h-6.49s-1.32,2.63-1.32,2.63l-.71-.21,5.28-10.19,5.22,10.19-.67.19-1.31-2.62ZM48.21,27.94h5.84s-2.9-5.83-2.9-5.83l-2.94,5.83Z"/>
          <path class="cls-1" d="M59.9,21.13h.69v9.33s4.69,0,4.69,0v.64h-5.38v-9.97Z"/>
          <path class="cls-1" d="M69.09,21.13h.69v9.97h-.69v-9.97Z"/>
          <path class="cls-1" d="M78.08,31.1h-3.42v-9.97h3.42c3.65,0,5.59,2.17,5.59,5s-1.95,4.97-5.59,4.97ZM78.07,21.76h-2.72v8.72h2.72c3.26,0,4.91-1.92,4.91-4.35s-1.66-4.37-4.91-4.37Z"/>
          <path class="cls-1" d="M94.68,28.54h-6.49s-1.32,2.63-1.32,2.63l-.71-.21,5.28-10.19,5.22,10.19-.67.19-1.31-2.62ZM88.51,27.94h5.84s-2.9-5.83-2.9-5.83l-2.94,5.83Z"/>
          <path class="cls-1" d="M103.61,31.1h-3.42v-9.97h3.42c3.65,0,5.59,2.17,5.59,5s-1.95,4.97-5.59,4.97ZM103.61,21.76h-2.72v8.72h2.72c3.26,0,4.91-1.92,4.91-4.35s-1.66-4.37-4.91-4.37Z"/>
        </g>
        <g>
          <path class="cls-1" d="M.04,33.24h.27v2.53H.04v-2.53Z"/>
          <path class="cls-1" d="M2.31,34.16l-.16-.4h-.01l.04.4v1.61h-.26v-2.57h.16l.94,1.64.15.38h.01l-.04-.38v-1.6h.26v2.57h-.17l-.93-1.65Z"/>
          <path class="cls-1" d="M4.95,33.24s.08-.01.13-.02c.05,0,.09,0,.14,0,.05,0,.1,0,.14,0s.09,0,.13,0c.18,0,.33.03.45.09.12.06.22.15.3.26s.13.25.17.4c.03.16.05.33.05.52,0,.17-.02.34-.05.5s-.09.3-.16.42c-.08.12-.18.22-.31.29-.13.07-.29.11-.48.11-.03,0-.07,0-.12,0-.05,0-.1,0-.15,0-.05,0-.1,0-.14,0-.04,0-.08,0-.1-.01v-2.54ZM5.51,33.46h-.08s-.06,0-.08,0-.05,0-.07,0c-.02,0-.04,0-.06,0v2.06s.03,0,.05,0,.05,0,.08,0,.05,0,.08,0c.03,0,.04,0,.06,0,.13,0,.24-.03.33-.09.09-.06.16-.14.21-.23.05-.1.09-.21.11-.34.02-.13.03-.27.03-.41,0-.13-.01-.25-.03-.38-.02-.12-.05-.23-.1-.33-.05-.1-.12-.17-.2-.23-.09-.06-.2-.09-.33-.09Z"/>
          <path class="cls-1" d="M7.99,33.24h.27v2.53h-.27v-2.53Z"/>
          <path class="cls-1" d="M11.19,35.67c-.06.05-.14.09-.23.11-.09.02-.19.03-.29.03-.13,0-.25-.02-.35-.07s-.2-.12-.28-.23c-.08-.1-.14-.24-.18-.41-.04-.17-.07-.37-.07-.6s.02-.45.07-.61c.05-.17.12-.3.2-.41.08-.1.18-.18.28-.22s.22-.07.33-.07.21,0,.29.03c.08.02.14.04.2.06l-.07.25s-.11-.05-.17-.06c-.07-.01-.14-.02-.22-.02s-.16.02-.24.06c-.08.04-.14.1-.2.18-.06.08-.1.19-.14.33-.03.14-.05.3-.05.5,0,.35.06.62.18.79.12.18.28.27.48.27.08,0,.16-.01.22-.03.07-.02.12-.05.17-.08l.07.22Z"/>
          <path class="cls-1" d="M12.61,33.24h1.13v.25h-.85v.86h.79v.25h-.79v.93h.87v.25h-1.14v-2.53Z"/>
          <path class="cls-1" d="M17.56,34.16l-.16-.4h-.01l.04.4v1.61h-.26v-2.57h.16l.94,1.64.15.38h.01l-.04-.38v-1.6h.26v2.57h-.17l-.93-1.65Z"/>
          <path class="cls-1" d="M21.18,35.06h-.71l-.2.71h-.27l.76-2.57h.15l.76,2.57h-.29l-.21-.71ZM20.53,34.83h.58l-.22-.79-.07-.38h0l-.07.39-.21.78Z"/>
          <path class="cls-1" d="M24.25,35.67c-.06.05-.14.09-.23.11-.09.02-.19.03-.29.03-.13,0-.25-.02-.35-.07s-.2-.12-.28-.23c-.08-.1-.14-.24-.18-.41s-.07-.37-.07-.6.02-.45.07-.61c.05-.17.12-.3.2-.41.08-.1.18-.18.28-.22s.22-.07.33-.07.21,0,.29.03c.08.02.14.04.2.06l-.07.25s-.11-.05-.17-.06c-.07-.01-.14-.02-.22-.02s-.16.02-.24.06c-.08.04-.14.1-.2.18-.06.08-.1.19-.14.33-.03.14-.05.3-.05.5,0,.35.06.62.18.79.12.18.28.27.48.27.08,0,.16-.01.22-.03.07-.02.12-.05.17-.08l.07.22Z"/>
          <path class="cls-1" d="M25.72,33.24h.27v2.53h-.27v-2.53Z"/>
          <path class="cls-1" d="M27.52,34.5c0-.43.07-.75.21-.98.14-.22.35-.33.63-.33.15,0,.28.03.39.09.11.06.19.15.26.26.07.11.12.25.15.41.03.16.05.34.05.54,0,.43-.07.76-.21.98-.14.22-.35.33-.63.33-.15,0-.28-.03-.38-.09-.11-.06-.19-.15-.26-.26-.07-.11-.12-.25-.15-.41-.03-.16-.05-.34-.05-.54ZM27.81,34.5c0,.14.01.28.03.41.02.13.05.24.1.34.04.1.1.17.17.23s.15.09.25.09c.18,0,.32-.09.41-.26s.14-.44.14-.8c0-.14-.01-.27-.03-.4-.02-.13-.05-.24-.1-.34-.04-.1-.1-.18-.17-.23-.07-.06-.16-.09-.26-.09-.18,0-.32.09-.41.26s-.14.44-.14.8Z"/>
          <path class="cls-1" d="M31.06,34.16l-.16-.4h-.01l.04.4v1.61h-.26v-2.57h.16l.94,1.64.15.38h.01l-.04-.38v-1.6h.26v2.57h-.17l-.93-1.65Z"/>
          <path class="cls-1" d="M34.68,35.06h-.71l-.2.71h-.27l.76-2.57h.15l.76,2.57h-.29l-.21-.71ZM34.03,34.83h.58l-.22-.79-.07-.38h0l-.07.39-.21.78Z"/>
          <path class="cls-1" d="M37.72,35.77h-1.22v-2.53h.27v2.28h.95v.25Z"/>
          <path class="cls-1" d="M40.89,33.24s.08-.01.13-.02c.05,0,.09,0,.14,0,.05,0,.1,0,.14,0,.05,0,.09,0,.13,0,.18,0,.33.03.45.09.12.06.22.15.3.26.08.11.13.25.17.4.03.16.05.33.05.52,0,.17-.02.34-.05.5-.03.16-.09.3-.16.42-.08.12-.18.22-.31.29s-.29.11-.48.11c-.03,0-.07,0-.12,0s-.1,0-.15,0c-.05,0-.1,0-.14,0-.04,0-.08,0-.1-.01v-2.54ZM41.45,33.46h-.08s-.05,0-.08,0-.05,0-.07,0c-.02,0-.04,0-.06,0v2.06s.03,0,.05,0c.03,0,.05,0,.08,0s.05,0,.08,0c.03,0,.04,0,.06,0,.13,0,.24-.03.33-.09.09-.06.16-.14.21-.23.05-.1.09-.21.11-.34.02-.13.03-.27.03-.41,0-.13,0-.25-.03-.38-.02-.12-.05-.23-.1-.33-.05-.1-.12-.17-.2-.23-.09-.06-.2-.09-.33-.09Z"/>
          <path class="cls-1" d="M43.87,33.24h1.13v.25h-.85v.86h.79v.25h-.79v.93h.87v.25h-1.14v-2.53Z"/>
          <path class="cls-1" d="M48.35,35.43s.11.06.19.09.18.04.28.04c.14,0,.24-.03.33-.1s.13-.17.13-.31c0-.09-.02-.18-.07-.25-.05-.07-.11-.13-.18-.19-.07-.06-.15-.12-.23-.17-.08-.06-.16-.12-.23-.19-.07-.07-.13-.15-.18-.24-.05-.09-.07-.2-.07-.32,0-.2.06-.35.18-.45.12-.1.28-.15.48-.15.12,0,.23.01.32.03.09.02.17.05.23.08l-.09.24s-.11-.05-.19-.07c-.08-.02-.17-.03-.28-.03-.13,0-.23.03-.29.1-.06.06-.09.14-.09.24,0,.08.02.16.07.22.05.07.11.13.18.18.07.06.15.12.23.18.08.06.16.13.23.2.07.07.13.15.18.25.05.09.07.2.07.33,0,.21-.06.38-.19.5s-.3.18-.53.18c-.14,0-.26-.01-.36-.04-.09-.03-.17-.06-.22-.09l.09-.25Z"/>
          <path class="cls-1" d="M51.97,35.06h-.71l-.2.71h-.27l.76-2.57h.15l.76,2.57h-.29l-.21-.71ZM51.33,34.83h.58l-.22-.79-.07-.38h0l-.07.39-.21.78Z"/>
          <path class="cls-1" d="M54.93,33.49h-.62v2.28h-.27v-2.28h-.62v-.25h1.52v.25Z"/>
          <path class="cls-1" d="M56.36,33.24h.27v2.53h-.27v-2.53Z"/>
          <path class="cls-1" d="M58.21,35.43s.11.06.19.09.18.04.28.04c.13,0,.24-.03.33-.1.08-.07.13-.17.13-.31,0-.09-.02-.18-.07-.25-.05-.07-.11-.13-.18-.19-.07-.06-.15-.12-.23-.17-.08-.06-.16-.12-.23-.19-.07-.07-.13-.15-.18-.24-.05-.09-.07-.2-.07-.32,0-.2.06-.35.18-.45.12-.1.28-.15.48-.15.12,0,.23.01.32.03.09.02.17.05.23.08l-.09.24s-.11-.05-.19-.07c-.08-.02-.17-.03-.28-.03-.13,0-.23.03-.29.1s-.09.14-.09.24c0,.08.02.16.07.22.05.07.11.13.18.18.07.06.15.12.23.18.08.06.16.13.23.2.07.07.13.15.18.25.05.09.07.2.07.33,0,.21-.06.38-.19.5-.13.12-.3.18-.53.18-.14,0-.26-.01-.36-.04-.09-.03-.17-.06-.22-.09l.09-.25Z"/>
          <path class="cls-1" d="M60.87,33.24h1.13v.25h-.85v.89h.8v.25h-.8v1.14h-.27v-2.53Z"/>
          <path class="cls-1" d="M64.42,35.06h-.71l-.2.71h-.27l.76-2.57h.15l.76,2.57h-.29l-.21-.71ZM63.78,34.83h.58l-.22-.79-.07-.38h0l-.07.39-.21.78Z"/>
          <path class="cls-1" d="M67.49,35.67c-.06.05-.14.09-.23.11-.09.02-.19.03-.29.03-.13,0-.25-.02-.35-.07s-.2-.12-.28-.23c-.08-.1-.14-.24-.18-.41s-.07-.37-.07-.6.02-.45.07-.61c.05-.17.12-.3.2-.41s.18-.18.28-.22c.11-.05.22-.07.33-.07s.21,0,.29.03c.08.02.14.04.2.06l-.07.25s-.1-.05-.17-.06c-.07-.01-.14-.02-.22-.02s-.16.02-.24.06-.14.1-.2.18c-.06.08-.1.19-.14.33s-.05.3-.05.5c0,.35.06.62.18.79.12.18.28.27.48.27.08,0,.16-.01.22-.03.07-.02.12-.05.17-.08l.07.22Z"/>
          <path class="cls-1" d="M70.16,35.67c-.06.05-.14.09-.23.11-.09.02-.19.03-.29.03-.13,0-.25-.02-.35-.07s-.2-.12-.28-.23c-.08-.1-.14-.24-.18-.41s-.07-.37-.07-.6.02-.45.07-.61c.05-.17.12-.3.2-.41s.18-.18.28-.22c.11-.05.22-.07.33-.07s.21,0,.29.03c.08.02.14.04.2.06l-.07.25s-.1-.05-.17-.06c-.07-.01-.14-.02-.22-.02s-.16.02-.24.06-.14.1-.2.18c-.06.08-.1.19-.14.33s-.05.3-.05.5c0,.35.06.62.18.79.12.18.28.27.48.27.08,0,.16-.01.22-.03.07-.02.12-.05.17-.08l.07.22Z"/>
          <path class="cls-1" d="M71.63,33.24h.27v2.53h-.27v-2.53Z"/>
          <path class="cls-1" d="M73.43,34.5c0-.43.07-.75.21-.98.14-.22.35-.33.63-.33.15,0,.28.03.39.09.11.06.19.15.26.26.07.11.12.25.15.41.03.16.05.34.05.54,0,.43-.07.76-.21.98-.14.22-.35.33-.63.33-.15,0-.28-.03-.38-.09-.11-.06-.19-.15-.26-.26s-.12-.25-.15-.41c-.03-.16-.05-.34-.05-.54ZM73.71,34.5c0,.14.01.28.03.41s.05.24.1.34c.04.1.1.17.17.23s.15.09.25.09c.18,0,.32-.09.41-.26s.14-.44.14-.8c0-.14-.01-.27-.03-.4-.02-.13-.05-.24-.1-.34-.04-.1-.1-.18-.17-.23-.07-.06-.16-.09-.26-.09-.18,0-.32.09-.41.26s-.14.44-.14.8Z"/>
          <path class="cls-1" d="M76.96,34.16l-.16-.4h-.01l.04.4v1.61h-.26v-2.57h.16l.94,1.64.15.38h.01l-.04-.38v-1.6h.26v2.57h-.17l-.93-1.65Z"/>
          <path class="cls-1" d="M81.68,33.24s.08-.01.13-.02c.05,0,.09,0,.14,0,.05,0,.1,0,.14,0s.09,0,.13,0c.18,0,.33.03.45.09.12.06.22.15.3.26.08.11.13.25.17.4.03.16.05.33.05.52,0,.17-.02.34-.05.5-.03.16-.09.3-.16.42-.08.12-.18.22-.31.29s-.29.11-.48.11c-.03,0-.07,0-.12,0s-.1,0-.15,0-.1,0-.14,0c-.04,0-.08,0-.1-.01v-2.54ZM82.24,33.46h-.08s-.06,0-.08,0-.05,0-.07,0c-.02,0-.04,0-.06,0v2.06s.03,0,.05,0c.03,0,.05,0,.08,0s.05,0,.08,0c.03,0,.04,0,.06,0,.13,0,.24-.03.33-.09.09-.06.16-.14.21-.23.05-.1.09-.21.11-.34.02-.13.03-.27.03-.41,0-.13,0-.25-.03-.38-.02-.12-.05-.23-.1-.33-.05-.1-.12-.17-.2-.23-.09-.06-.2-.09-.33-.09Z"/>
          <path class="cls-1" d="M84.67,33.24h1.13v.25h-.85v.86h.79v.25h-.79v.93h.87v.25h-1.14v-2.53Z"/>
          <path class="cls-1" d="M90.63,35.67c-.06.05-.14.09-.23.11-.09.02-.19.03-.29.03-.13,0-.25-.02-.35-.07s-.2-.12-.28-.23c-.08-.1-.14-.24-.18-.41s-.07-.37-.07-.6.02-.45.07-.61c.05-.17.12-.3.2-.41s.18-.18.28-.22c.11-.05.22-.07.33-.07s.21,0,.29.03c.08.02.14.04.2.06l-.07.25s-.1-.05-.17-.06c-.07-.01-.14-.02-.22-.02s-.16.02-.24.06-.14.1-.2.18c-.06.08-.1.19-.14.33s-.05.3-.05.5c0,.35.06.62.18.79.12.18.28.27.48.27.08,0,.16-.01.22-.03.07-.02.12-.05.17-.08l.07.22Z"/>
          <path class="cls-1" d="M93.26,35.77h-1.22v-2.53h.27v2.28h.95v.25Z"/>
          <path class="cls-1" d="M94.69,33.24h.27v2.53h-.27v-2.53Z"/>
          <path class="cls-1" d="M96.56,33.24h1.13v.25h-.85v.86h.79v.25h-.79v.93h.87v.25h-1.14v-2.53Z"/>
          <path class="cls-1" d="M99.59,34.16l-.16-.4h-.01l.04.4v1.61h-.26v-2.57h.16l.94,1.64.15.38h.01l-.04-.38v-1.6h.26v2.57h-.17l-.93-1.65Z"/>
          <path class="cls-1" d="M103.57,33.49h-.62v2.28h-.27v-2.28h-.62v-.25h1.52v.25Z"/>
          <path class="cls-1" d="M104.94,33.24h1.13v.25h-.85v.86h.79v.25h-.79v.93h.87v.25h-1.14v-2.53Z"/>
          <path class="cls-1" d="M107.56,35.43s.11.06.19.09.18.04.28.04c.13,0,.24-.03.33-.1.08-.07.13-.17.13-.31,0-.09-.02-.18-.07-.25-.05-.07-.11-.13-.18-.19-.07-.06-.15-.12-.23-.17-.08-.06-.16-.12-.23-.19-.07-.07-.13-.15-.18-.24-.05-.09-.07-.2-.07-.32,0-.2.06-.35.18-.45.12-.1.28-.15.48-.15.12,0,.23.01.32.03.09.02.17.05.23.08l-.09.24s-.11-.05-.19-.07c-.08-.02-.17-.03-.28-.03-.13,0-.23.03-.29.1s-.09.14-.09.24c0,.08.02.16.07.22.05.07.11.13.18.18.07.06.15.12.23.18.08.06.16.13.23.2.07.07.13.15.18.25.05.09.07.2.07.33,0,.21-.06.38-.19.5-.13.12-.3.18-.53.18-.14,0-.26-.01-.36-.04-.09-.03-.17-.06-.22-.09l.09-.25Z"/>
        </g>
        <path class="cls-3" d="M38.68,2.51c-.94,0-1.7.76-1.7,1.7,0,.1.01.2.03.29l-10.18,2.55c-.13-.37-.39-.68-.72-.88l2.24-4.49c.08.02.16.04.24.04.47,0,.85-.38.85-.85s-.38-.85-.85-.85-.85.38-.85.85c0,.28.14.53.35.68l-2.23,4.49c-.19-.07-.4-.12-.61-.12-.41,0-.79.15-1.08.4l-1.61-1.6c.1-.14.17-.31.17-.5,0-.47-.38-.85-.85-.85s-.85.38-.85.85.38.85.85.85c.18,0,.34-.05.47-.14l1.61,1.61c-.1.12-.19.26-.26.4l-6.13-2.04c.06-.22.09-.44.09-.68,0-1.39-1.13-2.52-2.52-2.52s-2.52,1.13-2.52,2.52,1.13,2.52,2.52,2.52c1.05,0,1.96-.65,2.33-1.57l6.13,2.04c-.03.13-.05.26-.05.41,0,.22.04.42.12.61l-11.19,5.6c-.16-.21-.4-.35-.68-.35s-.53.14-.69.35l-2.95-1.49c.19-.42.3-.89.3-1.38,0-1.86-1.51-3.36-3.36-3.36-.49,0-.95.11-1.37.29l-1.11-2.22c.48-.3.81-.83.81-1.44,0-.94-.76-1.7-1.7-1.7S.01,3.29.01,4.23s.76,1.7,1.7,1.7c.22,0,.43-.05.62-.12l1.11,2.21c-1.03.57-1.73,1.67-1.73,2.94,0,1.86,1.51,3.36,3.36,3.36,1.26,0,2.36-.69,2.93-1.72l2.95,1.49c-.02.07-.04.15-.04.23,0,.47.38.85.85.85s.85-.38.85-.85c0-.08-.02-.16-.04-.24l11.2-5.6c.14.23.33.42.56.56l-1.85,3.7c-.19-.08-.4-.12-.62-.12-.94,0-1.7.76-1.7,1.7s.76,1.7,1.7,1.7,1.7-.76,1.7-1.7c0-.61-.33-1.14-.81-1.44l1.85-3.7c.19.08.41.12.63.12.3,0,.57-.08.82-.22l4.39,6.59c-.61.46-1,1.19-1,2.01,0,1.39,1.13,2.52,2.52,2.52s2.52-1.13,2.52-2.52-1.13-2.52-2.52-2.52c-.46,0-.9.13-1.27.35l-4.39-6.59c.38-.31.63-.78.63-1.31,0-.1-.01-.19-.03-.28l10.19-2.55c.24.65.86,1.12,1.59,1.12.94,0,1.7-.76,1.7-1.7s-.76-1.7-1.7-1.7Z"/>
      </g>
      <g>
        <path class="cls-2" d="M7.63,49.18h-1.21v-3.85s.03-.59.03-.59c-.2.2-.34.33-.42.39l-.66.53-.58-.73,1.84-1.46h.99v5.71Z"/>
        <path class="cls-2" d="M9.25,44.73c0-.24.06-.46.18-.67s.28-.37.49-.5.43-.18.68-.18.46.06.67.18.38.29.5.5.18.44.18.68-.06.47-.18.68-.29.37-.49.49-.43.18-.68.18c-.38,0-.7-.13-.96-.39s-.39-.58-.39-.96ZM9.99,44.73c0,.17.06.31.17.43s.26.18.43.18.32-.06.43-.18.18-.26.18-.42-.06-.31-.18-.43-.26-.18-.43-.18-.31.06-.43.18-.18.26-.18.43Z"/>
        <path class="cls-2" d="M15.11,49.18v-5.71h1.21v4.71h2.32v1h-3.53Z"/>
        <path class="cls-2" d="M22.63,49.18l-.16-.56h-.06c-.13.2-.31.36-.54.47s-.5.17-.8.17c-.51,0-.9-.14-1.16-.41s-.39-.67-.39-1.19v-2.85h1.19v2.55c0,.32.06.55.17.71s.29.24.54.24c.33,0,.57-.11.72-.33s.22-.59.22-1.11v-2.05h1.19v4.37h-.91Z"/>
        <path class="cls-2" d="M28.59,44.81v.61l-.68.18c.12.2.19.41.19.66,0,.47-.16.83-.49,1.1s-.78.39-1.36.39h-.21s-.18-.03-.18-.03c-.12.09-.18.2-.18.31,0,.17.22.26.66.26h.74c.48,0,.84.1,1.1.31s.38.51.38.91c0,.51-.21.91-.64,1.19s-1.04.42-1.83.42c-.61,0-1.08-.11-1.4-.32s-.48-.51-.48-.89c0-.26.08-.48.25-.66s.41-.3.72-.38c-.12-.05-.23-.14-.32-.26s-.14-.24-.14-.38c0-.17.05-.31.14-.42s.24-.22.42-.33c-.23-.1-.41-.26-.54-.48s-.2-.48-.2-.77c0-.48.16-.84.46-1.11s.75-.39,1.33-.39c.12,0,.27.01.44.03s.28.04.32.05h1.52ZM25.22,49.79c0,.16.08.29.24.39s.38.14.66.14c.43,0,.76-.06,1-.18s.36-.28.36-.48c0-.16-.07-.28-.21-.34s-.36-.09-.66-.09h-.62c-.22,0-.4.05-.55.15s-.22.24-.22.41ZM25.66,46.24c0,.24.05.42.16.56s.27.21.49.21.39-.07.49-.21.16-.33.16-.56c0-.53-.22-.79-.65-.79s-.66.26-.66.79Z"/>
        <path class="cls-2" d="M32.09,49.18l-.23-.59h-.03c-.2.25-.41.43-.62.53s-.49.15-.83.15c-.42,0-.75-.12-.99-.36s-.36-.58-.36-1.02.16-.81.49-1.03.81-.34,1.47-.37l.76-.02v-.19c0-.44-.23-.66-.68-.66-.35,0-.76.11-1.23.32l-.39-.8c.5-.26,1.06-.39,1.67-.39s1.04.13,1.35.38.47.64.47,1.16v2.91h-.83ZM31.74,47.15l-.46.02c-.35.01-.6.07-.77.19s-.25.29-.25.52c0,.34.19.5.58.5.28,0,.5-.08.66-.24s.25-.37.25-.63v-.36Z"/>
        <path class="cls-2" d="M36.58,44.73c.16,0,.3.01.4.04l-.09,1.12c-.1-.03-.21-.04-.35-.04-.38,0-.68.1-.89.29s-.32.47-.32.82v2.22h-1.19v-4.37h.9l.18.73h.06c.14-.25.32-.44.55-.59s.48-.22.75-.22Z"/>
        <path class="cls-2" d="M41.63,49.25c-1.36,0-2.04-.75-2.04-2.24,0-.74.18-1.31.55-1.7s.9-.59,1.59-.59c.5,0,.96.1,1.36.3l-.35.92c-.19-.08-.36-.14-.52-.19s-.32-.07-.48-.07c-.62,0-.93.44-.93,1.32s.31,1.28.93,1.28c.23,0,.44-.03.64-.09s.39-.16.59-.29v1.02c-.19.12-.39.21-.58.25s-.44.07-.74.07Z"/>
        <path class="cls-2" d="M45.95,49.25c-.7,0-1.25-.19-1.65-.58s-.59-.94-.59-1.65.18-1.3.55-1.7.87-.6,1.52-.6,1.1.18,1.44.53.52.84.52,1.46v.58h-2.82c.01.34.11.6.3.79s.45.29.79.29c.26,0,.51-.03.75-.08s.48-.14.73-.26v.92c-.21.1-.43.18-.67.23s-.53.08-.87.08ZM45.78,45.57c-.25,0-.45.08-.59.24s-.23.39-.25.68h1.67c0-.29-.08-.52-.23-.68s-.35-.24-.6-.24Z"/>
        <path class="cls-2" d="M52.73,49.18h-1.19v-2.55c0-.32-.06-.55-.17-.71s-.29-.24-.54-.24c-.33,0-.57.11-.72.33s-.22.59-.22,1.11v2.05h-1.19v-4.37h.91l.16.56h.07c.13-.21.32-.37.55-.48s.5-.16.79-.16c.51,0,.89.14,1.16.41s.39.67.39,1.19v2.85Z"/>
        <path class="cls-2" d="M55.79,48.3c.21,0,.46-.05.75-.14v.89c-.3.13-.66.2-1.09.2-.48,0-.82-.12-1.04-.36s-.33-.6-.33-1.08v-2.11h-.57v-.5l.66-.4.34-.92h.76v.93h1.22v.89h-1.22v2.11c0,.17.05.29.14.38s.22.12.38.12Z"/>
        <path class="cls-2" d="M59.86,44.73c.16,0,.3.01.4.04l-.09,1.12c-.1-.03-.21-.04-.35-.04-.38,0-.68.1-.89.29s-.32.47-.32.82v2.22h-1.19v-4.37h.9l.18.73h.06c.14-.25.32-.44.55-.59s.48-.22.75-.22Z"/>
        <path class="cls-2" d="M65.03,46.98c0,.71-.19,1.27-.56,1.67s-.9.6-1.57.6c-.42,0-.79-.09-1.11-.28s-.57-.45-.74-.79-.26-.75-.26-1.2c0-.71.19-1.27.56-1.66s.9-.59,1.57-.59c.42,0,.79.09,1.11.27s.57.44.74.79.26.74.26,1.2ZM62.01,46.98c0,.43.07.76.21.98s.37.33.69.33.55-.11.69-.33.21-.55.21-.98-.07-.76-.21-.97-.37-.32-.69-.32-.55.11-.69.32-.21.54-.21.97Z"/>
        <path class="cls-2" d="M69.06,47.88c0,.45-.16.79-.47,1.02s-.78.35-1.4.35c-.32,0-.59-.02-.81-.06s-.43-.11-.63-.19v-.98c.22.1.47.19.75.26s.52.11.73.11c.43,0,.65-.12.65-.38,0-.09-.03-.17-.09-.23s-.16-.12-.3-.2-.33-.16-.56-.26c-.34-.14-.58-.27-.74-.39s-.27-.26-.34-.41-.11-.35-.11-.57c0-.39.15-.69.45-.9s.73-.32,1.28-.32,1.04.11,1.54.34l-.36.86c-.22-.09-.42-.17-.61-.23s-.38-.09-.58-.09c-.35,0-.53.09-.53.29,0,.11.06.2.17.28s.36.19.74.35c.34.14.59.27.75.39s.28.26.35.41.11.34.11.56Z"/>
        <path class="cls-2" d="M73.45,49.25c-.51,0-.92-.2-1.21-.6s-.44-.95-.44-1.66.15-1.27.45-1.67.71-.6,1.23-.6c.55,0,.97.21,1.26.64h.04c-.06-.33-.09-.62-.09-.87v-1.4h1.2v6.08h-.91l-.23-.57h-.05c-.27.43-.68.64-1.24.64ZM73.87,48.3c.3,0,.53-.09.67-.27s.22-.48.23-.9v-.13c0-.47-.07-.8-.22-1.01s-.38-.3-.71-.3c-.27,0-.47.11-.62.34s-.22.55-.22.98.07.75.22.97.36.32.64.32Z"/>
        <path class="cls-2" d="M79.11,49.25c-.7,0-1.25-.19-1.65-.58s-.59-.94-.59-1.65.18-1.3.55-1.7.87-.6,1.52-.6,1.1.18,1.44.53.52.84.52,1.46v.58h-2.82c.01.34.11.6.3.79s.45.29.79.29c.26,0,.51-.03.75-.08s.48-.14.73-.26v.92c-.21.1-.43.18-.67.23s-.53.08-.87.08ZM78.94,45.57c-.25,0-.45.08-.59.24s-.23.39-.25.68h1.67c0-.29-.08-.52-.23-.68s-.35-.24-.6-.24Z"/>
        <path class="cls-2" d="M86.98,47.88c0,.45-.16.79-.47,1.02s-.78.35-1.4.35c-.32,0-.59-.02-.81-.06s-.43-.11-.63-.19v-.98c.22.1.47.19.75.26s.52.11.73.11c.43,0,.65-.12.65-.38,0-.09-.03-.17-.09-.23s-.16-.12-.3-.2-.33-.16-.56-.26c-.34-.14-.58-.27-.74-.39s-.27-.26-.34-.41-.11-.35-.11-.57c0-.39.15-.69.45-.9s.73-.32,1.28-.32,1.04.11,1.54.34l-.36.86c-.22-.09-.42-.17-.61-.23s-.38-.09-.58-.09c-.35,0-.53.09-.53.29,0,.11.06.2.17.28s.36.19.74.35c.34.14.59.27.75.39s.28.26.35.41.11.34.11.56Z"/>
        <path class="cls-2" d="M90.68,49.18l-.23-.59h-.03c-.2.25-.41.43-.62.53s-.49.15-.83.15c-.42,0-.75-.12-.99-.36s-.36-.58-.36-1.02.16-.81.49-1.03.81-.34,1.47-.37l.76-.02v-.19c0-.44-.23-.66-.68-.66-.35,0-.76.11-1.23.32l-.39-.8c.5-.26,1.06-.39,1.67-.39s1.04.13,1.35.38.47.64.47,1.16v2.91h-.83ZM90.33,47.15l-.46.02c-.35.01-.6.07-.77.19s-.25.29-.25.52c0,.34.19.5.58.5.28,0,.5-.08.66-.24s.25-.37.25-.63v-.36Z"/>
        <path class="cls-2" d="M93.93,49.18h-1.19v-6.08h1.19v6.08Z"/>
        <path class="cls-2" d="M98.28,49.18l-.16-.56h-.06c-.13.2-.31.36-.54.47s-.5.17-.8.17c-.51,0-.9-.14-1.16-.41s-.39-.67-.39-1.19v-2.85h1.19v2.55c0,.32.06.55.17.71s.29.24.54.24c.33,0,.57-.11.72-.33s.22-.59.22-1.11v-2.05h1.19v4.37h-.91Z"/>
        <path class="cls-2" d="M101.83,49.25c-.51,0-.92-.2-1.21-.6s-.44-.95-.44-1.66.15-1.27.45-1.67.71-.6,1.23-.6c.55,0,.97.21,1.26.64h.04c-.06-.33-.09-.62-.09-.87v-1.4h1.2v6.08h-.91l-.23-.57h-.05c-.27.43-.68.64-1.24.64ZM102.24,48.3c.3,0,.53-.09.67-.27s.22-.48.23-.9v-.13c0-.47-.07-.8-.22-1.01s-.38-.3-.71-.3c-.27,0-.47.11-.62.34s-.22.55-.22.98.07.75.22.97.36.32.64.32Z"/>
        <path class="cls-2" d="M49.78,58.77h-3.99v-.84l1.43-1.45c.42-.43.7-.74.83-.9s.22-.32.28-.47.09-.29.09-.45c0-.23-.06-.4-.19-.51s-.29-.17-.51-.17c-.22,0-.44.05-.64.15s-.43.25-.65.43l-.66-.78c.28-.24.51-.41.7-.51s.39-.17.61-.23.46-.08.73-.08c.36,0,.67.07.95.2s.49.31.64.55.23.5.23.8c0,.26-.05.51-.14.74s-.24.47-.43.71-.54.59-1.03,1.04l-.73.69v.05h2.49v1.02Z"/>
        <path class="cls-2" d="M54.32,55.92c0,1-.16,1.74-.49,2.21s-.83.72-1.51.72-1.16-.25-1.49-.74-.5-1.23-.5-2.19.16-1.75.49-2.23.83-.72,1.5-.72,1.16.25,1.49.75.51,1.23.51,2.2ZM51.52,55.92c0,.7.06,1.2.18,1.51s.33.46.61.46.48-.15.61-.46.19-.81.19-1.5-.06-1.2-.19-1.51-.33-.46-.61-.46-.49.15-.61.46-.18.81-.18,1.51Z"/>
        <path class="cls-2" d="M58.91,58.77h-3.99v-.84l1.43-1.45c.42-.43.7-.74.83-.9s.22-.32.28-.47.09-.29.09-.45c0-.23-.06-.4-.19-.51s-.29-.17-.51-.17c-.22,0-.44.05-.64.15s-.43.25-.65.43l-.66-.78c.28-.24.51-.41.7-.51s.39-.17.61-.23.46-.08.73-.08c.36,0,.67.07.95.2s.49.31.64.55.23.5.23.8c0,.26-.05.51-.14.74s-.24.47-.43.71-.54.59-1.03,1.04l-.73.69v.05h2.49v1.02Z"/>
        <path class="cls-2" d="M62,55.05c.58,0,1.05.16,1.39.46.35.31.52.73.52,1.27,0,.64-.21,1.13-.62,1.47-.42.34-1.01.52-1.78.52-.67,0-1.21-.1-1.63-.31v-1.04c.22.11.47.2.76.27.29.07.56.1.82.1.78,0,1.17-.3,1.17-.91s-.4-.86-1.21-.86c-.15,0-.31.01-.48.04s-.32.06-.43.09l-.51-.26.23-2.91h3.27v1.02h-2.15l-.11,1.12.14-.03c.17-.04.38-.05.62-.05Z"/>
      </g>
    </g>
  </g>
</svg>