<?xml version="1.0" encoding="UTF-8"?>
<svg id="Capa_2" data-name="Capa 2" xmlns="http://www.w3.org/2000/svg" viewBox="0 0 109.98 60.53">
  <defs>
    <style>
      .cls-1 {
        fill: #72b9a4;
      }

      .cls-2 {
        fill: #9d9c9b;
      }

      .cls-3 {
        fill: #606060;
      }

      .cls-4 {
        fill: #717070;
      }

      .cls-5 {
        fill: #a3c855;
      }
    </style>
  </defs>
  <g id="Capa_1-2" data-name="Capa 1">
    <g>
      <g>
        <path class="cls-4" d="M21.12,34.39h.73c.54,0,.84.28.84.69s-.28.72-.87.72h-.54v.96h-.16v-2.37ZM21.84,35.66c.41,0,.69-.22.69-.58s-.31-.54-.69-.54h-.57v1.12h.57Z"/>
        <path class="cls-4" d="M24.39,34.39h.8c.5,0,.81.27.81.65,0,.34-.24.63-.67.68l.68,1.04h-.21l-.65-1.02h-.59v1.02h-.16v-2.37h0ZM25.18,35.59c.38,0,.66-.2.66-.54s-.3-.5-.65-.5h-.64v1.05h.63Z"/>
        <path class="cls-4" d="M28.65,34.39h.15l1.02,2.37h-.17l-.31-.67h-1.23l-.31.67h-.17s1.02-2.37,1.02-2.37ZM29.27,35.95l-.54-1.35-.54,1.35h1.1,0Z"/>
        <path class="cls-4" d="M32.3,35.6l-.82-1.21h.21l.7,1.06.7-1.06h.2l-.82,1.21.86,1.16h-.21l-.75-1.02-.75,1.02h-.2l.86-1.16h.02Z"/>
        <path class="cls-4" d="M35.09,34.39h.16v2.37h-.16v-2.37Z"/>
        <path class="cls-4" d="M37.02,36.52v-.23c.15.22.45.35.75.35.35,0,.6-.2.6-.47,0-.59-1.3-.44-1.3-1.2,0-.37.3-.61.7-.61.24,0,.46.07.66.22v.2c-.21-.17-.4-.27-.65-.27-.3,0-.55.16-.55.45,0,.61,1.3.45,1.3,1.21,0,.41-.35.64-.78.64-.31,0-.6-.12-.74-.28h0Z"/>
        <path class="cls-4" d="M43.3,35.6l-.82-1.21h.21l.7,1.06.7-1.06h.2l-.82,1.21.86,1.16h-.21l-.75-1.02-.75,1.02h-.2l.86-1.16h.02Z"/>
        <path class="cls-4" d="M46.02,34.39h.73c.54,0,.84.28.84.69s-.28.72-.87.72h-.54v.96h-.16v-2.37ZM46.75,35.66c.41,0,.69-.22.69-.58s-.31-.54-.69-.54h-.56v1.12h.56Z"/>
        <path class="cls-4" d="M49.3,34.39h1.53v.15h-1.37v.92h1.14v.15h-1.14v.99h1.42v.15h-1.58v-2.37h0Z"/>
        <path class="cls-4" d="M52.57,34.39h.8c.5,0,.81.27.81.65,0,.34-.24.63-.67.68l.68,1.04h-.21l-.65-1.02h-.59v1.02h-.16v-2.37h0ZM53.36,35.59c.38,0,.66-.2.66-.54s-.3-.5-.65-.5h-.64v1.05h.63Z"/>
        <path class="cls-4" d="M56.02,34.39h.16v2.37h-.16v-2.37Z"/>
        <path class="cls-4" d="M58.08,34.39h1.53v.15h-1.37v.92h1.14v.15h-1.14v.99h1.42v.15h-1.58v-2.37h0Z"/>
        <path class="cls-4" d="M63.2,34.39v2.37h-.2l-1.49-2.14v2.14h-.16v-2.37h.19l1.5,2.15v-2.15h.16Z"/>
        <path class="cls-4" d="M64.99,35.57c0-.64.45-1.21,1.19-1.21.21,0,.48.05.69.18v.18c-.13-.09-.35-.2-.67-.2-.67,0-1.04.5-1.04,1.06s.4,1.06,1.06,1.06c.25,0,.45-.07.64-.19v.17c-.21.13-.51.18-.7.18-.69,0-1.17-.57-1.17-1.24Z"/>
        <path class="cls-4" d="M68.64,34.39h1.53v.15h-1.37v.92h1.14v.15h-1.14v.99h1.42v.15h-1.58v-2.37h0Z"/>
        <path class="cls-4" d="M74.25,34.39h.16v2.37h-.16v-2.37Z"/>
        <path class="cls-4" d="M78.22,34.39v2.37h-.2l-1.49-2.14v2.14h-.16v-2.37h.19l1.5,2.15v-2.15s.16,0,.16,0Z"/>
        <path class="cls-4" d="M80.12,34.39h.63c.79,0,1.26.53,1.26,1.19s-.47,1.18-1.26,1.18h-.63v-2.37ZM80.74,36.61c.7,0,1.1-.46,1.1-1.03s-.4-1.04-1.1-1.04h-.47v2.07h.47Z"/>
        <path class="cls-4" d="M83.76,34.39h1.53v.15h-1.37v.92h1.14v.15h-1.14v.99h1.42v.15h-1.58v-2.37h0Z"/>
        <path class="cls-4" d="M87.69,35.6l-.82-1.21h.21l.7,1.06.7-1.06h.2l-.82,1.21.86,1.16h-.21l-.75-1.02-.75,1.02h-.2l.86-1.16h.02Z"/>
        <path class="cls-2" d="M22.29,32.07h-1.17V0h13.28c5.89.06,10.17,4.33,10.17,10.17s-4.37,10.17-10.17,10.17h-6.28v-1.17h6.28c5.13,0,9-3.87,9-9s-3.71-8.95-9-9h-12.1v30.9Z"/>
        <path class="cls-2" d="M24.62,32.07h-1.17V2.33h10.95c4.33,0,7.84,3.52,7.84,7.84s-3.52,7.84-7.84,7.84h-6.28v-1.17h6.28c3.68,0,6.67-3,6.67-6.67s-3-6.67-6.67-6.67h-9.78v28.57Z"/>
        <path class="cls-2" d="M26.95,32.07h-1.17V4.66h8.6c2.9,0,5.53,2.62,5.53,5.51s-2.63,5.52-5.53,5.52h-6.26v-1.17h6.26c2.25,0,4.36-2.11,4.36-4.35s-2.12-4.33-4.36-4.33h-7.43v26.25Z"/>
        <polygon class="cls-2" points="76.15 29.38 62.78 16.05 76.11 2.68 75.29 1.86 61.96 15.23 48.61 1.92 47.79 2.76 61.13 16.06 47.84 29.4 48.66 30.23 61.96 16.89 75.33 30.21 76.15 29.38"/>
        <polygon class="cls-2" points="73.64 .2 61.99 11.89 50.3 .24 49.47 1.07 61.99 13.54 74.46 1.02 73.64 .2"/>
        <polygon class="cls-1" points="59.47 16.04 46.95 3.57 46.13 4.4 57.81 16.04 46.16 27.72 46.99 28.55 59.47 16.04"/>
        <polygon class="cls-5" points="64.48 16.04 76.98 3.57 77.81 4.4 66.13 16.04 77.78 27.72 76.96 28.55 64.48 16.04"/>
        <polygon class="cls-2" points="74.51 31.03 61.97 18.53 49.5 31.07 50.33 31.89 61.96 20.16 73.69 31.86 74.51 31.03"/>
        <rect class="cls-2" x="82.84" y=".24" width="1.17" height="31.83"/>
        <rect class="cls-2" x="85.17" y=".24" width="1.17" height="31.83"/>
        <rect class="cls-2" x="87.5" y=".24" width="1.17" height="31.83"/>
      </g>
      <g>
        <path class="cls-3" d="M2.99,50.85h-1.28v-3.85s.03-.59.03-.59c-.21.2-.36.33-.44.39l-.69.53-.62-.73,1.94-1.46h1.05v5.71Z"/>
        <path class="cls-3" d="M7.36,46.5c0,.45-.13.79-.38,1.04-.25.25-.6.38-1.03.38s-.76-.13-1.01-.38c-.25-.26-.38-.6-.38-1.04s.12-.79.37-1.04.59-.38,1.04-.38c.42,0,.76.13,1.01.38.26.26.38.6.38,1.03ZM5.4,46.5c0,.26.04.46.13.59.09.13.23.2.43.2s.34-.07.43-.2c.09-.13.13-.33.13-.59s-.04-.46-.13-.58c-.09-.13-.23-.19-.43-.19s-.34.06-.43.19c-.09.13-.13.32-.13.58Z"/>
        <path class="cls-3" d="M10.56,50.85v-5.71h1.28v4.71h2.45v1h-3.73Z"/>
        <path class="cls-3" d="M18.5,50.85l-.17-.56h-.07c-.13.2-.33.36-.57.47-.25.11-.53.17-.85.17-.54,0-.95-.14-1.23-.41s-.41-.67-.41-1.19v-2.85h1.26v2.55c0,.32.06.55.18.71.12.16.31.24.56.24.35,0,.61-.11.76-.33.16-.22.24-.59.24-1.11v-2.05h1.26v4.37h-.96Z"/>
        <path class="cls-3" d="M24.8,46.49v.61l-.72.18c.13.2.2.41.2.66,0,.47-.17.83-.52,1.1-.34.26-.82.39-1.44.39h-.23s-.19-.03-.19-.03c-.13.09-.19.2-.19.31,0,.17.23.26.69.26h.78c.51,0,.89.1,1.16.31.26.21.4.51.4.91,0,.51-.22.91-.67,1.19-.45.28-1.1.42-1.94.42-.64,0-1.13-.11-1.47-.32s-.51-.51-.51-.89c0-.26.09-.48.26-.66.17-.18.43-.3.76-.38-.13-.05-.24-.14-.34-.26-.1-.12-.14-.24-.14-.38,0-.17.05-.31.15-.42s.25-.22.44-.33c-.24-.1-.43-.26-.58-.48s-.21-.48-.21-.77c0-.48.16-.84.49-1.11s.79-.39,1.4-.39c.13,0,.28.01.46.03s.29.04.34.05h1.61ZM21.24,51.47c0,.16.08.29.25.39s.4.14.7.14c.45,0,.8-.06,1.06-.18s.38-.28.38-.48c0-.16-.08-.28-.23-.34s-.38-.09-.7-.09h-.65c-.23,0-.42.05-.58.15s-.23.24-.23.41ZM21.69,47.92c0,.24.06.42.17.56s.29.21.52.21.41-.07.52-.21c.11-.14.17-.33.17-.56,0-.53-.23-.79-.68-.79s-.69.26-.69.79Z"/>
        <path class="cls-3" d="M28.48,50.85l-.24-.59h-.03c-.21.25-.43.43-.65.53-.22.1-.52.15-.88.15-.44,0-.79-.12-1.05-.36s-.38-.58-.38-1.02.17-.81.51-1.03c.34-.22.86-.34,1.55-.37l.8-.02v-.19c0-.44-.24-.66-.72-.66-.37,0-.8.11-1.3.32l-.42-.8c.53-.26,1.12-.39,1.77-.39s1.09.13,1.42.38.5.64.5,1.16v2.91h-.88ZM28.11,48.83l-.49.02c-.37.01-.64.07-.82.19s-.27.29-.27.52c0,.34.2.5.61.5.29,0,.52-.08.7-.24.17-.16.26-.37.26-.63v-.36Z"/>
        <path class="cls-3" d="M33.23,46.41c.17,0,.31.01.42.04l-.09,1.12c-.1-.03-.23-.04-.37-.04-.4,0-.71.1-.94.29-.22.2-.34.47-.34.82v2.22h-1.26v-4.37h.95l.19.73h.06c.14-.25.34-.44.58-.59.24-.15.51-.22.79-.22Z"/>
        <path class="cls-3" d="M40.35,49.27c0,.52-.2.92-.59,1.22s-.94.45-1.64.45c-.64,0-1.21-.11-1.71-.34v-1.12c.41.17.75.29,1.03.36.28.07.54.11.77.11.28,0,.5-.05.65-.15.15-.1.23-.25.23-.45,0-.11-.03-.21-.1-.3-.07-.09-.16-.17-.29-.25s-.39-.21-.78-.39c-.37-.16-.64-.32-.83-.47s-.33-.33-.44-.53c-.11-.2-.17-.43-.17-.7,0-.5.18-.9.54-1.19.36-.29.86-.43,1.5-.43.31,0,.61.04.9.11.28.07.58.17.89.3l-.41.94c-.32-.12-.59-.21-.8-.26-.21-.05-.42-.07-.62-.07-.24,0-.43.05-.56.16-.13.11-.19.25-.19.42,0,.11.03.2.08.28.05.08.14.16.25.23s.38.21.81.4c.56.25.95.51,1.16.77s.31.57.31.94Z"/>
        <path class="cls-3" d="M43.43,50.93c-.74,0-1.32-.19-1.74-.58s-.63-.94-.63-1.65.19-1.3.58-1.7.92-.6,1.6-.6,1.16.18,1.52.53.54.84.54,1.46v.58h-2.97c.01.34.12.6.32.79s.48.29.83.29c.28,0,.54-.03.79-.08.25-.05.51-.14.78-.26v.92c-.22.1-.46.18-.71.23s-.56.08-.92.08ZM43.25,47.25c-.27,0-.48.08-.63.24-.15.16-.24.39-.26.68h1.76c0-.29-.09-.52-.24-.68-.16-.16-.37-.24-.63-.24Z"/>
        <path class="cls-3" d="M48.21,50.93c-1.44,0-2.15-.75-2.15-2.24,0-.74.2-1.31.58-1.7.39-.39.95-.59,1.68-.59.53,0,1.01.1,1.44.3l-.37.92c-.2-.08-.38-.14-.55-.19-.17-.05-.34-.07-.51-.07-.66,0-.98.44-.98,1.32s.33,1.28.98,1.28c.24,0,.47-.03.67-.09.21-.06.41-.16.62-.29v1.02c-.2.12-.41.21-.62.25-.21.05-.47.07-.79.07Z"/>
        <path class="cls-3" d="M52.62,49.98c.22,0,.48-.05.79-.14v.89c-.31.13-.7.2-1.16.2-.5,0-.87-.12-1.1-.36s-.34-.6-.34-1.08v-2.11h-.6v-.5l.69-.4.36-.92h.8v.93h1.29v.89h-1.29v2.11c0,.17.05.29.15.38s.23.12.4.12Z"/>
        <path class="cls-3" d="M58.54,48.66c0,.71-.2,1.27-.59,1.67-.4.4-.95.6-1.65.6-.44,0-.83-.09-1.17-.28-.34-.18-.6-.45-.78-.79-.18-.34-.27-.75-.27-1.2,0-.71.2-1.27.59-1.66.39-.4.95-.59,1.66-.59.44,0,.83.09,1.17.27.34.18.6.44.78.79s.27.74.27,1.2ZM55.35,48.66c0,.43.08.76.23.98.15.22.39.33.73.33s.58-.11.72-.33c.15-.22.22-.55.22-.98s-.07-.76-.22-.97-.39-.32-.73-.32-.58.11-.73.32c-.15.21-.22.54-.22.97Z"/>
        <path class="cls-3" d="M62.15,46.41c.17,0,.31.01.42.04l-.09,1.12c-.1-.03-.23-.04-.37-.04-.4,0-.71.1-.94.29-.22.2-.34.47-.34.82v2.22h-1.26v-4.37h.95l.19.73h.06c.14-.25.34-.44.58-.59.24-.15.51-.22.79-.22Z"/>
        <path class="cls-3" d="M68.27,46.07c-.48,0-.85.17-1.12.51-.26.34-.4.82-.4,1.43,0,1.27.5,1.91,1.51,1.91.42,0,.94-.1,1.54-.3v1.02c-.5.2-1.05.29-1.66.29-.88,0-1.55-.25-2.01-.76-.46-.5-.7-1.23-.7-2.17,0-.59.11-1.11.34-1.56.23-.45.56-.79.98-1.03s.93-.36,1.5-.36,1.17.13,1.77.4l-.41.98c-.23-.1-.45-.19-.68-.27s-.45-.11-.67-.11Z"/>
        <path class="cls-3" d="M73.08,50.93c-.74,0-1.32-.19-1.74-.58s-.63-.94-.63-1.65.19-1.3.58-1.7.92-.6,1.6-.6,1.16.18,1.52.53.54.84.54,1.46v.58h-2.97c.01.34.12.6.32.79s.48.29.83.29c.28,0,.54-.03.79-.08.25-.05.51-.14.78-.26v.92c-.22.1-.46.18-.71.23s-.56.08-.92.08ZM72.9,47.25c-.27,0-.48.08-.63.24-.15.16-.24.39-.26.68h1.76c0-.29-.09-.52-.24-.68-.16-.16-.37-.24-.63-.24Z"/>
        <path class="cls-3" d="M80.24,50.85h-1.26v-2.55c0-.32-.06-.55-.18-.71s-.31-.24-.56-.24c-.35,0-.61.11-.76.33-.16.22-.24.59-.24,1.11v2.05h-1.26v-4.37h.96l.17.56h.07c.14-.21.33-.37.58-.48s.53-.16.84-.16c.54,0,.94.14,1.22.41.28.27.42.67.42,1.19v2.85Z"/>
        <path class="cls-3" d="M83.48,49.98c.22,0,.48-.05.79-.14v.89c-.31.13-.7.2-1.16.2-.5,0-.87-.12-1.1-.36s-.34-.6-.34-1.08v-2.11h-.6v-.5l.69-.4.36-.92h.8v.93h1.29v.89h-1.29v2.11c0,.17.05.29.15.38s.23.12.4.12Z"/>
        <path class="cls-3" d="M87.77,46.41c.17,0,.31.01.42.04l-.09,1.12c-.1-.03-.23-.04-.37-.04-.4,0-.71.1-.94.29-.22.2-.34.47-.34.82v2.22h-1.26v-4.37h.95l.19.73h.06c.14-.25.34-.44.58-.59.24-.15.51-.22.79-.22Z"/>
        <path class="cls-3" d="M93.23,48.66c0,.71-.2,1.27-.59,1.67-.4.4-.95.6-1.65.6-.44,0-.83-.09-1.17-.28-.34-.18-.6-.45-.78-.79-.18-.34-.27-.75-.27-1.2,0-.71.2-1.27.59-1.66.39-.4.95-.59,1.66-.59.44,0,.83.09,1.17.27.34.18.6.44.78.79s.27.74.27,1.2ZM90.04,48.66c0,.43.08.76.23.98.15.22.39.33.73.33s.58-.11.72-.33c.15-.22.22-.55.22-.98s-.07-.76-.22-.97-.39-.32-.73-.32-.58.11-.73.32c-.15.21-.22.54-.22.97Z"/>
        <path class="cls-3" d="M97.49,49.56c0,.45-.16.79-.49,1.02s-.82.35-1.47.35c-.34,0-.62-.02-.86-.06s-.46-.11-.66-.19v-.98c.23.1.5.19.79.26s.55.11.77.11c.46,0,.68-.12.68-.38,0-.09-.03-.17-.09-.23s-.17-.12-.31-.2-.35-.16-.59-.26c-.35-.14-.62-.27-.78-.39-.17-.12-.29-.26-.36-.41-.08-.16-.11-.35-.11-.57,0-.39.16-.69.48-.9.32-.21.77-.32,1.35-.32s1.1.11,1.62.34l-.38.86c-.23-.09-.45-.17-.65-.23-.2-.06-.41-.09-.61-.09-.37,0-.56.09-.56.29,0,.11.06.2.18.28.12.08.38.19.79.35.36.14.62.27.79.39s.29.26.37.41c.08.16.12.34.12.56Z"/>
        <path class="cls-3" d="M102.12,50.93c-.54,0-.97-.2-1.28-.6s-.46-.95-.46-1.66.16-1.27.47-1.67c.32-.4.75-.6,1.3-.6.58,0,1.02.21,1.33.64h.04c-.06-.33-.1-.62-.1-.87v-1.4h1.26v6.08h-.96l-.24-.57h-.05c-.29.43-.72.64-1.31.64ZM102.56,49.98c.32,0,.56-.09.71-.27.15-.18.23-.48.25-.9v-.13c0-.47-.08-.8-.23-1.01-.15-.2-.4-.3-.75-.3-.28,0-.5.11-.65.34-.16.23-.23.55-.23.98s.08.75.24.97c.16.21.38.32.67.32Z"/>
        <path class="cls-3" d="M108.09,50.93c-.74,0-1.32-.19-1.74-.58s-.63-.94-.63-1.65.19-1.3.58-1.7.92-.6,1.6-.6,1.16.18,1.52.53.54.84.54,1.46v.58h-2.97c.01.34.12.6.32.79s.48.29.83.29c.28,0,.54-.03.79-.08.25-.05.51-.14.78-.26v.92c-.22.1-.46.18-.71.23s-.56.08-.92.08ZM107.92,47.25c-.27,0-.48.08-.63.24-.15.16-.24.39-.26.68h1.76c0-.29-.09-.52-.24-.68-.16-.16-.37-.24-.63-.24Z"/>
        <path class="cls-3" d="M36.88,58.87c0,.52-.2.92-.59,1.22s-.94.45-1.64.45c-.64,0-1.21-.11-1.71-.34v-1.12c.41.17.75.29,1.03.36.28.07.54.11.77.11.28,0,.5-.05.65-.15.15-.1.23-.25.23-.45,0-.11-.03-.21-.1-.3-.07-.09-.16-.17-.29-.25s-.39-.21-.78-.39c-.37-.16-.64-.32-.83-.47s-.33-.33-.44-.53c-.11-.2-.17-.43-.17-.7,0-.5.18-.9.54-1.19.36-.29.86-.43,1.5-.43.31,0,.61.04.9.11.28.07.58.17.89.3l-.41.94c-.32-.12-.59-.21-.8-.26-.21-.05-.42-.07-.62-.07-.24,0-.43.05-.56.16-.13.11-.19.25-.19.42,0,.11.03.2.08.28.05.08.14.16.25.23s.38.21.81.4c.56.25.95.51,1.16.77s.31.57.31.94Z"/>
        <path class="cls-3" d="M40.8,60.45l-.24-.59h-.03c-.21.25-.43.43-.65.53-.22.1-.52.15-.88.15-.44,0-.79-.12-1.05-.36s-.38-.58-.38-1.02.17-.81.51-1.03c.34-.22.86-.34,1.55-.37l.8-.02v-.19c0-.44-.24-.66-.72-.66-.37,0-.8.11-1.3.32l-.42-.8c.53-.26,1.12-.39,1.77-.39s1.09.13,1.42.38.5.64.5,1.16v2.91h-.88ZM40.43,58.43l-.49.02c-.37.01-.64.07-.82.19s-.27.29-.27.52c0,.34.2.5.61.5.29,0,.52-.08.7-.24.17-.16.26-.37.26-.63v-.36Z"/>
        <path class="cls-3" d="M44.24,60.45h-1.26v-6.08h1.26v6.08Z"/>
        <path class="cls-3" d="M48.82,60.45l-.17-.56h-.07c-.13.2-.33.36-.57.47-.25.11-.53.17-.85.17-.54,0-.95-.14-1.23-.41s-.41-.67-.41-1.19v-2.85h1.26v2.55c0,.32.06.55.18.71.12.16.31.24.56.24.35,0,.61-.11.76-.33.16-.22.24-.59.24-1.11v-2.05h1.26v4.37h-.96Z"/>
        <path class="cls-3" d="M52.57,60.53c-.54,0-.97-.2-1.28-.6s-.46-.95-.46-1.66.16-1.27.47-1.67c.32-.4.75-.6,1.3-.6.58,0,1.02.21,1.33.64h.04c-.06-.33-.1-.62-.1-.87v-1.4h1.26v6.08h-.96l-.24-.57h-.05c-.29.43-.72.64-1.31.64ZM53.01,59.58c.32,0,.56-.09.71-.27.15-.18.23-.48.25-.9v-.13c0-.47-.08-.8-.23-1.01-.15-.2-.4-.3-.75-.3-.28,0-.5.11-.65.34-.16.23-.23.55-.23.98s.08.75.24.97c.16.21.38.32.67.32Z"/>
        <path class="cls-3" d="M62.54,60.45h-4.22v-.84l1.51-1.45c.45-.43.74-.74.88-.9.14-.17.24-.32.3-.47s.09-.29.09-.45c0-.23-.07-.4-.2-.51-.13-.11-.31-.17-.53-.17-.23,0-.46.05-.68.15-.22.1-.45.25-.69.43l-.69-.78c.3-.24.54-.41.74-.51s.41-.17.64-.23c.23-.05.49-.08.78-.08.38,0,.71.07,1,.2s.51.31.67.55c.16.23.24.5.24.8,0,.26-.05.51-.15.74s-.25.47-.45.71-.57.59-1.08,1.04l-.78.69v.05h2.63v1.02Z"/>
        <path class="cls-3" d="M67.33,57.6c0,1-.17,1.74-.52,2.21-.35.48-.88.72-1.59.72s-1.22-.25-1.57-.74c-.35-.5-.53-1.23-.53-2.19s.17-1.75.52-2.23.87-.72,1.59-.72,1.22.25,1.58.75c.36.5.53,1.23.53,2.2ZM64.38,57.6c0,.7.06,1.2.19,1.51s.34.46.65.46.51-.15.64-.46.2-.81.2-1.5-.07-1.2-.2-1.51c-.13-.31-.35-.46-.64-.46s-.51.15-.64.46-.19.81-.19,1.51Z"/>
        <path class="cls-3" d="M72.19,60.45h-4.22v-.84l1.51-1.45c.45-.43.74-.74.88-.9.14-.17.24-.32.3-.47s.09-.29.09-.45c0-.23-.07-.4-.2-.51-.13-.11-.31-.17-.53-.17-.23,0-.46.05-.68.15-.22.1-.45.25-.69.43l-.69-.78c.3-.24.54-.41.74-.51s.41-.17.64-.23c.23-.05.49-.08.78-.08.38,0,.71.07,1,.2s.51.31.67.55c.16.23.24.5.24.8,0,.26-.05.51-.15.74s-.25.47-.45.71-.57.59-1.08,1.04l-.78.69v.05h2.63v1.02Z"/>
        <path class="cls-3" d="M74.99,56.81c.58,0,1.05.16,1.39.46.35.31.52.73.52,1.27,0,.64-.21,1.13-.62,1.47-.42.34-1.01.52-1.78.52-.67,0-1.21-.1-1.63-.31v-1.04c.22.11.47.2.76.27.29.07.56.1.82.1.78,0,1.17-.3,1.17-.91s-.4-.86-1.21-.86c-.15,0-.31.01-.48.04s-.32.06-.43.09l-.51-.26.23-2.91h3.27v1.02h-2.15l-.11,1.12.14-.03c.17-.04.38-.05.62-.05Z"/>
      </g>
    </g>
  </g>
</svg>