<?xml version="1.0" encoding="UTF-8"?><svg id="Capa_2" xmlns="http://www.w3.org/2000/svg" viewBox="0 0 546.01766 146.74558"><defs><style>.cls-1{fill:#fff;}</style></defs><g id="Capa_1-2"><g><g><path class="cls-1" d="M123.89769,139.86091c-8.76904,0-36.07959-1.56201-66.45557-19.05566-9.65625,5.1665-19.60547,10.21436-28.56787,14.34131-2.5166,1.15576-5.49365,.05762-6.65137-2.45703-1.1582-2.51514-.05811-5.49316,2.45703-6.65137,7.22852-3.32861,15.11523-7.27002,22.96387-11.38721-1.88623-1.28711-3.77686-2.63916-5.66992-4.05957-11.27441-8.4624-18.46729-16.26367-24.56055-23.43408C7.04613,74.95711,2.69798,65.41853,1.37132,51.96394,.15257,39.6031,4.8225,29.27937,14.52074,22.89509c7.94385-5.22803,22.40576-6.54541,34.67773,1.05469,3.83984,2.37891,7.51123,5.64062,10.8418,9.27393,5.13379-7.02344,10.62012-12.74121,13.83496-15.64502C83.51878,8.86824,100.36985-.9467,116.11791,.07332c8.76807,.56592,16.15869,4.29736,21.96533,11.09082,10.49902,12.28223,8.28467,31.70605-5.92334,51.95898-11.06104,15.7666-25.57178,29.14844-43.12842,39.77344-5.9707,3.61328-13.25586,7.83496-21.08447,12.18164,31.21094,16.05469,57.88672,14.7251,58.20752,14.70459,2.7627-.15088,5.13721,1.93848,5.30566,4.69922,.16846,2.76025-1.92529,5.13574-4.68555,5.30908-.23926,.01514-1.23291,.06982-2.87695,.06982ZM30.52464,28.60847c-4.52637,0-8.33398,1.24316-10.49023,2.6626-6.62207,4.35889-9.54346,10.98975-8.68359,19.7085,1.1167,11.32373,4.70264,19.0918,13.7041,29.68457,5.71631,6.72656,12.45117,14.03613,22.93848,21.90674,3.25049,2.43994,6.50342,4.66357,9.73193,6.68701,9.71484-5.29346,18.88965-10.56836,26.11475-14.94043,16.3584-9.8999,29.854-22.33301,40.11084-36.95312,16.91113-24.10596,9.2583-36.46973,6.51025-39.68457-4.0376-4.72363-8.94092-7.20947-14.98926-7.59961-11.81787-.76758-26.03271,6.95361-34.875,14.93994-4.41602,3.98877-9.67725,9.90234-14.05518,16.29932,5.08398,7.18359,8.60547,14.40186,9.49609,18.46582,.88867,4.05469,.70312,10.52197-2.74463,15.40479-2.15967,3.05762-5.22803,4.9165-8.87354,5.37598-4.07422,.50928-8.19336-.77881-11.30713-3.54492-3.62891-3.22266-5.60498-8.16699-5.56494-13.92236,.04834-6.94238,2.90918-14.34082,6.82129-21.18506-3.10742-3.6875-6.6582-7.08984-10.45068-9.43896-4.59082-2.84277-9.2876-3.86621-13.39355-3.86621Zm30.38477,22.37109c-2.03174,4.2998-3.30859,8.50098-3.33447,12.18848-.01953,2.82324,.76025,5.08008,2.19629,6.35547,.95361,.84668,2.18848,1.24805,3.39551,1.09326,.83057-.10449,1.40967-.4668,1.93506-1.21094,1.32764-1.87988,1.62256-5.27588,1.14111-7.47314-.4165-1.90039-2.34863-6.13867-5.3335-10.95312Z"/><path class="cls-1" d="M7.73457,130.7954c-4.26444,0-7.73457,3.57794-7.73457,7.97508,0,4.39714,3.47012,7.97509,7.73457,7.97509,4.26508,0,7.73521-3.57794,7.73521-7.97508,0-4.39714-3.47012-7.97509-7.7352-7.97509Z"/><path class="cls-1" d="M145.57487,127.21945c-4.25168,0-7.71096,3.56646-7.71096,7.94956,0,4.38375,3.45928,7.95021,7.71096,7.95021,4.25232,0,7.7116-3.56646,7.7116-7.9502,0-4.38311-3.45928-7.94957-7.7116-7.94957Z"/></g><g><path class="cls-1" d="M415.06621,111.35318l26.86746,.00002c1.82174,0,3.29849-1.47675,3.2985-3.2946,0-1.82174-1.47675-3.29849-3.29849-3.29849l-23.20545-.00002c-.20613,0-.37496-.16861-.37496-.37107l.00002-38.5359c0-2.0766-1.68676-3.76313-3.76703-3.76313-2.08026,0-3.76703,1.68653-3.76703,3.76313l-.00002,41.2533c0,2.34655,1.90044,4.24677,4.247,4.24677"/><path class="cls-1" d="M470.52954,112.15004c14.41564,0,21.87855-9.779,21.87855-21.15511v-25.13948c.00001-2.08026-1.68675-3.76702-3.76701-3.76702-2.08026,0-3.76703,1.68676-3.76703,3.76702v24.56228c-.00002,8.47477-4.56547,14.70433-14.34451,14.70432-9.63696,0-14.12738-5.79467-14.12737-14.63319v-24.63343c.00001-2.08026-1.68675-3.76702-3.76701-3.76702-2.08026,0-3.76703,1.68676-3.76703,3.76702v25.13948c-.00002,12.31683,7.38784,21.15513,21.66141,21.15514"/><path class="cls-1" d="M504.83909,111.66323h15.74666c14.56572,.00002,25.4319-8.74858,25.43191-24.71599,0-16.11016-10.86617-24.78374-25.43188-24.85856h-15.74666c-2.34267-.00001-4.24677,1.91164-4.24677,4.27306l-.00002,41.02841c0,2.36142,1.9041,4.27307,4.24677,4.27308m3.66227-42.94029h11.7957c10.50631,.07139,17.96922,6.41352,17.96921,18.22429,0,11.66825-7.46291,18.08151-17.96923,18.08151h-11.7957c-.20636,0-.3713-.16862-.3713-.37474l.00002-35.5561c0-.20613,.16495-.37496,.3713-.37496"/><path class="cls-1" d="M252.90288,62.08851l-30.20371-.00002c-2.34633,0-4.24677,1.90044-4.24677,4.24699l-.00002,40.76967c0,2.34655,1.90044,4.24677,4.24677,4.24677l30.20371,.00002c2.82241,0,5.10514-2.28638,5.10514-5.10513v-.36352c0-2.82241-2.28273-5.10879-5.10514-5.10879l-22.5047-.00002c-.19492,0-.35232-.1574-.35232-.35231v-8.71109c0-.19492,.1574-.35231,.35232-.35231h17.21586c2.82241,.00001,5.1088-2.28637,5.1088-5.10878,0-2.81875-2.28639-5.10902-5.1088-5.10902h-17.21586c-.19492-.00001-.35232-.15741-.35232-.35233v-7.77014c0-.19492,.1574-.35231,.35232-.35231l22.5047,.00002c2.82241,0,5.10514-2.28638,5.10514-5.10513v-.36719c0-2.81875-2.28273-5.10536-5.10514-5.10536"/><path class="cls-1" d="M285.98413,62.09013h-17.853c-2.34656-.00001-4.24677,1.90043-4.24677,4.24675l-.00002,40.76989c0,2.34632,1.90021,4.24677,4.24677,4.24677h17.853c14.56206,.00002,25.42824-8.69208,25.42825-24.56225,0-16.00881-10.86617-24.62977-25.42822-24.70116m-.50973,38.68575h-9.06342c-.19858,0-.35598-.16106-.35598-.35232v-27.40344c.00001-.19858,.15741-.35231,.35599-.35231h9.06342c7.96873,.00001,13.40376,4.99648,13.40376,14.12348,0,8.98837-5.43504,13.9846-13.40377,13.98459"/><path class="cls-1" d="M404.32586,108.1327c0-.52092-.11622-1.01188-.31868-1.45799h.00389l-16.93467-40.8335c-.94095-2.27151-3.34722-3.75215-5.80611-3.75215h-.11988c-2.45523,0-4.86149,1.48063-5.80611,3.75215l-16.93105,40.83348c-.20224,.44611-.31846,.93707-.31846,1.45799,0,1.95283,1.58542,3.53459,3.53825,3.53459,1.54424,0,2.87869-.97069,3.35843-2.34998,.05628-.13887,.0938-.23244,.14253-.34499l3.39962-8.23112c.06749-.15374,.21734-.25486,.38617-.25486h12.29054l12.2942,.00002c.16884,0,.31502,.10112,.38228,.25486l3.39984,8.23112c.04873,.11256,.08991,.22878,.13498,.34499,.4834,1.3754,1.8254,2.34999,3.36575,2.34999,1.95283,0,3.53848-1.58175,3.53848-3.53458m-12.87894-13.37012h-20.47317c-.17982-.00001-.29604-.17983-.22855-.34478l10.08286-23.7977c.07115-.1725,.22489-.25852,.38228-.26607,.16106,.00755,.3148,.09357,.38595,.26607l10.07918,23.79772c.07115,.16495-.04873,.34476-.22855,.34476"/><path class="cls-1" d="M209.50495,101.52072h-.29993c-4.46411,0-8.71843-4.16075-13.04023-8.13756-.12354-.11622-.06749-.31114,.0938-.34865,7.2641-1.63048,12.51543-7.15152,12.51543-14.76815,0-11.52206-9.34824-16.22981-18.90994-16.22982h-19.15359c-2.34656-.00001-4.247,1.9002-4.247,4.24675l-.00002,39.70906c0,3.35843,2.72518,6.08338,6.08727,6.08338,3.36232,0,6.08728-2.72494,6.08728-6.08726l-.00389-.02242v-12.03932c0-.20613,.16884-.37496,.37497-.37496h1.49917c.25486,.00389,.9222,.09746,1.76546,.77601,6.28974,5.08249,14.26967,17.69558,24.97845,17.69559,1.14708,0,2.23766-.11622,3.27218-.29626l.07138-.01121c2.32757-.4985,4.06672-2.56755,4.06673-5.0413,0-2.84872-2.30881-5.15386-5.15753-5.15386m-19.85821-16.68371h-10.66028c-.19492,0-.35232-.16107-.35232-.35232v-11.46578c0-.19492,.1574-.35231,.35232-.35231h10.66028c3.98436,0,6.51806,2.31637,6.51806,6.08705,0,3.62083-2.5337,6.08337-6.51806,6.08337"/><path class="cls-1" d="M341.48268,83.62162l-9.77926-2.60874c-4.27308-1.08692-6.66814-2.47765-6.66813-5.80976,0-3.69587,3.52704-7.66513,11.37589-6.81065,3.56845,.38618,7.40663,1.37197,10.62253,2.82996,.14253,.06749,.47608,.19881,.85471,.31869,.4047,.11622,.79454,.22123,1.22555,.22123,1.85537,0,3.35843-1.50305,3.35843-3.35477,0-.71607-.22489-1.37563-.60328-1.9192-.37496-.55089-.94851-1.05328-1.78422-1.43557-3.56456-1.51427-8.591-3.31725-13.385-3.61695-13.30264-.82475-19.41623,6.66811-19.41623,14.34445,0,6.45079,3.98459,10.72386,11.15878,12.53417l9.92522,2.53393c5.50618,1.37563,8.6212,3.26098,8.6212,6.73928,0,4.56545-4.56546,7.53404-11.73599,7.53403-4.00312,0-7.86006-1.01577-11.00115-2.2976l-.17227-.06749c-.33378-.13132-.62616-.21734-.95217-.26996,0,0-.45343-.0636-.68976-.0636-.9707,0-1.84416,.38983-2.48131,1.02697-.63714,.63348-1.03064,1.51427-1.03064,2.48496,0,.9485,.38228,1.81053,.99701,2.44767l-.00389,.00389c.38983,.42346,.89223,.76091,1.4843,.98946,3.54603,1.4056,8.54982,2.70253,13.70369,2.70254,11.66461,0,19.70838-6.48441,19.70838-15.6153,0-6.95295-4.64026-10.45025-13.33238-12.84165"/></g><g><path class="cls-1" d="M380.36437,139.74949c.86612,.60062,1.97742,1.06778,3.30923,1.06778,1.22156,0,2.44457-.46715,2.44457-1.73514,0-2.86384-6.33121-2.50985-6.33121-6.97536,0-2.15296,1.71047-4.04188,4.75276-4.04188,1.51171,0,2.77825,.33368,3.57763,.7341v2.44312c-1.15627-.60062-2.33286-.9343-3.48768-.9343-1.0228,0-1.99918,.40042-1.99918,1.57845,0,2.68685,6.33121,2.33286,6.33121,6.97536,0,2.5998-2.2226,4.19856-5.22136,4.19856-1.71047,0-3.30923-.49036-4.42053-1.26798l1.04456-2.0427Z"/><path class="cls-1" d="M394.58348,135.57414c0-4.4452,3.04374-7.50925,7.37578-7.50925s7.37578,3.08726,7.37578,7.50925c0,4.48582-3.11048,7.48603-7.37578,7.48603-4.31027,0-7.37578-3.00022-7.37578-7.48603Zm11.90802,0c0-3.24395-1.75545-5.26634-4.53224-5.26634-2.71006,0-4.53224,1.93244-4.53224,5.26634,0,3.30778,1.82218,5.24313,4.53224,5.24313,2.6883,0,4.53224-1.93534,4.53224-5.24313Z"/><path class="cls-1" d="M415.60241,128.19836h2.42136l3.84312,5.53038c.51068,.75731,.88933,1.31151,1.22156,1.88892h.04497c.31047-.5542,.68912-1.19835,1.1998-1.97597l3.50944-5.44333h2.44457v14.63839h-2.6883v-8.26365c0-.60062,0-1.35503,.04352-1.93244h-.04352c-.20021,.42363-.7341,1.24477-.99959,1.64519l-2.88851,4.48582h-1.22156l-3.19897-4.59898c-.31047-.44394-.71088-.95461-.99959-1.50881h-.04497c.02321,.57741,.02321,1.33182,.02321,1.84249v8.33039h-2.66654v-14.63839Z"/><path class="cls-1" d="M436.53284,135.57414c0-4.4452,3.04374-7.50925,7.37578-7.50925s7.37578,3.08726,7.37578,7.50925c0,4.48582-3.11048,7.48603-7.37578,7.48603-4.31027,0-7.37578-3.00022-7.37578-7.48603Zm11.90802,0c0-3.24395-1.75545-5.26634-4.53224-5.26634-2.71006,0-4.53224,1.93244-4.53224,5.26634,0,3.30778,1.82218,5.24313,4.53224,5.24313,2.6883,0,4.53224-1.93534,4.53224-5.24313Z"/><path class="cls-1" d="M457.88545,139.74949c.86612,.60062,1.97742,1.06778,3.30923,1.06778,1.22156,0,2.44457-.46715,2.44457-1.73514,0-2.86384-6.33121-2.50985-6.33121-6.97536,0-2.15296,1.71047-4.04188,4.75276-4.04188,1.51171,0,2.77825,.33368,3.57763,.7341v2.44312c-1.15627-.60062-2.33286-.9343-3.48768-.9343-1.0228,0-1.99918,.40042-1.99918,1.57845,0,2.68685,6.33121,2.33286,6.33121,6.97536,0,2.5998-2.2226,4.19856-5.22136,4.19856-1.71047,0-3.30923-.49036-4.42053-1.26798l1.04456-2.0427Z"/><path class="cls-1" d="M492.27769,141.90535c-1.62197,.88788-3.17721,1.15482-4.64395,1.15482-4.79774,0-7.39754-3.08726-7.39754-7.37578,0-4.24209,3.02198-7.61951,7.73122-7.61951,1.59876,0,2.93203,.31047,3.84312,.71088v2.48664c-1.13306-.59772-2.35462-.95461-3.77639-.95461-3.24395,0-4.95442,2.44312-4.95442,5.30986,0,3.06695,1.86716,5.1996,4.86592,5.1996,1.44353,0,2.55483-.42363,3.59794-1.02425l.7341,2.11234Z"/><path class="cls-1" d="M509.51878,141.90535c-1.62197,.88788-3.17721,1.15482-4.64395,1.15482-4.79774,0-7.39754-3.08726-7.39754-7.37578,0-4.24209,3.02198-7.61951,7.73122-7.61951,1.59876,0,2.93203,.31047,3.84312,.71088v2.48664c-1.13306-.59772-2.35462-.95461-3.77639-.95461-3.24395,0-4.95442,2.44312-4.95442,5.30986,0,3.06695,1.86716,5.1996,4.86592,5.1996,1.44353,0,2.55483-.42363,3.59794-1.02425l.7341,2.11234Z"/><path class="cls-1" d="M514.94181,127.11028h2.64332v6.37474c.95607-.80083,2.15586-1.42177,3.48768-1.42177,1.66695,0,3.35566,.82114,3.35566,3.82136v6.95215h-2.64478v-6.131c0-1.28829-.26549-2.33286-1.62052-2.33286-.88933,0-1.80042,.46715-2.57804,1.1113v7.35256h-2.64332v-15.72648Z"/><path class="cls-1" d="M542.18024,141.90535c-1.62197,.88788-3.17721,1.15482-4.64395,1.15482-4.79774,0-7.39754-3.08726-7.39754-7.37578,0-4.24209,3.02198-7.61951,7.73122-7.61951,1.60021,0,2.93203,.31047,3.84312,.71088v2.48664c-1.13306-.59772-2.35462-.95461-3.77639-.95461-3.24395,0-4.95442,2.44312-4.95442,5.30986,0,3.06695,1.86571,5.1996,4.86592,5.1996,1.44353,0,2.55483-.42363,3.59794-1.02425l.7341,2.11234Z"/></g></g></g></svg>