<svg width="3341" height="3173" viewBox="0 0 3341 3173" fill="none" xmlns="http://www.w3.org/2000/svg">
<mask id="mask0_193_508" style="mask-type:alpha" maskUnits="userSpaceOnUse" x="0" y="0" width="3341" height="3085">
<rect width="3341" height="3085" fill="#D9D9D9"/>
</mask>
<g mask="url(#mask0_193_508)">
<path d="M1657.48 3251.96C2520.41 3251.96 3219.96 2552.41 3219.96 1689.48C3219.96 826.546 2520.41 127 1657.48 127C794.546 127 95 826.546 95 1689.48C95 2552.41 794.546 3251.96 1657.48 3251.96Z" fill="white"/>
<path d="M1657.48 3282C1549.69 3282.03 1442.18 3271.19 1336.57 3249.65C1132.85 3207.92 939.345 3126.49 767.09 3010C511.069 2837.17 310.665 2593.8 190.16 2309.38C149.43 2213.02 118.342 2112.87 97.35 2010.38C54.2167 1798.61 54.2167 1580.33 97.35 1368.56C139.084 1164.85 220.515 971.345 337 799.09C509.827 543.071 753.193 342.667 1037.61 222.16C1133.97 181.43 1234.12 150.341 1336.61 129.35C1548.38 86.2167 1766.66 86.2167 1978.43 129.35C2182.14 171.085 2375.63 252.517 2547.88 369C2803.9 541.83 3004.3 785.199 3124.81 1069.62C3165.54 1165.98 3196.62 1266.13 3217.61 1368.62C3260.76 1580.38 3260.76 1798.68 3217.61 2010.44C3175.89 2214.14 3094.47 2407.63 2978 2579.88C2805.17 2835.9 2561.8 3036.3 2277.38 3156.81C2181.02 3197.54 2080.87 3228.62 1978.38 3249.61C1872.77 3271.16 1765.26 3282.01 1657.48 3282ZM1657.48 157C1450.58 157 1249.89 197.51 1060.98 277.42C693.567 433.111 401.102 725.583 245.42 1093C165.51 1281.89 125 1482.58 125 1689.48C125 1896.38 165.51 2097.07 245.42 2285.98C401.107 2653.4 693.58 2945.87 1061 3101.55C1249.91 3181.45 1450.6 3221.96 1657.5 3221.96C1864.4 3221.96 2065.09 3181.45 2254 3101.55C2621.41 2945.87 2913.87 2653.41 3069.55 2286C3149.45 2097.09 3189.97 1896.4 3189.97 1689.5C3189.97 1482.6 3149.45 1281.91 3069.55 1093C2913.88 725.58 2621.41 433.106 2254 277.42C2065.07 197.51 1864.38 157 1657.48 157Z" fill="#DF4787"/>
<path d="M1662.7 3224.46C2511 3224.46 3198.68 2536.78 3198.68 1688.48C3198.68 840.182 2511 152.5 1662.7 152.5C814.402 152.5 126.72 840.182 126.72 1688.48C126.72 2536.78 814.402 3224.46 1662.7 3224.46Z" fill="#DF4787"/>
<path d="M1662.7 3246.46C1557.24 3246.49 1452.04 3235.89 1348.7 3214.81C1149.41 3173.99 960.11 3094.33 791.6 2980.37C541.127 2811.28 345.062 2573.19 227.16 2294.93C187.319 2200.67 156.908 2102.7 136.37 2002.45C94.1566 1795.27 94.1566 1581.7 136.37 1374.52C177.187 1175.22 256.849 985.904 370.81 817.38C539.898 566.907 777.993 370.842 1056.25 252.94C1150.51 213.099 1248.48 182.688 1348.73 162.15C1555.91 119.95 1769.48 119.95 1976.66 162.15C2175.96 202.967 2365.28 282.629 2533.8 396.59C2784.27 565.667 2980.34 803.752 3098.24 1082C3138.07 1176.27 3168.48 1274.26 3189 1374.52C3231.2 1581.7 3231.2 1795.27 3189 2002.45C3148.19 2201.75 3068.52 2391.06 2954.56 2559.58C2785.48 2810.05 2547.39 3006.1 2269.14 3124C2174.88 3163.84 2076.91 3194.25 1976.66 3214.79C1873.34 3235.87 1768.15 3246.48 1662.7 3246.46ZM1662.7 174.46C1458.3 174.46 1260.03 214.46 1073.39 293.46C710.422 447.27 421.49 736.201 267.68 1099.17C188.74 1285.81 148.68 1484.08 148.68 1688.47C148.68 1892.86 188.68 2091.14 267.68 2277.78C421.49 2640.75 710.422 2929.68 1073.39 3083.49C1260.03 3162.43 1458.3 3202.49 1662.7 3202.49C1867.1 3202.49 2065.36 3162.49 2252 3083.49C2614.98 2929.69 2903.91 2640.76 3057.71 2277.78C3136.65 2091.14 3176.71 1892.87 3176.71 1688.47C3176.71 1484.07 3136.71 1285.81 3057.71 1099.17C2903.91 736.197 2614.98 447.266 2252 293.47C2065.36 214.53 1867.09 174.5 1662.7 174.5V174.46Z" fill="white"/>
<path d="M1662.7 2889.52C2314.42 2889.52 2842.74 2361.2 2842.74 1709.48C2842.74 1057.76 2314.42 529.44 1662.7 529.44C1010.98 529.44 482.66 1057.76 482.66 1709.48C482.66 2361.2 1010.98 2889.52 1662.7 2889.52Z" fill="white"/>
<path d="M1184.05 2128.56C1077.94 2128.56 978.16 2087.24 903.14 2012.2L951.81 1963.54C1013.4 2025.13 1096.93 2059.73 1184.04 2059.73C1271.14 2059.73 1354.67 2025.13 1416.26 1963.54L1464.92 2012.2C1389.91 2087.24 1290.15 2128.56 1184.05 2128.56Z" fill="#F8B118"/>
<path d="M770.12 1909.41C735.453 1909.41 704.983 1899.74 678.71 1880.41L704.17 1839.53C726.837 1854.36 748.94 1861.77 770.48 1861.77C782.18 1861.77 788.033 1858.3 788.04 1851.37V1850.65C788.04 1846.82 785.83 1843.9 781.41 1841.87C776.99 1839.84 768.683 1837.15 756.49 1833.8C734.03 1828.07 716.947 1820.78 705.24 1811.94C693.533 1803.1 687.677 1789.84 687.67 1772.15V1771.43C687.67 1751.36 694.897 1735.64 709.35 1724.29C723.803 1712.94 742.507 1707.27 765.46 1707.29C795.087 1707.29 821.733 1714.82 845.4 1729.88L822.1 1772.88C800.82 1760.69 781.7 1754.6 764.74 1754.6C754.233 1754.6 748.977 1757.82 748.97 1764.27V1764.99C748.97 1768.32 751.237 1771.13 755.77 1773.41C760.303 1775.69 768.553 1778.62 780.52 1782.2C802.973 1788.2 820.057 1795.67 831.77 1804.61C843.483 1813.55 849.34 1826.63 849.34 1843.86V1844.58C849.34 1865.37 842.17 1881.37 827.83 1892.58C813.49 1903.79 794.253 1909.4 770.12 1909.41Z" fill="black" fill-opacity="0.75"/>
<path d="M973.73 1909.76C943.143 1909.76 918.17 1900.43 898.81 1881.76C879.45 1863.09 869.783 1838.84 869.81 1808.99V1808.27C869.81 1779.83 879.01 1755.83 897.41 1736.27C915.81 1716.71 939.23 1706.91 967.67 1706.87C999.45 1706.87 1023.65 1716.97 1040.26 1737.16C1056.87 1757.35 1065.18 1782.63 1065.17 1812.98C1065.17 1819.2 1065.04 1823.85 1064.81 1826.98H935C940.253 1848.26 954.23 1858.9 976.93 1858.89C992.457 1858.89 1006.79 1852.31 1019.93 1839.16L1057.57 1870.35C1037.28 1896.64 1009.34 1909.77 973.73 1909.76ZM933.94 1792.19H1001.7C1000.49 1781.43 996.843 1772.89 990.77 1766.56C984.697 1760.23 976.987 1757.07 967.64 1757.06C963.521 1756.96 959.428 1757.74 955.634 1759.35C951.841 1760.96 948.434 1763.36 945.64 1766.39C939.747 1772.59 935.847 1781.19 933.94 1792.19Z" fill="black" fill-opacity="0.75"/>
<path d="M1096.32 1963.54V1701.85H1164.07V1963.54H1096.32Z" fill="black" fill-opacity="0.75"/>
<path d="M1204.22 1963.54V1701.85H1272V1963.54H1204.22Z" fill="black" fill-opacity="0.75"/>
<path d="M1486 1880.19C1465.46 1899.91 1439.89 1909.77 1409.29 1909.76C1378.69 1909.75 1353.3 1900.02 1333.13 1880.55C1312.92 1861.08 1302.83 1837.24 1302.84 1809.04V1808.32C1302.84 1780.13 1313.05 1756.17 1333.48 1736.44C1353.91 1716.71 1379.42 1706.85 1410.01 1706.87C1440.6 1706.87 1466.05 1716.67 1486.36 1736.27C1506.67 1755.87 1516.83 1779.65 1516.84 1807.61V1808.32C1516.81 1836.52 1506.53 1860.48 1486 1880.19ZM1410 1852.05C1422.19 1852.05 1432.05 1847.87 1439.57 1839.5C1447.09 1831.13 1450.86 1820.98 1450.88 1809.04V1808.32C1450.88 1796.13 1446.93 1785.74 1439.04 1777.13C1431.15 1768.52 1421.23 1764.22 1409.28 1764.22C1397.1 1764.22 1387.31 1768.4 1379.9 1776.77C1372.49 1785.14 1368.79 1795.42 1368.78 1807.61V1808.32C1368.57 1819.74 1372.82 1830.79 1380.61 1839.14C1384.28 1843.29 1388.81 1846.6 1393.88 1848.83C1398.96 1851.06 1404.46 1852.16 1410 1852.05Z" fill="black" fill-opacity="0.75"/>
<path d="M1554.08 1905.11V1715.84H1597.82V1744.51C1613.6 1722.77 1632.84 1711.9 1655.53 1711.9C1682.3 1711.9 1701.18 1723.01 1712.17 1745.22C1729.14 1723 1750.4 1711.89 1775.97 1711.9C1796.76 1711.9 1813.01 1718.23 1824.73 1730.9C1836.45 1743.57 1842.31 1761.37 1842.3 1784.31V1905.11H1798.93V1797.56C1798.93 1782.5 1795.6 1771.03 1788.93 1763.15C1782.26 1755.27 1772.83 1751.33 1760.62 1751.33C1748.43 1751.33 1738.63 1755.45 1731.22 1763.69C1723.81 1771.93 1720.1 1783.46 1720.1 1798.28V1905.11H1676.73V1797.21C1676.73 1782.39 1673.4 1771.04 1666.73 1763.15C1660.06 1755.26 1650.63 1751.32 1638.42 1751.33C1626.22 1751.33 1616.42 1755.57 1609.02 1764.05C1601.62 1772.53 1597.92 1783.94 1597.91 1798.28V1905.11H1554.08Z" fill="black" fill-opacity="0.75"/>
<path d="M1949.11 1909.05C1930.24 1909.05 1914.29 1903.91 1901.26 1893.63C1888.23 1883.35 1881.72 1869.02 1881.73 1850.63V1849.91C1881.73 1829.84 1888.84 1814.66 1903.05 1804.39C1917.26 1794.12 1936.32 1788.98 1960.23 1788.98C1977.51 1788.96 1994.68 1791.61 2011.14 1796.86V1792.2C2011.14 1764.72 1995.47 1750.98 1964.14 1750.98C1946.93 1750.98 1928.88 1754.92 1910.01 1762.8L1898.19 1728.8C1922.32 1718.52 1946.21 1713.38 1969.87 1713.38C1998.07 1713.38 2018.98 1720.43 2032.61 1734.53C2046.24 1748.15 2053.05 1767.63 2053.04 1792.96V1905.16H2010.75V1881.5C1995.47 1899.83 1974.92 1909.02 1949.11 1909.05ZM1961.3 1877.51C1975.88 1877.51 1987.95 1873.74 1997.51 1866.21C2007.07 1858.68 2011.85 1848.94 2011.85 1836.99V1824.1C1998.94 1819.07 1984.61 1816.55 1968.85 1816.56C1954.75 1816.56 1943.82 1819.31 1936.05 1824.81C1928.28 1830.31 1924.4 1838.08 1924.4 1848.11V1848.83C1924.4 1857.67 1927.87 1864.67 1934.8 1869.83C1941.73 1874.99 1950.57 1877.55 1961.3 1877.51Z" fill="black" fill-opacity="0.75"/>
<path d="M2179.62 1856.35L2229.08 1715.84H2274.25L2199 1910.12C2191.35 1929.72 2182.87 1943.52 2173.56 1951.53C2164.25 1959.54 2151.94 1963.54 2136.63 1963.53C2120.91 1963.61 2105.45 1959.52 2091.82 1951.69L2106.52 1919.8C2115.6 1924.57 2124.08 1926.95 2131.96 1926.96C2138.43 1926.96 2143.61 1925.36 2147.57 1922.12C2151.53 1918.88 2155.28 1913.34 2158.86 1905.46L2080 1715.84H2126.61L2179.62 1856.35Z" fill="black" fill-opacity="0.75"/>
<path d="M2390.74 1909.41C2362.07 1909.41 2338.17 1899.91 2319.04 1880.91C2299.91 1861.91 2290.35 1838.79 2290.37 1811.55V1810.83C2290.37 1783.35 2300.04 1759.99 2319.37 1740.75C2338.7 1721.51 2362.7 1711.89 2391.37 1711.9C2420.29 1711.9 2444.31 1721.4 2463.43 1740.4C2482.55 1759.4 2492.11 1782.64 2492.11 1810.11V1810.83C2492.11 1837.84 2482.44 1861.02 2463.11 1880.38C2443.78 1899.74 2419.65 1909.42 2390.74 1909.41ZM2391.45 1871.41C2408.66 1871.41 2422.53 1865.62 2433.05 1854.03C2443.57 1842.44 2448.82 1828.28 2448.81 1811.55V1810.83C2448.81 1793.87 2443.32 1779.47 2432.33 1767.63C2421.34 1755.79 2407.48 1749.88 2390.74 1749.89C2373.77 1749.89 2360.03 1755.68 2349.52 1767.27C2339.01 1778.86 2333.75 1793.14 2333.74 1810.11V1810.83C2333.74 1827.57 2339.24 1841.85 2350.23 1853.67C2361.22 1865.49 2374.96 1871.4 2391.45 1871.41Z" fill="black" fill-opacity="0.75"/>
<path d="M2535.92 1905.11V1715.84H2579.66V1758.49C2593.05 1726.23 2615.39 1710.82 2646.66 1712.26V1758.13H2644.15C2624.32 1758.13 2608.61 1764.53 2597.01 1777.32C2585.41 1790.11 2579.62 1808.69 2579.63 1833.05V1905.11H2535.92Z" fill="black" fill-opacity="0.75"/>
<path d="M553.74 2327.68L569.83 2317.68L618.21 2395.16L514.91 2459.68L467.81 2384.26L483.9 2374.26L519 2430.4L545.86 2413.62L514.71 2363.74L530.5 2353.88L561.65 2403.76L590.15 2386L553.74 2327.68Z" fill="white"/>
<path d="M506.94 2191.73L434.12 2226.59L511.65 2234L515.99 2243.11L473.81 2307.52L545.76 2273.26L555.04 2292.73L445.04 2345.1L437.04 2328.29L489.13 2249.91L395.82 2241.74L387.82 2224.93L497.7 2172.4L506.94 2191.73Z" fill="white"/>
<path d="M378.13 2066.73C403.52 2058.15 425.53 2071.65 435.77 2101.98L444.57 2127.98L477.87 2116.72L485.11 2138.15L369.72 2177.15L353.72 2129.68C343.43 2099.39 352.58 2075.36 378.13 2066.73ZM385.43 2088.32C370.92 2093.22 365.8 2105.79 372.15 2124.58L380.62 2149.64L426.44 2134.15L418 2109.09C411.63 2090.3 399.93 2083.42 385.43 2088.32Z" fill="white"/>
<path d="M428 1938.13L398.7 1970.3C399.192 1971.79 399.596 1973.31 399.91 1974.85L406.01 2001.66L440.62 1993.79L445.62 2015.85L326.85 2042.85L315.75 1994C308.66 1962.78 320.21 1939.81 346.51 1933.84C364.51 1929.75 379.81 1935.91 389.76 1950.6L422.57 1914.41L428 1938.13ZM334.68 1990.75L340.54 2016.54L387.88 2005.78L382 1980C377.6 1960.66 366.5 1952.65 351.57 1956C336.64 1959.35 330.25 1971.41 334.65 1990.75H334.68Z" fill="white"/>
<path d="M388.5 1799.11L407.32 1796.77L418.6 1887.42L297.73 1902.42L286.73 1814.19L305.55 1811.85L313.73 1877.63L345.16 1873.72L337.89 1815.36L356.37 1813.06L363.63 1871.42L396.96 1867.28L388.5 1799.11Z" fill="white"/>
<path d="M393 1778L375.19 1770.73C382.71 1760.73 387.79 1745.09 387.32 1730.13C386.73 1711.13 379.7 1703.39 370.65 1703.68C344.39 1704.5 363.88 1776.31 318.65 1777.68C299 1778.3 281.81 1763.17 280.77 1729.78C280.31 1715.17 283.66 1699.78 290.28 1688.92L308.07 1695.5C302.319 1705.85 299.381 1717.53 299.55 1729.37C300.14 1748.15 307.69 1755.57 316.91 1755.28C342.82 1754.47 323.68 1682.83 368.38 1681.42C387.86 1680.81 405.05 1696.12 406.1 1729.51C406.7 1748.5 401.38 1767.65 393 1778Z" fill="white"/>
<path d="M380.37 1573.11L376.37 1633.88L403.7 1647.72L402.15 1671L284.22 1608.27L285.69 1586.04L410.86 1539.21L409.3 1562.83L380.37 1573.11ZM362.16 1579.41L307.52 1598.81L359.14 1625.07L362.16 1579.41Z" fill="white"/>
<path d="M361 1462.54C325.45 1454.9 305.61 1422.16 313.48 1385.54C317.65 1366.15 328.21 1350.98 343.48 1342.7L353.84 1359.88C348.512 1362.91 343.898 1367.05 340.311 1372.02C336.724 1376.99 334.248 1382.68 333.05 1388.69C327.75 1413.36 341.26 1434.95 365.75 1440.22C390.24 1445.49 411.44 1431.36 416.75 1406.69C418.138 1400.7 418.206 1394.48 416.949 1388.46C415.692 1382.45 413.14 1376.77 409.47 1371.84L426.15 1360.48C436.7 1374.32 440.09 1392.48 435.88 1412.05C428.11 1448.5 396.58 1470.19 361 1462.54Z" fill="white"/>
<path d="M389.94 1331.38C355.75 1320.07 339.23 1285.27 351.09 1249.38C362.95 1213.49 396.81 1195.38 431.17 1206.79C465.53 1218.2 481.89 1252.9 470.02 1288.79C458.15 1324.68 424.14 1342.7 389.94 1331.38ZM424 1228.48C400.38 1220.66 377.62 1232.37 369.91 1255.66C362.2 1278.95 373.48 1301.93 397.1 1309.75C420.72 1317.57 443.47 1305.85 451.18 1282.56C458.89 1259.27 447.63 1236.3 424 1228.48Z" fill="white"/>
<path d="M547.32 1099.54L474.38 1064.93L517.45 1129.82L513.1 1138.92L436.51 1146.72L508.43 1181L499.14 1200.47L389.22 1148.02L397.22 1131.22L490.92 1122.33L438.51 1044.69L446.51 1027.89L556.51 1080.18L547.32 1099.54Z" fill="white"/>
<path d="M563.3 920.75C585.95 935.06 589.3 960.66 572.23 987.75L557.54 1011L587.25 1029.78L575.17 1048.9L472.17 983.84L499 941.43C516.08 914.37 540.5 906.34 563.3 920.75ZM551.12 940C538.18 931.82 525.19 935.76 514.6 952.53L500.47 974.9L541.36 1000.74L555.49 978.38C566.08 961.61 564.06 948.19 551.12 940Z" fill="white"/>
<path d="M694.54 878.49L651.12 876C650.267 877.32 649.342 878.592 648.35 879.81L631.35 901.43L659.26 923.35L645.26 941.14L549.48 865.9L580.48 826.49C600.26 801.32 625.37 795.82 646.58 812.49C661.08 823.89 665.95 839.66 660.8 856.63L709.58 859.32L694.54 878.49ZM594.9 839.16L578.56 860L616.73 890L633.07 869.21C645.32 853.61 644.55 839.95 632.51 830.49C620.47 821.03 607.15 823.56 594.9 839.16Z" fill="white"/>
<path d="M677.87 802.6C652.19 777.34 652.74 738.82 679.23 711.91C705.72 685 744.09 683.7 769.89 709.09C795.69 734.48 795.01 772.87 768.53 799.78C742.05 826.69 703.54 827.87 677.87 802.6ZM753.87 725.34C736.13 707.88 710.54 708.34 693.34 725.82C676.14 743.3 676.09 768.9 693.82 786.36C711.55 803.82 737.15 803.36 754.36 785.87C771.57 768.38 771.64 742.79 753.9 725.34H753.87Z" fill="white"/>
<path d="M921.53 664.19L871.4 600.91L881.4 678.16L873.48 684.4L801.32 657.54L850.67 720.12L833.73 733.48L758.3 637.84L772.92 626.31L860.92 659.75L848.22 566.94L862.84 555.41L938.41 650.94L921.53 664.19Z" fill="white"/>
<path d="M1036.73 566.78L1046.73 582.9L969.1 631.06L904.89 527.56L980.44 480.68L990.44 496.8L934.11 531.75L950.8 558.66L1000.8 527.66L1010.61 543.48L960.61 574.48L978.32 603L1036.73 566.78Z" fill="white"/>
<path d="M1048.82 466.15L1012.74 484.26L1004.16 467.16L1096.52 420.78L1105.11 437.89L1069 456L1115.06 547.74L1094.85 557.89L1048.82 466.15Z" fill="white"/>
<path d="M1124.56 409.36L1145.41 400.59L1192.62 512.87L1171.76 521.63L1124.56 409.36Z" fill="white"/>
<path d="M1189.27 382.29L1239.89 365.77C1277.44 353.52 1310.64 368.32 1321.97 403.05C1333.3 437.78 1315.22 469.32 1277.67 481.57L1227.05 498.08L1189.27 382.29ZM1270.74 463.7C1296.55 455.28 1308.13 434.11 1300.3 410.12C1292.47 386.13 1270.64 375.87 1244.84 384.29L1216.72 393.47L1242.62 472.87L1270.74 463.7Z" fill="white"/>
<path d="M1437.86 411.38L1378.24 423.78L1372.24 453.83L1349.41 458.57L1378.27 328.17L1400.07 323.63L1478.71 431.68L1455.54 436.5L1437.86 411.38ZM1426.93 395.53L1393.6 348.08L1382.12 404.85L1426.93 395.53Z" fill="white"/>
<path d="M1539.24 363.19C1537.13 326.89 1563.4 299.04 1600.75 296.88C1620.55 295.72 1637.99 301.88 1650.04 314.4L1636.25 329C1631.91 324.674 1626.69 321.332 1620.94 319.201C1615.19 317.07 1609.05 316.2 1602.94 316.65C1577.75 318.11 1560.54 336.89 1562 361.9C1563.46 386.91 1582.72 403.57 1607.9 402.11C1614.04 401.854 1620.06 400.262 1625.52 397.446C1630.99 394.629 1635.78 390.655 1639.55 385.8L1654.95 398.85C1644.42 412.71 1627.81 420.85 1607.84 421.98C1570.67 424.11 1541.35 399.5 1539.24 363.19Z" fill="white"/>
<path d="M1673.4 356.11C1675.21 320.11 1704.35 294.95 1742.06 296.85C1779.77 298.75 1806.25 326.55 1804.43 362.7C1802.61 398.85 1773.43 423.86 1735.77 421.96C1698.11 420.06 1671.6 392.08 1673.4 356.11ZM1781.67 361.55C1782.92 336.7 1765.57 317.89 1741.07 316.66C1716.57 315.43 1697.42 332.41 1696.17 357.26C1694.92 382.11 1712.27 400.92 1736.77 402.16C1761.27 403.4 1780.42 386.4 1781.67 361.55Z" fill="white"/>
<path d="M1955.65 324.86L1935.58 445L1917.21 441.93L1864.56 349.52L1851 430.86L1828.86 427.16L1848.9 307L1867.27 310.06L1919.92 402.48L1933.51 321.13L1955.65 324.86Z" fill="white"/>
<path d="M2060.08 351.33L2081.64 358.16L2050.64 456.02L2111.35 475.26L2105.57 493.5L2023.3 467.44L2060.08 351.33Z" fill="white"/>
<path d="M2210.8 506.61L2154.8 482.73L2132.68 504L2111.23 494.86L2209.41 404.3L2229.9 413L2232.72 546.61L2211 537.31L2210.8 506.61ZM2210.87 487.34L2210.62 429.34L2168.77 469.34L2210.87 487.34Z" fill="white"/>
<path d="M2247 540.14L2262.31 528.48C2267.1 540.03 2278.01 552.35 2291.14 559.48C2307.77 568.58 2318.05 566.48 2322.4 558.53C2335.01 535.53 2263.24 515.85 2284.95 476.17C2294.39 458.92 2316.15 451.78 2345.45 467.82C2358.28 474.82 2369.87 485.54 2375.84 496.74L2361.15 508.74C2355.15 498.535 2346.57 490.084 2336.28 484.23C2319.8 475.23 2309.57 477.94 2305.15 486.03C2292.7 508.78 2364.15 528.63 2342.68 567.86C2333.33 584.96 2311.42 592.01 2282.12 575.98C2265.43 566.91 2251.63 552.62 2247 540.14Z" fill="white"/>
<path d="M2522.33 639.56C2506.33 661.06 2480.55 662.47 2454.87 643.35L2432.81 626.93L2411.81 655.13L2393.66 641.62L2466.4 543.92L2506.59 573.84C2532.3 593 2538.44 617.93 2522.33 639.56ZM2504.05 626C2513.19 613.72 2510.26 600.47 2494.35 588.62L2473.13 572.83L2444.24 611.63L2465.46 627.43C2481.37 639.22 2494.91 638.23 2504.05 626Z" fill="white"/>
<path d="M2576 767.47L2563.24 781.47L2495.7 720L2577.7 629.91L2643.46 689.75L2630.7 703.75L2581.7 659.13L2560.39 682.56L2603.89 722.13L2591.29 736L2547.79 696.43L2525.19 721.26L2576 767.47Z" fill="white"/>
<path d="M2637.17 861.57L2647.03 819.21C2645.88 818.147 2644.79 817.022 2643.76 815.84L2625.36 795.41L2599 819.16L2583.86 802.35L2674.38 720.85L2707.91 758.09C2729.33 781.88 2730.45 807.57 2710.41 825.62C2696.7 837.96 2680.33 840.05 2664.48 832.08L2653.48 879.68L2637.17 861.57ZM2692.97 770.12L2675.28 750.47L2639.2 783L2656.9 802.66C2670.17 817.4 2683.76 818.97 2695.14 808.73C2706.52 798.49 2706.25 784.86 2693 770.12H2692.97Z" fill="white"/>
<path d="M2674.3 885.49L2693.09 881.33C2692.59 893.82 2697.33 909.58 2706.23 921.6C2717.51 936.85 2727.73 939.24 2735 933.86C2756.12 918.23 2699.21 870.3 2735.57 843.38C2751.38 831.69 2774.12 834.38 2793.99 861.19C2802.69 872.94 2808.72 887.52 2809.44 900.19L2791.07 904.91C2789.9 893.131 2785.67 881.863 2778.79 872.23C2767.61 857.12 2757.18 855.32 2749.79 860.8C2728.95 876.23 2785.47 924.23 2749.53 950.8C2733.87 962.39 2711.02 959.6 2691.15 932.75C2679.84 917.54 2673.31 898.78 2674.3 885.49Z" fill="white"/>
<path d="M2784.77 954.62C2815.77 936.26 2852.86 946.62 2872.1 979.12C2891.34 1011.62 2882.78 1049.04 2851.65 1067.49C2820.52 1085.94 2783.57 1075.49 2764.32 1042.98C2745.07 1010.47 2753.79 973 2784.77 954.62ZM2840 1047.88C2861.41 1035.19 2867.51 1010.34 2855 989.23C2842.49 968.12 2817.76 961.54 2796.35 974.23C2774.94 986.92 2768.84 1011.77 2781.35 1032.88C2793.86 1053.99 2818.62 1060.56 2840 1047.88Z" fill="white"/>
<path d="M2966.67 1172.7L2855.41 1222.25L2847.83 1205.25L2895.83 1110.34L2820.49 1143.9L2811.36 1123.4L2922.62 1073.84L2930.19 1090.84L2882.19 1185.75L2957.53 1152.19L2966.67 1172.7Z" fill="white"/>
<path d="M2919 1323.17L2900.51 1265.17L2870.01 1262.29L2862.93 1240.07L2995.63 1255.31L3002.39 1276.53L2903 1365.89L2895.81 1343.34L2919 1323.17ZM2933.64 1310.66L2977.4 1272.61L2919.75 1267.05L2933.64 1310.66Z" fill="white"/>
<path d="M2917.17 1372.49L2935.99 1376.49C2930.36 1387.65 2928.15 1403.96 2931.27 1418.59C2935.22 1437.14 2943.53 1443.59 2952.38 1441.67C2978.08 1436.19 2946.13 1368.99 2990.38 1359.56C3009.6 1355.46 3029.21 1367.29 3036.18 1399.96C3039.18 1414.25 3038.67 1430.03 3034.08 1441.86L3015.4 1438.55C3019.22 1427.34 3020.04 1415.33 3017.76 1403.71C3013.84 1385.33 3005.1 1379.37 2996.08 1381.29C2970.72 1386.7 3002.29 1453.8 2958.56 1463.12C2939.5 1467.19 2919.86 1455.19 2912.89 1422.51C2908.94 1404 2910.77 1384.17 2917.17 1372.49Z" fill="white"/>
<path d="M2943.07 1661.05L3023.67 1656.37L2954.73 1620.15L2954.16 1610.07L3017.6 1566.44L2938.03 1570.89L2936.83 1549.35L3058.43 1542.55L3059.43 1561.14L2981.52 1613.94L3064.79 1656.86L3065.79 1675.45L2944.2 1682.45L2943.07 1661.05Z" fill="white"/>
<path d="M2966.19 1799.47L2970.05 1738.7L2942.68 1724.93L2944.15 1701.66L3062.24 1764.08L3060.83 1786.3L2935.83 1833.46L2937.33 1809.84L2966.19 1799.47ZM2984.38 1793.13L3038.97 1773.58L2987.27 1747.46L2984.38 1793.13Z" fill="white"/>
<path d="M2967.49 1904.33L2925.04 1897.61L2928.58 1875.27L2970.69 1881.94L3056.36 1847.06L3052.58 1870.95L2988.4 1896.95L3041.4 1941.8L3037.91 1963.8L2967.49 1904.33Z" fill="white"/>
<path d="M2975.77 1965.17C3010.59 1974.37 3029.21 2008.09 3019.56 2044.6C3009.91 2081.11 2977.22 2101.26 2942.23 2092.01C2907.24 2082.76 2888.79 2049.08 2898.44 2012.58C2908.09 1976.08 2941 1956 2975.77 1965.17ZM2948.06 2070C2972.11 2076.36 2994.11 2063.28 3000.38 2039.56C3006.65 2015.84 2994 1993.56 2969.94 1987.23C2945.88 1980.9 2923.89 1993.96 2917.62 2017.68C2911.35 2041.4 2924 2063.61 2948.06 2070Z" fill="white"/>
<path d="M2845.1 2176.92L2887.33 2166.56C2887.76 2165.05 2888.28 2163.57 2888.87 2162.12L2898.77 2136.48L2865.67 2123.68L2873.82 2102.58L2987.43 2146.48L2969.37 2193.22C2957.83 2223.09 2935.42 2235.69 2910.27 2225.97C2893.06 2219.33 2883.79 2205.67 2883.74 2187.97L2836.32 2199.68L2845.1 2176.92ZM2951.89 2185.35L2961.42 2160.68L2916.14 2143.19L2906.61 2167.86C2899.46 2186.36 2904.2 2199.19 2918.48 2204.71C2932.76 2210.23 2944.74 2203.85 2951.89 2185.35Z" fill="white"/>
<path d="M2800.32 2314.29L2783.39 2305.73L2824.59 2224.21L2933.29 2279.14L2893.19 2358.49L2876.26 2349.94L2906.16 2290.77L2877.9 2276.49L2851.38 2329L2834.76 2320.6L2861.28 2268.11L2831.28 2252.97L2800.32 2314.29Z" fill="white"/>
<path d="M2784.79 2329.33L2795.52 2345.33C2783.7 2349.42 2770.75 2359.57 2762.79 2372.25C2752.71 2388.31 2754.2 2398.7 2761.86 2403.51C2784.11 2417.51 2808.02 2347.02 2846.33 2371.07C2862.98 2381.53 2868.8 2403.67 2851.03 2431.97C2843.26 2444.34 2831.88 2455.28 2820.34 2460.56L2809.25 2445.18C2819.81 2439.81 2828.78 2431.75 2835.25 2421.83C2845.25 2405.91 2843.13 2395.54 2835.32 2390.64C2813.32 2376.85 2789.26 2446.98 2751.39 2423.2C2734.88 2412.84 2729.15 2390.55 2746.92 2362.2C2757 2346.16 2772.06 2333.25 2784.79 2329.33Z" fill="white"/>
<path d="M1662.7 2842.25C1509.36 2842.25 1360.6 2812.25 1220.55 2752.98C948.222 2637.6 731.447 2420.83 616.07 2148.5C556.83 2008.5 526.8 1859.69 526.8 1706.35C526.8 1553.01 556.8 1404.25 616.07 1264.21C731.455 991.886 948.228 775.11 1220.55 659.72C1360.55 600.49 1509.36 570.45 1662.7 570.45C1816.04 570.45 1964.8 600.45 2104.85 659.72C2377.18 775.104 2593.95 991.881 2709.33 1264.21C2768.56 1404.21 2798.6 1553.02 2798.6 1706.35C2798.6 1859.68 2768.6 2008.45 2709.33 2148.5C2593.95 2420.83 2377.18 2637.61 2104.85 2753C1964.8 2812.22 1816 2842.25 1662.7 2842.25ZM1662.7 600.45C1513.4 600.45 1368.57 629.69 1232.24 687.35C967.099 799.692 756.042 1010.75 643.7 1275.89C586.03 1412.22 556.8 1557.05 556.8 1706.35C556.8 1855.65 586.03 2000.48 643.7 2136.82C756.046 2401.96 967.102 2613.01 1232.24 2725.35C1368.57 2783.02 1513.4 2812.25 1662.7 2812.25C1812 2812.25 1956.83 2783.02 2093.16 2725.35C2358.3 2613.01 2569.35 2401.95 2681.7 2136.82C2739.36 2000.48 2768.6 1855.66 2768.6 1706.35C2768.6 1557.04 2739.36 1412.22 2681.7 1275.89C2569.36 1010.75 2358.3 799.692 2093.16 687.35C1956.83 629.69 1812 600.45 1662.7 600.45Z" fill="#DF4787"/>
<path d="M1308.54 1479.11H1422.21V1517H1244.48V1487.03L1340.23 1396.1C1363.65 1373.71 1367.79 1359.59 1367.79 1346.16C1367.79 1324.12 1352.63 1311.37 1323.01 1311.37C1299.59 1311.37 1279.95 1319.29 1266.52 1336.51L1235.18 1312.4C1253.78 1287.26 1287.19 1272.45 1326.8 1272.45C1379.15 1272.45 1412.91 1298.97 1412.91 1341.68C1412.91 1365.1 1406.36 1386.46 1372.95 1417.8L1308.54 1479.11ZM1547.62 1520.44C1490.44 1520.44 1447.04 1475.67 1447.04 1396.45C1447.04 1317.23 1490.44 1272.45 1547.62 1272.45C1605.14 1272.45 1648.54 1317.23 1648.54 1396.45C1648.54 1475.67 1605.14 1520.44 1547.62 1520.44ZM1547.62 1481.52C1580.68 1481.52 1603.42 1454.66 1603.42 1396.45C1603.42 1338.24 1580.68 1311.37 1547.62 1311.37C1514.9 1311.37 1492.16 1338.24 1492.16 1396.45C1492.16 1454.66 1514.9 1481.52 1547.62 1481.52ZM1738.08 1479.11H1851.74V1517H1674.01V1487.03L1769.77 1396.1C1793.19 1373.71 1797.32 1359.59 1797.32 1346.16C1797.32 1324.12 1782.17 1311.37 1752.55 1311.37C1729.12 1311.37 1709.49 1319.29 1696.06 1336.51L1664.71 1312.4C1683.31 1287.26 1716.72 1272.45 1756.33 1272.45C1808.69 1272.45 1842.44 1298.97 1842.44 1341.68C1842.44 1365.1 1835.9 1386.46 1802.49 1417.8L1738.08 1479.11ZM1953.02 1369.24C2024.32 1369.24 2052.91 1400.24 2052.91 1442.95C2052.91 1485.31 2022.25 1520.44 1957.5 1520.44C1923.4 1520.44 1888.95 1510.11 1866.91 1492.54L1885.85 1457.76C1903.42 1472.22 1929.6 1481.52 1956.81 1481.52C1988.84 1481.52 2007.78 1467.4 2007.78 1444.67C2007.78 1421.59 1992.97 1407.12 1943.03 1407.12H1884.82L1897.22 1275.89H2038.78V1313.44H1935.11L1929.94 1369.24H1953.02Z" fill="black" fill-opacity="0.75"/>
</g>
<rect x="742" y="2486" width="1831" height="671" rx="105" fill="#A9724D" stroke="#7E9BA7" stroke-width="32"/>
<rect x="774.5" y="2518.5" width="1766" height="606" rx="72.5" fill="#7E9BA7" stroke="white" stroke-width="33"/>
<path d="M953.286 2690.3H1003.84V2709.2H953.286V2690.3ZM955.086 2733.5H1012.24V2753H930.936V2648H1010.29V2667.5H955.086V2733.5ZM1133.27 2671.1C1139.67 2671.1 1145.32 2672.4 1150.22 2675C1155.22 2677.5 1159.12 2681.4 1161.92 2686.7C1164.82 2691.9 1166.27 2698.6 1166.27 2706.8V2753H1142.87V2710.4C1142.87 2703.9 1141.52 2699.1 1138.82 2696C1136.12 2692.9 1132.32 2691.35 1127.42 2691.35C1124.02 2691.35 1120.97 2692.15 1118.27 2693.75C1115.57 2695.25 1113.47 2697.55 1111.97 2700.65C1110.47 2703.75 1109.72 2707.7 1109.72 2712.5V2753H1086.32V2710.4C1086.32 2703.9 1084.97 2699.1 1082.27 2696C1079.67 2692.9 1075.92 2691.35 1071.02 2691.35C1067.62 2691.35 1064.57 2692.15 1061.87 2693.75C1059.17 2695.25 1057.07 2697.55 1055.57 2700.65C1054.07 2703.75 1053.32 2707.7 1053.32 2712.5V2753H1029.92V2672.3H1052.27V2694.35L1048.07 2687.9C1050.87 2682.4 1054.82 2678.25 1059.92 2675.45C1065.12 2672.55 1071.02 2671.1 1077.62 2671.1C1085.02 2671.1 1091.47 2673 1096.97 2676.8C1102.57 2680.5 1106.27 2686.2 1108.07 2693.9L1099.82 2691.65C1102.52 2685.35 1106.82 2680.35 1112.72 2676.65C1118.72 2672.95 1125.57 2671.1 1133.27 2671.1ZM1234.95 2754.2C1228.15 2754.2 1222.2 2752.7 1217.1 2749.7C1212 2746.7 1208 2742.15 1205.1 2736.05C1202.3 2729.85 1200.9 2722.05 1200.9 2712.65C1200.9 2703.15 1202.25 2695.35 1204.95 2689.25C1207.65 2683.15 1211.55 2678.6 1216.65 2675.6C1221.75 2672.6 1227.85 2671.1 1234.95 2671.1C1242.55 2671.1 1249.35 2672.85 1255.35 2676.35C1261.45 2679.75 1266.25 2684.55 1269.75 2690.75C1273.35 2696.95 1275.15 2704.25 1275.15 2712.65C1275.15 2721.15 1273.35 2728.5 1269.75 2734.7C1266.25 2740.9 1261.45 2745.7 1255.35 2749.1C1249.35 2752.5 1242.55 2754.2 1234.95 2754.2ZM1187.25 2782.1V2672.3H1209.6V2688.8L1209.15 2712.8L1210.65 2736.65V2782.1H1187.25ZM1230.9 2735C1234.8 2735 1238.25 2734.1 1241.25 2732.3C1244.35 2730.5 1246.8 2727.95 1248.6 2724.65C1250.5 2721.25 1251.45 2717.25 1251.45 2712.65C1251.45 2707.95 1250.5 2703.95 1248.6 2700.65C1246.8 2697.35 1244.35 2694.8 1241.25 2693C1238.25 2691.2 1234.8 2690.3 1230.9 2690.3C1227 2690.3 1223.5 2691.2 1220.4 2693C1217.3 2694.8 1214.85 2697.35 1213.05 2700.65C1211.25 2703.95 1210.35 2707.95 1210.35 2712.65C1210.35 2717.25 1211.25 2721.25 1213.05 2724.65C1214.85 2727.95 1217.3 2730.5 1220.4 2732.3C1223.5 2734.1 1227 2735 1230.9 2735ZM1290.81 2753V2672.3H1313.16V2695.1L1310.01 2688.5C1312.41 2682.8 1316.26 2678.5 1321.56 2675.6C1326.86 2672.6 1333.31 2671.1 1340.91 2671.1V2692.7C1339.91 2692.6 1339.01 2692.55 1338.21 2692.55C1337.41 2692.45 1336.56 2692.4 1335.66 2692.4C1329.26 2692.4 1324.06 2694.25 1320.06 2697.95C1316.16 2701.55 1314.21 2707.2 1314.21 2714.9V2753H1290.81ZM1394.29 2754.2C1385.09 2754.2 1376.99 2752.4 1369.99 2748.8C1363.09 2745.2 1357.74 2740.3 1353.94 2734.1C1350.14 2727.8 1348.24 2720.65 1348.24 2712.65C1348.24 2704.55 1350.09 2697.4 1353.79 2691.2C1357.59 2684.9 1362.74 2680 1369.24 2676.5C1375.74 2672.9 1383.09 2671.1 1391.29 2671.1C1399.19 2671.1 1406.29 2672.8 1412.59 2676.2C1418.99 2679.5 1424.04 2684.3 1427.74 2690.6C1431.44 2696.8 1433.29 2704.25 1433.29 2712.95C1433.29 2713.85 1433.24 2714.9 1433.14 2716.1C1433.04 2717.2 1432.94 2718.25 1432.84 2719.25H1367.29V2705.6H1420.54L1411.54 2709.65C1411.54 2705.45 1410.69 2701.8 1408.99 2698.7C1407.29 2695.6 1404.94 2693.2 1401.94 2691.5C1398.94 2689.7 1395.44 2688.8 1391.44 2688.8C1387.44 2688.8 1383.89 2689.7 1380.79 2691.5C1377.79 2693.2 1375.44 2695.65 1373.74 2698.85C1372.04 2701.95 1371.19 2705.65 1371.19 2709.95V2713.55C1371.19 2717.95 1372.14 2721.85 1374.04 2725.25C1376.04 2728.55 1378.79 2731.1 1382.29 2732.9C1385.89 2734.6 1390.09 2735.45 1394.89 2735.45C1399.19 2735.45 1402.94 2734.8 1406.14 2733.5C1409.44 2732.2 1412.44 2730.25 1415.14 2727.65L1427.59 2741.15C1423.89 2745.35 1419.24 2748.6 1413.64 2750.9C1408.04 2753.1 1401.59 2754.2 1394.29 2754.2ZM1476.02 2754.2C1469.12 2754.2 1462.47 2753.4 1456.07 2751.8C1449.77 2750.1 1444.77 2748 1441.07 2745.5L1448.87 2728.7C1452.57 2731 1456.92 2732.9 1461.92 2734.4C1467.02 2735.8 1472.02 2736.5 1476.92 2736.5C1482.32 2736.5 1486.12 2735.85 1488.32 2734.55C1490.62 2733.25 1491.77 2731.45 1491.77 2729.15C1491.77 2727.25 1490.87 2725.85 1489.07 2724.95C1487.37 2723.95 1485.07 2723.2 1482.17 2722.7C1479.27 2722.2 1476.07 2721.7 1472.57 2721.2C1469.17 2720.7 1465.72 2720.05 1462.22 2719.25C1458.72 2718.35 1455.52 2717.05 1452.62 2715.35C1449.72 2713.65 1447.37 2711.35 1445.57 2708.45C1443.87 2705.55 1443.02 2701.8 1443.02 2697.2C1443.02 2692.1 1444.47 2687.6 1447.37 2683.7C1450.37 2679.8 1454.67 2676.75 1460.27 2674.55C1465.87 2672.25 1472.57 2671.1 1480.37 2671.1C1485.87 2671.1 1491.47 2671.7 1497.17 2672.9C1502.87 2674.1 1507.62 2675.85 1511.42 2678.15L1503.62 2694.8C1499.72 2692.5 1495.77 2690.95 1491.77 2690.15C1487.87 2689.25 1484.07 2688.8 1480.37 2688.8C1475.17 2688.8 1471.37 2689.5 1468.97 2690.9C1466.57 2692.3 1465.37 2694.1 1465.37 2696.3C1465.37 2698.3 1466.22 2699.8 1467.92 2700.8C1469.72 2701.8 1472.07 2702.6 1474.97 2703.2C1477.87 2703.8 1481.02 2704.35 1484.42 2704.85C1487.92 2705.25 1491.42 2705.9 1494.92 2706.8C1498.42 2707.7 1501.57 2709 1504.37 2710.7C1507.27 2712.3 1509.62 2714.55 1511.42 2717.45C1513.22 2720.25 1514.12 2723.95 1514.12 2728.55C1514.12 2733.55 1512.62 2738 1509.62 2741.9C1506.62 2745.7 1502.27 2748.7 1496.57 2750.9C1490.97 2753.1 1484.12 2754.2 1476.02 2754.2ZM1578.05 2753V2737.25L1576.55 2733.8V2705.6C1576.55 2700.6 1575 2696.7 1571.9 2693.9C1568.9 2691.1 1564.25 2689.7 1557.95 2689.7C1553.65 2689.7 1549.4 2690.4 1545.2 2691.8C1541.1 2693.1 1537.6 2694.9 1534.7 2697.2L1526.3 2680.85C1530.7 2677.75 1536 2675.35 1542.2 2673.65C1548.4 2671.95 1554.7 2671.1 1561.1 2671.1C1573.4 2671.1 1582.95 2674 1589.75 2679.8C1596.55 2685.6 1599.95 2694.65 1599.95 2706.95V2753H1578.05ZM1553.45 2754.2C1547.15 2754.2 1541.75 2753.15 1537.25 2751.05C1532.75 2748.85 1529.3 2745.9 1526.9 2742.2C1524.5 2738.5 1523.3 2734.35 1523.3 2729.75C1523.3 2724.95 1524.45 2720.75 1526.75 2717.15C1529.15 2713.55 1532.9 2710.75 1538 2708.75C1543.1 2706.65 1549.75 2705.6 1557.95 2705.6H1579.4V2719.25H1560.5C1555 2719.25 1551.2 2720.15 1549.1 2721.95C1547.1 2723.75 1546.1 2726 1546.1 2728.7C1546.1 2731.7 1547.25 2734.1 1549.55 2735.9C1551.95 2737.6 1555.2 2738.45 1559.3 2738.45C1563.2 2738.45 1566.7 2737.55 1569.8 2735.75C1572.9 2733.85 1575.15 2731.1 1576.55 2727.5L1580.15 2738.3C1578.45 2743.5 1575.35 2747.45 1570.85 2750.15C1566.35 2752.85 1560.55 2754.2 1553.45 2754.2ZM1702.61 2754.2C1693.91 2754.2 1686.16 2752.45 1679.36 2748.95C1672.56 2745.35 1667.21 2740.4 1663.31 2734.1C1659.51 2727.8 1657.61 2720.65 1657.61 2712.65C1657.61 2704.55 1659.51 2697.4 1663.31 2691.2C1667.21 2684.9 1672.56 2680 1679.36 2676.5C1686.16 2672.9 1693.91 2671.1 1702.61 2671.1C1711.11 2671.1 1718.51 2672.9 1724.81 2676.5C1731.11 2680 1735.76 2685.05 1738.76 2691.65L1720.61 2701.4C1718.51 2697.6 1715.86 2694.8 1712.66 2693C1709.56 2691.2 1706.16 2690.3 1702.46 2690.3C1698.46 2690.3 1694.86 2691.2 1691.66 2693C1688.46 2694.8 1685.91 2697.35 1684.01 2700.65C1682.21 2703.95 1681.31 2707.95 1681.31 2712.65C1681.31 2717.35 1682.21 2721.35 1684.01 2724.65C1685.91 2727.95 1688.46 2730.5 1691.66 2732.3C1694.86 2734.1 1698.46 2735 1702.46 2735C1706.16 2735 1709.56 2734.15 1712.66 2732.45C1715.86 2730.65 1718.51 2727.8 1720.61 2723.9L1738.76 2733.8C1735.76 2740.3 1731.11 2745.35 1724.81 2748.95C1718.51 2752.45 1711.11 2754.2 1702.61 2754.2ZM1801.74 2753V2737.25L1800.24 2733.8V2705.6C1800.24 2700.6 1798.69 2696.7 1795.59 2693.9C1792.59 2691.1 1787.94 2689.7 1781.64 2689.7C1777.34 2689.7 1773.09 2690.4 1768.89 2691.8C1764.79 2693.1 1761.29 2694.9 1758.39 2697.2L1749.99 2680.85C1754.39 2677.75 1759.69 2675.35 1765.89 2673.65C1772.09 2671.95 1778.39 2671.1 1784.79 2671.1C1797.09 2671.1 1806.64 2674 1813.44 2679.8C1820.24 2685.6 1823.64 2694.65 1823.64 2706.95V2753H1801.74ZM1777.14 2754.2C1770.84 2754.2 1765.44 2753.15 1760.94 2751.05C1756.44 2748.85 1752.99 2745.9 1750.59 2742.2C1748.19 2738.5 1746.99 2734.35 1746.99 2729.75C1746.99 2724.95 1748.14 2720.75 1750.44 2717.15C1752.84 2713.55 1756.59 2710.75 1761.69 2708.75C1766.79 2706.65 1773.44 2705.6 1781.64 2705.6H1803.09V2719.25H1784.19C1778.69 2719.25 1774.89 2720.15 1772.79 2721.95C1770.79 2723.75 1769.79 2726 1769.79 2728.7C1769.79 2731.7 1770.94 2734.1 1773.24 2735.9C1775.64 2737.6 1778.89 2738.45 1782.99 2738.45C1786.89 2738.45 1790.39 2737.55 1793.49 2735.75C1796.59 2733.85 1798.84 2731.1 1800.24 2727.5L1803.84 2738.3C1802.14 2743.5 1799.04 2747.45 1794.54 2750.15C1790.04 2752.85 1784.24 2754.2 1777.14 2754.2ZM1877.81 2754.2C1868.31 2754.2 1860.91 2751.8 1855.61 2747C1850.31 2742.1 1847.66 2734.85 1847.66 2725.25V2654.45H1871.06V2724.95C1871.06 2728.35 1871.96 2731 1873.76 2732.9C1875.56 2734.7 1878.01 2735.6 1881.11 2735.6C1884.81 2735.6 1887.96 2734.6 1890.56 2732.6L1896.86 2749.1C1894.46 2750.8 1891.56 2752.1 1888.16 2753C1884.86 2753.8 1881.41 2754.2 1877.81 2754.2ZM1835.21 2692.1V2674.1H1891.16V2692.1H1835.21ZM1947.56 2754.2C1938.36 2754.2 1930.26 2752.4 1923.26 2748.8C1916.36 2745.2 1911.01 2740.3 1907.21 2734.1C1903.41 2727.8 1901.51 2720.65 1901.51 2712.65C1901.51 2704.55 1903.36 2697.4 1907.06 2691.2C1910.86 2684.9 1916.01 2680 1922.51 2676.5C1929.01 2672.9 1936.36 2671.1 1944.56 2671.1C1952.46 2671.1 1959.56 2672.8 1965.86 2676.2C1972.26 2679.5 1977.31 2684.3 1981.01 2690.6C1984.71 2696.8 1986.56 2704.25 1986.56 2712.95C1986.56 2713.85 1986.51 2714.9 1986.41 2716.1C1986.31 2717.2 1986.21 2718.25 1986.11 2719.25H1920.56V2705.6H1973.81L1964.81 2709.65C1964.81 2705.45 1963.96 2701.8 1962.26 2698.7C1960.56 2695.6 1958.21 2693.2 1955.21 2691.5C1952.21 2689.7 1948.71 2688.8 1944.71 2688.8C1940.71 2688.8 1937.16 2689.7 1934.06 2691.5C1931.06 2693.2 1928.71 2695.65 1927.01 2698.85C1925.31 2701.95 1924.46 2705.65 1924.46 2709.95V2713.55C1924.46 2717.95 1925.41 2721.85 1927.31 2725.25C1929.31 2728.55 1932.06 2731.1 1935.56 2732.9C1939.16 2734.6 1943.36 2735.45 1948.16 2735.45C1952.46 2735.45 1956.21 2734.8 1959.41 2733.5C1962.71 2732.2 1965.71 2730.25 1968.41 2727.65L1980.86 2741.15C1977.16 2745.35 1972.51 2748.6 1966.91 2750.9C1961.31 2753.1 1954.86 2754.2 1947.56 2754.2ZM2040.09 2783.3C2032.49 2783.3 2025.14 2782.35 2018.04 2780.45C2011.04 2778.65 2005.19 2775.9 2000.49 2772.2L2009.79 2755.4C2013.19 2758.2 2017.49 2760.4 2022.69 2762C2027.99 2763.7 2033.19 2764.55 2038.29 2764.55C2046.59 2764.55 2052.59 2762.7 2056.29 2759C2060.09 2755.3 2061.99 2749.8 2061.99 2742.5V2730.35L2063.49 2710.1L2063.19 2689.7V2672.3H2085.39V2739.5C2085.39 2754.5 2081.49 2765.55 2073.69 2772.65C2065.89 2779.75 2054.69 2783.3 2040.09 2783.3ZM2036.49 2749.1C2028.99 2749.1 2022.19 2747.5 2016.09 2744.3C2010.09 2741 2005.24 2736.45 2001.54 2730.65C1997.94 2724.75 1996.14 2717.9 1996.14 2710.1C1996.14 2702.2 1997.94 2695.35 2001.54 2689.55C2005.24 2683.65 2010.09 2679.1 2016.09 2675.9C2022.19 2672.7 2028.99 2671.1 2036.49 2671.1C2043.29 2671.1 2049.29 2672.5 2054.49 2675.3C2059.69 2678 2063.74 2682.25 2066.64 2688.05C2069.54 2693.75 2070.99 2701.1 2070.99 2710.1C2070.99 2719 2069.54 2726.35 2066.64 2732.15C2063.74 2737.85 2059.69 2742.1 2054.49 2744.9C2049.29 2747.7 2043.29 2749.1 2036.49 2749.1ZM2041.14 2729.9C2045.24 2729.9 2048.89 2729.1 2052.09 2727.5C2055.29 2725.8 2057.79 2723.45 2059.59 2720.45C2061.39 2717.45 2062.29 2714 2062.29 2710.1C2062.29 2706.1 2061.39 2702.65 2059.59 2699.75C2057.79 2696.75 2055.29 2694.45 2052.09 2692.85C2048.89 2691.15 2045.24 2690.3 2041.14 2690.3C2037.04 2690.3 2033.39 2691.15 2030.19 2692.85C2026.99 2694.45 2024.44 2696.75 2022.54 2699.75C2020.74 2702.65 2019.84 2706.1 2019.84 2710.1C2019.84 2714 2020.74 2717.45 2022.54 2720.45C2024.44 2723.45 2026.99 2725.8 2030.19 2727.5C2033.39 2729.1 2037.04 2729.9 2041.14 2729.9ZM2145.57 2754.2C2136.97 2754.2 2129.32 2752.4 2122.62 2748.8C2116.02 2745.2 2110.77 2740.3 2106.87 2734.1C2103.07 2727.8 2101.17 2720.65 2101.17 2712.65C2101.17 2704.55 2103.07 2697.4 2106.87 2691.2C2110.77 2684.9 2116.02 2680 2122.62 2676.5C2129.32 2672.9 2136.97 2671.1 2145.57 2671.1C2154.07 2671.1 2161.67 2672.9 2168.37 2676.5C2175.07 2680 2180.32 2684.85 2184.12 2691.05C2187.92 2697.25 2189.82 2704.45 2189.82 2712.65C2189.82 2720.65 2187.92 2727.8 2184.12 2734.1C2180.32 2740.3 2175.07 2745.2 2168.37 2748.8C2161.67 2752.4 2154.07 2754.2 2145.57 2754.2ZM2145.57 2735C2149.47 2735 2152.97 2734.1 2156.07 2732.3C2159.17 2730.5 2161.62 2727.95 2163.42 2724.65C2165.22 2721.25 2166.12 2717.25 2166.12 2712.65C2166.12 2707.95 2165.22 2703.95 2163.42 2700.65C2161.62 2697.35 2159.17 2694.8 2156.07 2693C2152.97 2691.2 2149.47 2690.3 2145.57 2690.3C2141.67 2690.3 2138.17 2691.2 2135.07 2693C2131.97 2694.8 2129.47 2697.35 2127.57 2700.65C2125.77 2703.95 2124.87 2707.95 2124.87 2712.65C2124.87 2717.25 2125.77 2721.25 2127.57 2724.65C2129.47 2727.95 2131.97 2730.5 2135.07 2732.3C2138.17 2734.1 2141.67 2735 2145.57 2735ZM2205.46 2753V2672.3H2227.81V2695.1L2224.66 2688.5C2227.06 2682.8 2230.91 2678.5 2236.21 2675.6C2241.51 2672.6 2247.96 2671.1 2255.56 2671.1V2692.7C2254.56 2692.6 2253.66 2692.55 2252.86 2692.55C2252.06 2692.45 2251.21 2692.4 2250.31 2692.4C2243.91 2692.4 2238.71 2694.25 2234.71 2697.95C2230.81 2701.55 2228.86 2707.2 2228.86 2714.9V2753H2205.46ZM2269.62 2753V2672.3H2293.02V2753H2269.62ZM2267.67 2661.95L2287.92 2640.35H2313.12L2285.97 2661.95H2267.67ZM2364.24 2753V2737.25L2362.74 2733.8V2705.6C2362.74 2700.6 2361.19 2696.7 2358.09 2693.9C2355.09 2691.1 2350.44 2689.7 2344.14 2689.7C2339.84 2689.7 2335.59 2690.4 2331.39 2691.8C2327.29 2693.1 2323.79 2694.9 2320.89 2697.2L2312.49 2680.85C2316.89 2677.75 2322.19 2675.35 2328.39 2673.65C2334.59 2671.95 2340.89 2671.1 2347.29 2671.1C2359.59 2671.1 2369.14 2674 2375.94 2679.8C2382.74 2685.6 2386.14 2694.65 2386.14 2706.95V2753H2364.24ZM2339.64 2754.2C2333.34 2754.2 2327.94 2753.15 2323.44 2751.05C2318.94 2748.85 2315.49 2745.9 2313.09 2742.2C2310.69 2738.5 2309.49 2734.35 2309.49 2729.75C2309.49 2724.95 2310.64 2720.75 2312.94 2717.15C2315.34 2713.55 2319.09 2710.75 2324.19 2708.75C2329.29 2706.65 2335.94 2705.6 2344.14 2705.6H2365.59V2719.25H2346.69C2341.19 2719.25 2337.39 2720.15 2335.29 2721.95C2333.29 2723.75 2332.29 2726 2332.29 2728.7C2332.29 2731.7 2333.44 2734.1 2335.74 2735.9C2338.14 2737.6 2341.39 2738.45 2345.49 2738.45C2349.39 2738.45 2352.89 2737.55 2355.99 2735.75C2359.09 2733.85 2361.34 2731.1 2362.74 2727.5L2366.34 2738.3C2364.64 2743.5 2361.54 2747.45 2357.04 2750.15C2352.54 2752.85 2346.74 2754.2 2339.64 2754.2ZM1265.98 3003V2833.99H1339.14C1354.27 2833.99 1367.31 2836.49 1378.25 2841.48C1389.2 2846.31 1397.65 2853.31 1403.6 2862.48C1409.56 2871.66 1412.54 2882.6 1412.54 2895.32C1412.54 2907.87 1409.56 2918.74 1403.6 2927.91C1397.65 2937.09 1389.2 2944.17 1378.25 2949.16C1367.31 2953.99 1354.27 2956.4 1339.14 2956.4H1287.71L1305.1 2938.78V3003H1265.98ZM1305.1 2943.12L1287.71 2924.53H1336.97C1349.04 2924.53 1358.05 2921.96 1364.01 2916.81C1369.96 2911.66 1372.94 2904.49 1372.94 2895.32C1372.94 2885.98 1369.96 2878.74 1364.01 2873.59C1358.05 2868.44 1349.04 2865.86 1336.97 2865.86H1287.71L1305.1 2847.27V2943.12ZM1440.46 3003V2833.99H1479.57V2971.13H1564.32V3003H1440.46ZM1564.9 3003L1640.23 2833.99H1678.86L1754.44 3003H1713.39L1651.58 2853.79H1667.03L1604.98 3003H1564.9ZM1602.57 2966.78L1612.95 2937.09H1699.87L1710.49 2966.78H1602.57ZM1798.49 3003V2865.86H1744.41V2833.99H1891.69V2865.86H1837.6V3003H1798.49ZM1882.03 3003L1957.36 2833.99H1995.99L2071.56 3003H2030.52L1968.71 2853.79H1984.16L1922.11 3003H1882.03ZM1919.7 2966.78L1930.08 2937.09H2017L2027.62 2966.78H1919.7Z" fill="white"/>
</svg>
