<?xml version="1.0" encoding="UTF-8"?>
<svg id="Capa_2" data-name="Capa 2" xmlns="http://www.w3.org/2000/svg" viewBox="0 0 99.46 59.25">
  <defs>
    <style>
      .cls-1 {
        fill: #606060;
      }

      .cls-2 {
        fill: #fff;
      }
    </style>
  </defs>
  <g id="Capa_1-2" data-name="Capa 1">
    <g>
      <g id="Capa_1-3" data-name="Capa 1">
        <g>
          <g>
            <rect x="20.65" width="34.2" height="8.57"/>
            <g>
              <path class="cls-2" d="M22.68,1.59c0-.05.03-.08.08-.08h3.59c.05,0,.08.03.08.08v.72c0,.05-.03.08-.08.08h-2.63s-.05.02-.05.05v1.4s.02.05.05.05h2.22c.05,0,.08.03.08.08v.72c0,.05-.03.08-.08.08h-2.22s-.05.02-.05.05v1.45s.02.05.05.05h2.63c.05,0,.08.03.08.08v.72c0,.05-.03.08-.08.08h-3.59c-.05,0-.08-.03-.08-.08V1.59Z"/>
              <path class="cls-2" d="M27.01,6.56s-.05-.08-.02-.13l.52-.61s.08-.04.12,0c.37.29.92.61,1.56.61.68,0,1.08-.35,1.08-.83,0-.41-.25-.68-1.04-.79l-.3-.04c-1.1-.15-1.73-.68-1.73-1.63,0-1.04.76-1.73,1.94-1.73.72,0,1.4.23,1.85.57.04.03.05.07.02.12l-.4.62s-.08.05-.12.03c-.46-.3-.89-.45-1.37-.45-.58,0-.9.32-.9.77,0,.4.28.67,1.05.78l.3.04c1.1.15,1.71.67,1.71,1.66s-.73,1.78-2.16,1.78c-.84,0-1.66-.34-2.11-.76Z"/>
              <path class="cls-2" d="M33.33,7.23c-.05,0-.08-.03-.08-.08V2.44s-.02-.05-.05-.05h-1.5c-.05,0-.08-.03-.08-.08v-.72c0-.05.03-.08.08-.08h4.09c.05,0,.08.03.08.08v.72c0,.05-.03.08-.08.08h-1.5s-.05.02-.05.05v4.7c0,.05-.03.08-.08.08h-.83Z"/>
              <path class="cls-2" d="M39.68,5.2V1.59c0-.05.03-.08.08-.08h.83c.05,0,.08.03.08.08v3.63c0,1.33-.9,2.11-2.11,2.11s-2.11-.78-2.11-2.11V1.59c0-.05.03-.08.08-.08h.83c.05,0,.08.03.08.08v3.61c0,.79.46,1.23,1.11,1.23s1.12-.44,1.12-1.23Z"/>
              <path class="cls-2" d="M41.61,1.59c0-.05.03-.08.08-.08h2.05c.99,0,1.64.44,1.91,1.27.09.29.14.6.14,1.59s-.05,1.31-.14,1.59c-.27.83-.93,1.27-1.91,1.27h-2.05c-.05,0-.08-.03-.08-.08V1.59ZM42.66,6.34h.85c.63,0,1.02-.21,1.19-.72.06-.16.1-.42.1-1.25s-.04-1.09-.1-1.25c-.17-.51-.56-.72-1.19-.72h-.85s-.05.02-.05.05v3.84s.02.05.05.05Z"/>
              <path class="cls-2" d="M46.61,1.59c0-.05.03-.08.08-.08h.83c.05,0,.08.03.08.08v5.56c0,.05-.03.08-.08.08h-.83c-.05,0-.08-.03-.08-.08V1.59Z"/>
              <path class="cls-2" d="M48.56,5.94c-.12-.35-.15-.67-.15-1.58s.03-1.22.15-1.58c.29-.91,1.04-1.38,2.02-1.38s1.74.47,2.03,1.38c.12.35.15.67.15,1.58s-.03,1.22-.15,1.58c-.29.91-1.04,1.38-2.03,1.38s-1.73-.47-2.02-1.38ZM51.65,5.68c.07-.21.1-.51.1-1.31s-.03-1.1-.1-1.31c-.16-.46-.5-.75-1.07-.75s-.9.29-1.06.75c-.07.21-.1.5-.1,1.31s.03,1.1.1,1.31c.16.46.5.75,1.06.75s.91-.29,1.07-.75Z"/>
            </g>
          </g>
          <g>
            <rect x="20.65" y="9.43" width="58.16" height="8.57"/>
            <g>
              <path class="cls-2" d="M24.1,16.47c-.05,0-.08-.03-.08-.08v-4.7s-.02-.05-.05-.05h-1.5c-.05,0-.08-.03-.08-.08v-.72c0-.05.03-.08.08-.08h4.09c.05,0,.08.03.08.08v.72c0,.05-.03.08-.08.08h-1.5s-.05.02-.05.05v4.7c0,.05-.03.08-.08.08h-.83Z"/>
              <path class="cls-2" d="M27.17,15.18c-.12-.35-.15-.67-.15-1.58s.03-1.22.15-1.58c.29-.91,1.04-1.38,2.02-1.38s1.74.47,2.03,1.38c.12.35.15.67.15,1.58s-.03,1.22-.15,1.58c-.29.91-1.04,1.38-2.03,1.38s-1.73-.47-2.02-1.38ZM30.26,14.92c.07-.21.1-.51.1-1.31s-.03-1.1-.1-1.31c-.16-.46-.5-.75-1.07-.75s-.9.29-1.06.75c-.07.21-.1.5-.1,1.31s.03,1.1.1,1.31c.16.46.5.75,1.06.75s.91-.29,1.07-.75Z"/>
              <path class="cls-2" d="M33.46,16.47c-.05,0-.08-.03-.08-.08v-4.7s-.02-.05-.05-.05h-1.5c-.05,0-.08-.03-.08-.08v-.72c0-.05.03-.08.08-.08h4.09c.05,0,.08.03.08.08v.72c0,.05-.03.08-.08.08h-1.5s-.05.02-.05.05v4.7c0,.05-.03.08-.08.08h-.83Z"/>
              <path class="cls-2" d="M37.49,10.83c.02-.05.05-.08.11-.08h.78c.06,0,.09.03.11.08l1.94,5.56c.02.05,0,.08-.06.08h-.83c-.06,0-.09-.03-.11-.08l-.38-1.11h-2.16l-.38,1.11c-.02.06-.05.08-.11.08h-.82c-.06,0-.08-.03-.06-.08l1.96-5.56ZM38.74,14.39l-.76-2.22h-.03l-.77,2.22h1.55Z"/>
              <path class="cls-2" d="M41.01,10.83c0-.05.03-.08.08-.08h.83c.05,0,.08.03.08.08v4.7s.02.05.05.05h2.63c.05,0,.08.03.08.08v.72c0,.05-.03.08-.08.08h-3.59c-.05,0-.08-.03-.08-.08v-5.56Z"/>
              <path class="cls-2" d="M47.16,10.83c0-.05.03-.08.08-.08h2.13c1.21,0,1.79.61,1.79,1.53,0,.65-.3,1.02-.67,1.21v.02c.35.13.77.59.77,1.29,0,1.14-.72,1.69-1.97,1.69h-2.05c-.05,0-.08-.03-.08-.08v-5.56ZM49.36,13.13c.51,0,.82-.3.82-.75s-.31-.76-.82-.76h-1.15s-.05.02-.05.05v1.41s.02.05.05.05h1.15ZM48.21,15.59h1.2c.56,0,.87-.32.87-.8s-.31-.79-.87-.79h-1.2s-.05.02-.05.05v1.49s.02.05.05.05Z"/>
              <path class="cls-2" d="M55.27,16.47c-.07,0-.1-.03-.13-.08l-1.1-2.23h-.99s-.05.02-.05.05v2.18c0,.05-.03.08-.08.08h-.83c-.05,0-.08-.03-.08-.08v-5.56c0-.05.03-.08.08-.08h2.22c1.05,0,1.83.7,1.83,1.71,0,.75-.43,1.33-1.09,1.58l1.2,2.33c.03.06,0,.11-.06.11h-.94ZM55.16,12.45c0-.5-.35-.82-.88-.82h-1.22s-.05.02-.05.05v1.53s.02.05.05.05h1.22c.52,0,.88-.32.88-.81Z"/>
              <path class="cls-2" d="M58.67,10.83c.02-.05.05-.08.11-.08h.78c.06,0,.09.03.11.08l1.94,5.56c.02.05,0,.08-.06.08h-.83c-.06,0-.09-.03-.11-.08l-.38-1.11h-2.16l-.38,1.11c-.02.06-.05.08-.11.08h-.82c-.06,0-.08-.03-.06-.08l1.96-5.56ZM59.93,14.39l-.76-2.22h-.03l-.77,2.22h1.55Z"/>
              <path class="cls-2" d="M62.19,10.83c0-.05.03-.08.08-.08h.78c.07,0,.11.03.14.08l2.33,3.95h.03v-3.95c0-.05.03-.08.08-.08h.73c.05,0,.08.03.08.08v5.56c0,.05-.03.08-.08.08h-.77c-.07,0-.11-.03-.14-.08l-2.34-3.94h-.03v3.94c0,.05-.03.08-.08.08h-.73c-.05,0-.08-.03-.08-.08v-5.56Z"/>
              <path class="cls-2" d="M67.44,10.83c0-.05.03-.08.08-.08h2.05c.99,0,1.64.44,1.91,1.27.09.29.14.6.14,1.59s-.05,1.31-.14,1.59c-.27.83-.93,1.27-1.91,1.27h-2.05c-.05,0-.08-.03-.08-.08v-5.56ZM68.48,15.58h.85c.63,0,1.02-.21,1.19-.72.06-.16.1-.42.1-1.25s-.04-1.09-.1-1.25c-.17-.51-.56-.72-1.19-.72h-.85s-.05.02-.05.05v3.84s.02.05.05.05Z"/>
              <path class="cls-2" d="M72.09,15.81s-.05-.08-.02-.13l.52-.61s.08-.04.12,0c.37.29.92.61,1.56.61.68,0,1.08-.35,1.08-.83,0-.41-.25-.68-1.04-.79l-.3-.04c-1.1-.15-1.73-.68-1.73-1.63,0-1.04.76-1.73,1.94-1.73.72,0,1.4.23,1.85.57.04.03.05.07.02.12l-.4.62s-.08.05-.12.03c-.46-.3-.89-.45-1.37-.45-.58,0-.9.32-.9.77,0,.4.28.67,1.05.78l.3.04c1.1.15,1.71.67,1.71,1.66s-.73,1.78-2.16,1.78c-.84,0-1.66-.34-2.11-.76Z"/>
            </g>
          </g>
          <g>
            <rect x="47.86" y="18.86" width="25.93" height="8.57"/>
            <g>
              <path class="cls-2" d="M50.7,23.11c0-.91.03-1.2.15-1.55.29-.94,1.02-1.41,1.99-1.41.92,0,1.61.47,1.94,1.23.02.04,0,.08-.04.1l-.72.35c-.05.03-.09,0-.11-.04-.19-.4-.51-.74-1.07-.74s-.87.29-1.03.76c-.08.24-.1.46-.1,1.31s.03,1.07.1,1.31c.16.46.48.76,1.03.76s.88-.34,1.07-.74c.02-.04.06-.07.11-.04l.72.35s.06.06.04.1c-.33.76-1.02,1.23-1.94,1.23-.97,0-1.69-.47-1.99-1.41-.12-.35-.15-.64-.15-1.55Z"/>
              <path class="cls-2" d="M55.43,20.33c0-.05.03-.08.08-.08h.83c.05,0,.08.03.08.08v2.26s.02.05.05.05h2.18s.05-.02.05-.05v-2.26c0-.05.03-.08.08-.08h.83c.05,0,.08.03.08.08v5.56c0,.05-.03.08-.08.08h-.83c-.05,0-.08-.03-.08-.08v-2.31s-.02-.05-.05-.05h-2.18s-.05.02-.05.05v2.31c0,.05-.03.08-.08.08h-.83c-.05,0-.08-.03-.08-.08v-5.56Z"/>
              <path class="cls-2" d="M60.67,20.33c0-.05.03-.08.08-.08h.83c.05,0,.08.03.08.08v5.56c0,.05-.03.08-.08.08h-.83c-.05,0-.08-.03-.08-.08v-5.56Z"/>
              <path class="cls-2" d="M62.62,20.33c0-.05.03-.08.08-.08h.83c.05,0,.08.03.08.08v4.7s.02.05.05.05h2.63c.05,0,.08.03.08.08v.72c0,.05-.03.08-.08.08h-3.59c-.05,0-.08-.03-.08-.08v-5.56Z"/>
              <path class="cls-2" d="M66.98,20.33c0-.05.03-.08.08-.08h3.59c.05,0,.08.03.08.08v.72c0,.05-.03.08-.08.08h-2.63s-.05.02-.05.05v1.4s.02.05.05.05h2.22c.05,0,.08.03.08.08v.72c0,.05-.03.08-.08.08h-2.22s-.05.02-.05.05v1.45s.02.05.05.05h2.63c.05,0,.08.03.08.08v.72c0,.05-.03.08-.08.08h-3.59c-.05,0-.08-.03-.08-.08v-5.56Z"/>
            </g>
          </g>
          <g>
            <rect x="29.34" y="28.29" width="21.85" height="8.57"/>
            <g>
              <path class="cls-2" d="M32.53,34.03c.1-.18.25-.34.44-.49l1.36-1.07c.18-.14.3-.27.37-.42.07-.14.1-.29.1-.44,0-.17-.06-.32-.17-.45-.11-.13-.28-.19-.5-.19-.18,0-.33.04-.45.12-.12.08-.21.18-.26.29-.06.11-.08.21-.08.29s0,.15,0,.19h-.96s0-.08,0-.13c0-.25.06-.5.17-.74.11-.24.3-.45.57-.62.27-.17.62-.26,1.06-.26h.1c.34,0,.62.07.86.21.24.14.42.32.54.55.12.23.18.47.18.72,0,.28-.05.52-.16.73-.1.21-.29.43-.54.64-.29.25-.65.53-1.06.84-.05.04-.1.09-.17.15-.07.07-.1.11-.1.13h2.06v.9h-3.52v-.21c0-.31.05-.55.16-.73Z"/>
              <path class="cls-2" d="M39.77,34.22c-.15.26-.35.46-.61.61-.26.15-.54.22-.85.22h-.2c-.31,0-.59-.07-.85-.22-.26-.15-.46-.35-.61-.61-.15-.26-.22-.54-.22-.85v-1.57c0-.31.07-.6.22-.85.15-.26.35-.46.61-.61.26-.15.54-.22.85-.22h.2c.31,0,.59.07.85.22.26.15.46.35.61.61.15.26.22.54.22.85v1.57c0,.31-.07.6-.22.85ZM38.74,31.14c-.14-.14-.32-.22-.53-.22s-.39.07-.53.22c-.14.14-.21.32-.21.53v1.8c0,.21.07.39.21.53.14.14.32.22.53.22s.39-.07.53-.22c.14-.14.21-.32.21-.53v-1.8c0-.21-.07-.39-.21-.53Z"/>
              <path class="cls-2" d="M40.72,34.03c.1-.18.25-.34.44-.49l1.36-1.07c.18-.14.3-.27.37-.42.07-.14.1-.29.1-.44,0-.17-.06-.32-.17-.45-.11-.13-.28-.19-.5-.19-.18,0-.33.04-.45.12-.12.08-.21.18-.26.29-.06.11-.08.21-.08.29s0,.15,0,.19h-.96s0-.08,0-.13c0-.25.06-.5.17-.74.11-.24.3-.45.57-.62.27-.17.62-.26,1.06-.26h.1c.34,0,.62.07.86.21.24.14.42.32.54.55.12.23.18.47.18.72,0,.28-.05.52-.16.73-.1.21-.29.43-.54.64-.29.25-.65.53-1.06.84-.05.04-.1.09-.17.15-.07.07-.1.11-.1.13h2.06v.9h-3.52v-.21c0-.31.05-.55.16-.73Z"/>
              <path class="cls-2" d="M47.46,32.01c.23.14.41.33.53.57.12.24.18.52.18.83s-.07.59-.22.84c-.15.25-.35.44-.62.58-.26.14-.57.21-.91.21h-.1c-.35,0-.65-.07-.91-.21-.26-.14-.46-.33-.61-.58-.14-.24-.22-.51-.22-.81h.96c0,.22.09.4.24.54.16.14.34.21.55.21.24,0,.43-.07.58-.22.15-.15.22-.35.22-.59,0-.22-.07-.4-.2-.56-.13-.15-.32-.23-.55-.23-.33,0-.58.12-.75.36l-.86-.13.2-2.67h2.89v.91h-2.08l-.08,1.06c.28-.22.59-.34.93-.34s.6.07.83.21Z"/>
            </g>
          </g>
        </g>
      </g>
      <g>
        <path class="cls-1" d="M2.83,49.58h-1.21v-3.85s.03-.59.03-.59c-.2.2-.34.33-.42.39l-.66.53-.58-.73,1.84-1.46h.99v5.71Z"/>
        <path class="cls-1" d="M4.45,45.13c0-.24.06-.46.18-.67s.28-.37.49-.5.43-.18.68-.18.46.06.67.18.38.29.5.5.18.44.18.68-.06.47-.18.68-.29.37-.49.49-.43.18-.68.18c-.38,0-.7-.13-.96-.39s-.39-.58-.39-.96ZM5.2,45.13c0,.17.06.31.17.43s.26.18.43.18.32-.06.43-.18.18-.26.18-.42-.06-.31-.18-.43-.26-.18-.43-.18-.31.06-.43.18-.18.26-.18.43Z"/>
        <path class="cls-1" d="M10.32,49.58v-5.71h1.21v4.71h2.32v1h-3.53Z"/>
        <path class="cls-1" d="M17.84,49.58l-.16-.56h-.06c-.13.2-.31.36-.54.47s-.5.17-.8.17c-.51,0-.9-.14-1.16-.41s-.39-.67-.39-1.19v-2.85h1.19v2.55c0,.32.06.55.17.71s.29.24.54.24c.33,0,.57-.11.72-.33s.22-.59.22-1.11v-2.05h1.19v4.37h-.91Z"/>
        <path class="cls-1" d="M23.8,45.21v.61l-.68.18c.12.2.19.41.19.66,0,.47-.16.83-.49,1.1s-.78.39-1.36.39h-.21s-.18-.03-.18-.03c-.12.09-.18.2-.18.31,0,.17.22.26.66.26h.74c.48,0,.84.1,1.1.31s.38.51.38.91c0,.51-.21.91-.64,1.19s-1.04.42-1.83.42c-.61,0-1.08-.11-1.4-.32s-.48-.51-.48-.89c0-.26.08-.48.25-.66s.41-.3.72-.38c-.12-.05-.23-.14-.32-.26s-.14-.24-.14-.38c0-.17.05-.31.14-.42s.24-.22.42-.33c-.23-.1-.41-.26-.54-.48s-.2-.48-.2-.77c0-.48.16-.84.46-1.11s.75-.39,1.33-.39c.12,0,.27.01.44.03s.28.04.32.05h1.52ZM20.43,50.19c0,.16.08.29.24.39s.38.14.66.14c.43,0,.76-.06,1-.18s.36-.28.36-.48c0-.16-.07-.28-.21-.34s-.36-.09-.66-.09h-.62c-.22,0-.4.05-.55.15s-.22.24-.22.41ZM20.86,46.64c0,.24.05.42.16.56s.27.21.49.21.39-.07.49-.21.16-.33.16-.56c0-.53-.22-.79-.65-.79s-.66.26-.66.79Z"/>
        <path class="cls-1" d="M27.29,49.58l-.23-.59h-.03c-.2.25-.41.43-.62.53s-.49.15-.83.15c-.42,0-.75-.12-.99-.36s-.36-.58-.36-1.02.16-.81.49-1.03.81-.34,1.47-.37l.76-.02v-.19c0-.44-.23-.66-.68-.66-.35,0-.76.11-1.23.32l-.39-.8c.5-.26,1.06-.39,1.67-.39s1.04.13,1.35.38.47.64.47,1.16v2.91h-.83ZM26.94,47.55l-.46.02c-.35.01-.6.07-.77.19s-.25.29-.25.52c0,.34.19.5.58.5.28,0,.5-.08.66-.24s.25-.37.25-.63v-.36Z"/>
        <path class="cls-1" d="M31.79,45.13c.16,0,.3.01.4.04l-.09,1.12c-.1-.03-.21-.04-.35-.04-.38,0-.68.1-.89.29s-.32.47-.32.82v2.22h-1.19v-4.37h.9l.18.73h.06c.14-.25.32-.44.55-.59s.48-.22.75-.22Z"/>
        <path class="cls-1" d="M36.84,49.65c-1.36,0-2.04-.75-2.04-2.24,0-.74.18-1.31.55-1.7s.9-.59,1.59-.59c.5,0,.96.1,1.36.3l-.35.92c-.19-.08-.36-.14-.52-.19s-.32-.07-.48-.07c-.62,0-.93.44-.93,1.32s.31,1.28.93,1.28c.23,0,.44-.03.64-.09s.39-.16.59-.29v1.02c-.19.12-.39.21-.58.25s-.44.07-.74.07Z"/>
        <path class="cls-1" d="M41.15,49.65c-.7,0-1.25-.19-1.65-.58s-.59-.94-.59-1.65.18-1.3.55-1.7.87-.6,1.52-.6,1.1.18,1.44.53.52.84.52,1.46v.58h-2.82c.01.34.11.6.3.79s.45.29.79.29c.26,0,.51-.03.75-.08s.48-.14.73-.26v.92c-.21.1-.43.18-.67.23s-.53.08-.87.08ZM40.98,45.97c-.25,0-.45.08-.59.24s-.23.39-.25.68h1.67c0-.29-.08-.52-.23-.68s-.35-.24-.6-.24Z"/>
        <path class="cls-1" d="M47.93,49.58h-1.19v-2.55c0-.32-.06-.55-.17-.71s-.29-.24-.54-.24c-.33,0-.57.11-.72.33s-.22.59-.22,1.11v2.05h-1.19v-4.37h.91l.16.56h.07c.13-.21.32-.37.55-.48s.5-.16.79-.16c.51,0,.89.14,1.16.41s.39.67.39,1.19v2.85Z"/>
        <path class="cls-1" d="M51,48.7c.21,0,.46-.05.75-.14v.89c-.3.13-.66.2-1.09.2-.48,0-.82-.12-1.04-.36s-.33-.6-.33-1.08v-2.11h-.57v-.5l.66-.4.34-.92h.76v.93h1.22v.89h-1.22v2.11c0,.17.05.29.14.38s.22.12.38.12Z"/>
        <path class="cls-1" d="M55.07,45.13c.16,0,.3.01.4.04l-.09,1.12c-.1-.03-.21-.04-.35-.04-.38,0-.68.1-.89.29s-.32.47-.32.82v2.22h-1.19v-4.37h.9l.18.73h.06c.14-.25.32-.44.55-.59s.48-.22.75-.22Z"/>
        <path class="cls-1" d="M60.23,47.38c0,.71-.19,1.27-.56,1.67s-.9.6-1.57.6c-.42,0-.79-.09-1.11-.28s-.57-.45-.74-.79-.26-.75-.26-1.2c0-.71.19-1.27.56-1.66s.9-.59,1.57-.59c.42,0,.79.09,1.11.27s.57.44.74.79.26.74.26,1.2ZM57.21,47.38c0,.43.07.76.21.98s.37.33.69.33.55-.11.69-.33.21-.55.21-.98-.07-.76-.21-.97-.37-.32-.69-.32-.55.11-.69.32-.21.54-.21.97Z"/>
        <path class="cls-1" d="M64.27,48.28c0,.45-.16.79-.47,1.02s-.78.35-1.4.35c-.32,0-.59-.02-.81-.06s-.43-.11-.63-.19v-.98c.22.1.47.19.75.26s.52.11.73.11c.43,0,.65-.12.65-.38,0-.09-.03-.17-.09-.23s-.16-.12-.3-.2-.33-.16-.56-.26c-.34-.14-.58-.27-.74-.39s-.27-.26-.34-.41-.11-.35-.11-.57c0-.39.15-.69.45-.9s.73-.32,1.28-.32,1.04.11,1.54.34l-.36.86c-.22-.09-.42-.17-.61-.23s-.38-.09-.58-.09c-.35,0-.53.09-.53.29,0,.11.06.2.17.28s.36.19.74.35c.34.14.59.27.75.39s.28.26.35.41.11.34.11.56Z"/>
        <path class="cls-1" d="M68.66,49.65c-.51,0-.92-.2-1.21-.6s-.44-.95-.44-1.66.15-1.27.45-1.67.71-.6,1.23-.6c.55,0,.97.21,1.26.64h.04c-.06-.33-.09-.62-.09-.87v-1.4h1.2v6.08h-.91l-.23-.57h-.05c-.27.43-.68.64-1.24.64ZM69.07,48.7c.3,0,.53-.09.67-.27s.22-.48.23-.9v-.13c0-.47-.07-.8-.22-1.01s-.38-.3-.71-.3c-.27,0-.47.11-.62.34s-.22.55-.22.98.07.75.22.97.36.32.64.32Z"/>
        <path class="cls-1" d="M74.31,49.65c-.7,0-1.25-.19-1.65-.58s-.59-.94-.59-1.65.18-1.3.55-1.7.87-.6,1.52-.6,1.1.18,1.44.53.52.84.52,1.46v.58h-2.82c.01.34.11.6.3.79s.45.29.79.29c.26,0,.51-.03.75-.08s.48-.14.73-.26v.92c-.21.1-.43.18-.67.23s-.53.08-.87.08ZM74.14,45.97c-.25,0-.45.08-.59.24s-.23.39-.25.68h1.67c0-.29-.08-.52-.23-.68s-.35-.24-.6-.24Z"/>
        <path class="cls-1" d="M82.19,48.28c0,.45-.16.79-.47,1.02s-.78.35-1.4.35c-.32,0-.59-.02-.81-.06s-.43-.11-.63-.19v-.98c.22.1.47.19.75.26s.52.11.73.11c.43,0,.65-.12.65-.38,0-.09-.03-.17-.09-.23s-.16-.12-.3-.2-.33-.16-.56-.26c-.34-.14-.58-.27-.74-.39s-.27-.26-.34-.41-.11-.35-.11-.57c0-.39.15-.69.45-.9s.73-.32,1.28-.32,1.04.11,1.54.34l-.36.86c-.22-.09-.42-.17-.61-.23s-.38-.09-.58-.09c-.35,0-.53.09-.53.29,0,.11.06.2.17.28s.36.19.74.35c.34.14.59.27.75.39s.28.26.35.41.11.34.11.56Z"/>
        <path class="cls-1" d="M85.89,49.58l-.23-.59h-.03c-.2.25-.41.43-.62.53s-.49.15-.83.15c-.42,0-.75-.12-.99-.36s-.36-.58-.36-1.02.16-.81.49-1.03.81-.34,1.47-.37l.76-.02v-.19c0-.44-.23-.66-.68-.66-.35,0-.76.11-1.23.32l-.39-.8c.5-.26,1.06-.39,1.67-.39s1.04.13,1.35.38.47.64.47,1.16v2.91h-.83ZM85.54,47.55l-.46.02c-.35.01-.6.07-.77.19s-.25.29-.25.52c0,.34.19.5.58.5.28,0,.5-.08.66-.24s.25-.37.25-.63v-.36Z"/>
        <path class="cls-1" d="M89.14,49.58h-1.19v-6.08h1.19v6.08Z"/>
        <path class="cls-1" d="M93.48,49.58l-.16-.56h-.06c-.13.2-.31.36-.54.47s-.5.17-.8.17c-.51,0-.9-.14-1.16-.41s-.39-.67-.39-1.19v-2.85h1.19v2.55c0,.32.06.55.17.71s.29.24.54.24c.33,0,.57-.11.72-.33s.22-.59.22-1.11v-2.05h1.19v4.37h-.91Z"/>
        <path class="cls-1" d="M97.03,49.65c-.51,0-.92-.2-1.21-.6s-.44-.95-.44-1.66.15-1.27.45-1.67.71-.6,1.23-.6c.55,0,.97.21,1.26.64h.04c-.06-.33-.09-.62-.09-.87v-1.4h1.2v6.08h-.91l-.23-.57h-.05c-.27.43-.68.64-1.24.64ZM97.45,48.7c.3,0,.53-.09.67-.27s.22-.48.23-.9v-.13c0-.47-.07-.8-.22-1.01s-.38-.3-.71-.3c-.27,0-.47.11-.62.34s-.22.55-.22.98.07.75.22.97.36.32.64.32Z"/>
        <path class="cls-1" d="M44.99,59.17h-3.99v-.84l1.43-1.45c.42-.43.7-.74.83-.9s.22-.32.28-.47.09-.29.09-.45c0-.23-.06-.4-.19-.51s-.29-.17-.51-.17c-.22,0-.44.05-.64.15s-.43.25-.65.43l-.66-.78c.28-.24.51-.41.7-.51s.39-.17.61-.23.46-.08.73-.08c.36,0,.67.07.95.2s.49.31.64.55.23.5.23.8c0,.26-.05.51-.14.74s-.24.47-.43.71-.54.59-1.03,1.04l-.73.69v.05h2.49v1.02Z"/>
        <path class="cls-1" d="M49.52,56.32c0,1-.16,1.74-.49,2.21s-.83.72-1.51.72-1.16-.25-1.49-.74-.5-1.23-.5-2.19.16-1.75.49-2.23.83-.72,1.5-.72,1.16.25,1.49.75.51,1.23.51,2.2ZM46.73,56.32c0,.7.06,1.2.18,1.51s.33.46.61.46.48-.15.61-.46.19-.81.19-1.5-.06-1.2-.19-1.51-.33-.46-.61-.46-.49.15-.61.46-.18.81-.18,1.51Z"/>
        <path class="cls-1" d="M54.12,59.17h-3.99v-.84l1.43-1.45c.42-.43.7-.74.83-.9s.22-.32.28-.47.09-.29.09-.45c0-.23-.06-.4-.19-.51s-.29-.17-.51-.17c-.22,0-.44.05-.64.15s-.43.25-.65.43l-.66-.78c.28-.24.51-.41.7-.51s.39-.17.61-.23.46-.08.73-.08c.36,0,.67.07.95.2s.49.31.64.55.23.5.23.8c0,.26-.05.51-.14.74s-.24.47-.43.71-.54.59-1.03,1.04l-.73.69v.05h2.49v1.02Z"/>
        <path class="cls-1" d="M56.77,55.53c.55,0,.99.16,1.32.46s.49.73.49,1.27c0,.64-.2,1.13-.59,1.47s-.96.52-1.69.52c-.64,0-1.15-.1-1.54-.31v-1.04c.21.11.45.2.72.27s.53.1.78.1c.74,0,1.11-.3,1.11-.91s-.38-.86-1.14-.86c-.14,0-.29.01-.46.04s-.3.06-.41.09l-.48-.26.21-2.91h3.1v1.02h-2.04l-.11,1.12.14-.03c.16-.04.36-.05.59-.05Z"/>
      </g>
    </g>
  </g>
</svg>