<?xml version="1.0" encoding="UTF-8"?><svg id="Capa_2" xmlns="http://www.w3.org/2000/svg" viewBox="0 0 47.88186 47.88186"><defs><style>.cls-1{fill:#fff;}.cls-2{fill:none;stroke:#fff;stroke-miterlimit:10;stroke-width:2px;}</style></defs><g id="Capa_3"><g><circle class="cls-2" cx="23.94093" cy="23.94093" r="22.94093"/><g><path class="cls-1" d="M30.17768,38.41945h-12.47368c-4.54429,0-8.24156-3.69708-8.24156-8.24137v-12.47428c0-4.54429,3.69726-8.24137,8.24156-8.24137h12.47368c4.54429,0,8.24176,3.69708,8.24176,8.24137v12.47428c0,4.54429-3.69747,8.24137-8.24176,8.24137ZM17.704,11.94448c-3.17592,0-5.75973,2.5834-5.75973,5.75932v12.47428c0,3.17551,2.58381,5.75952,5.75973,5.75952h12.47368c3.17592,0,5.75973-2.58402,5.75973-5.75952v-12.47428c0-3.17592-2.58381-5.75932-5.75973-5.75932h-12.47368Z"/><path class="cls-1" d="M23.94093,31.35542c-4.08843,0-7.41448-3.32605-7.41448-7.41469,0-4.08802,3.32605-7.41427,7.41448-7.41427,4.08804,0,7.4143,3.32626,7.4143,7.41427,0,4.08864-3.32625,7.41469-7.4143,7.41469Zm0-12.34672c-2.71983,0-4.93243,2.21239-4.93243,4.93204s2.2126,4.93245,4.93243,4.93245c2.71964,0,4.93224-2.21281,4.93224-4.93245s-2.2126-4.93204-4.93224-4.93204Z"/><path class="cls-1" d="M33.45517,16.10264c0,.98406-.79788,1.78173-1.78194,1.78173s-1.78214-.79767-1.78214-1.78173c0-.98427,.79806-1.78253,1.78214-1.78253s1.78194,.79827,1.78194,1.78253Z"/></g></g></g></svg>