<svg xmlns="http://www.w3.org/2000/svg" width="24" height="24" viewBox="0 0 24 24">
  <g fill="#FFFFFF" fill-rule="evenodd">
    <path d="M11.8781538,23.7544615 C5.32984615,23.7544615 0,18.4264615 0,11.8781538 C0,5.328 5.32984615,0 11.8781538,0 C18.4264615,0 23.7544615,5.328 23.7544615,11.8781538 C23.7544615,18.4264615 18.4264615,23.7544615 11.8781538,23.7544615 M11.8781538,1.66338462 C6.24738462,1.66338462 1.66338462,6.24553846 1.66338462,11.8781538 C1.66338462,17.5089231 6.24738462,22.0910769 11.8781538,22.0910769 C17.5089231,22.0910769 22.0910769,17.5089231 22.0910769,11.8781538 C22.0910769,6.24553846 17.5089231,1.66338462 11.8781538,1.66338462"/>
    <path d="M16.1409231,7.37058462 C17.4258462,8.70166154 18.0424615,10.1287385 18.096,11.7958154 C18.1070769,12.1798154 17.8726154,12.4327385 17.5052308,12.4512 C17.1156923,12.4733538 16.8516923,12.2333538 16.8424615,11.8419692 C16.8203077,11.0204308 16.6356923,10.2413538 16.2276923,9.52689231 C15.3009231,7.90043077 13.8849231,7.05304615 12.024,6.94781538 C11.8135385,6.93489231 11.6196923,6.91458462 11.4756923,6.74843077 C11.2910769,6.53612308 11.2744615,6.29427692 11.3723077,6.04504615 C11.4756923,5.79581538 11.6806154,5.6832 11.9464615,5.68689231 C13.1593846,5.7072 14.2781538,6.04504615 15.288,6.71704615 C15.6369231,6.94781538 15.9526154,7.22658462 16.1409231,7.37058462 M11.8947692,8.02412308 L11.5624615,8.09058462 C11.3003077,8.21058462 11.1803077,8.5152 11.2504615,8.81796923 C11.3113846,9.08566154 11.5458462,9.27027692 11.8449231,9.27396923 C12.5372308,9.2832 13.152,9.50289231 13.6615385,9.97735385 C14.2246154,10.4998154 14.4867692,11.1570462 14.5107692,11.9176615 L14.6492308,12.3164308 C14.8135385,12.5435077 15.1107692,12.6007385 15.3803077,12.4973538 C15.6221538,12.4050462 15.7643077,12.1908923 15.7624615,11.9065846 C15.7532308,10.8432 15.3655385,9.93673846 14.6178462,9.15396923 C13.872,8.43212308 12.9618462,8.03889231 11.8947692,8.02412308 M15.4504615,17.5392 C15.7089231,17.2512 15.9969231,16.9908923 16.2664615,16.7176615 C16.6707692,16.3115077 16.6744615,15.8185846 16.272,15.4161231 C15.7956923,14.9361231 15.3175385,14.4561231 14.8338462,13.9816615 C14.4424615,13.5902769 13.9513846,13.5921231 13.56,13.9798154 C13.2609231,14.2770462 12.96,14.5724308 12.6664615,14.8752 L12.6073846,14.9250462 L12.4043077,15.1299692 L12.216,15.1244308 L11.6307692,14.8198154 C10.7649231,14.2752 10.0375385,13.5736615 9.39507692,12.7835077 C9.07569231,12.3902769 8.79138462,11.9730462 8.59569231,11.5004308 L8.60307692,11.3065846 L8.80984615,11.1016615 L8.84492308,11.0610462 L9.11261538,10.7988923 C9.31938462,10.5939692 9.52246154,10.3872 9.72923077,10.1804308 C10.1390769,9.76873846 10.1390769,9.28504615 9.72738462,8.86966154 C9.49476923,8.6352 9.25661538,8.40258462 9.02584615,8.16812308 C8.78584615,7.92812308 8.54584615,7.68443077 8.30030769,7.44627692 C7.90707692,7.05858462 7.41415385,7.05858462 7.02092308,7.44443077 C6.72,7.73981538 6.432,8.04443077 6.12738462,8.33612308 C5.84307692,8.60566154 5.69907692,8.93427692 5.66953846,9.31827692 C5.62338462,9.94412308 5.77661538,10.5348923 5.99076923,11.1108923 C6.432,12.3016615 7.104,13.3576615 7.92,14.3268923 C9.02215385,15.6376615 10.3384615,16.6752 11.88,17.4247385 C12.5723077,17.7607385 13.2923077,18.0210462 14.0695385,18.0635077 C14.6086154,18.0930462 15.0775385,17.9564308 15.4504615,17.5392"/>
  </g>
</svg>
