<?xml version="1.0" encoding="UTF-8"?><svg id="Capa_2" xmlns="http://www.w3.org/2000/svg" viewBox="0 0 47.88186 47.88186"><defs><style>.cls-1{fill:#fff;}.cls-2{fill:none;stroke:#fff;stroke-miterlimit:10;stroke-width:2px;}</style></defs><g id="Capa_3"><g><g><path class="cls-2" d="M37.79435,17.04629c-.33092-1.23177-1.30531-2.20615-2.55545-2.53707-2.2613-.58831-11.30651-.58831-11.30651-.58831,0,0-8.87975-.03677-11.14105,.55154-1.25015,.33092-2.44515,1.34207-2.77607,2.57384-.60669,2.24292-.55154,6.89421-.55154,6.89421,0,0-.05515,4.6513,.55154,6.89421,.33092,1.23177,1.5443,2.24292,2.77607,2.57384,2.2613,.60669,11.14105,.55154,11.14105,.55154,0,0,8.87975,.03677,11.14105-.55154,1.25015-.33092,2.40838-1.34207,2.7393-2.57384,.60669-2.22453,.60669-6.89421,.60669-6.89421,0,0-.01839-4.6513-.62508-6.89421Z"/><polygon class="cls-1" points="21.15632 28.38957 28.38145 23.9405 21.15632 19.49144 21.15632 28.38957"/></g><circle class="cls-2" cx="23.94093" cy="23.94093" r="22.94093"/></g></g></svg>